ISO-10303-21;
HEADER;
FILE_DESCRIPTION(('CAD model exported by cadmpeg'),'2;1');
FILE_NAME('cadmpeg_model','1970-01-01T00:00:00',(''),(''),'cadmpeg-step','cadmpeg','');
FILE_SCHEMA(('AUTOMOTIVE_DESIGN { 1 0 10303 214 1 1 1 1 }'));
ENDSEC;
DATA;
#1 = ( LENGTH_UNIT() NAMED_UNIT(*) SI_UNIT(.MILLI.,.METRE.) );
#2 = ( NAMED_UNIT(*) PLANE_ANGLE_UNIT() SI_UNIT($,.RADIAN.) );
#3 = ( NAMED_UNIT(*) SI_UNIT($,.STERADIAN.) SOLID_ANGLE_UNIT() );
#4 = UNCERTAINTY_MEASURE_WITH_UNIT(LENGTH_MEASURE(0.000001),#1,'distance_accuracy_value','maximum model space distance');
#5 = ( GEOMETRIC_REPRESENTATION_CONTEXT(3) GLOBAL_UNCERTAINTY_ASSIGNED_CONTEXT((#4)) GLOBAL_UNIT_ASSIGNED_CONTEXT((#1,#2,#3)) REPRESENTATION_CONTEXT('Context','3D') );
#6 = CARTESIAN_POINT('',(7.,0.,0.));
#7 = DIRECTION('',(1.,-0.,0.));
#8 = DIRECTION('',(0.,0.,-1.));
#9 = AXIS2_PLACEMENT_3D('',#6,#7,#8);
#10 = PLANE('',#9);
#11 = CARTESIAN_POINT('',(7.,-50.64331137482633,3.1369942196531446));
#12 = VERTEX_POINT('',#11);
#13 = CARTESIAN_POINT('',(7.,-40.049174174306756,3.136994219653146));
#14 = VERTEX_POINT('',#13);
#15 = CARTESIAN_POINT('',(7.,-45.34624277456655,3.1369942196531455));
#16 = DIRECTION('',(1.,0.,0.));
#17 = AXIS2_PLACEMENT_3D('',#15,#16,#8);
#18 = CIRCLE('',#17,5.297068600259788);
#19 = DIRECTION('',(-1.,-0.,-0.));
#20 = DIRECTION('',(-0.,0.,1.));
#21 = AXIS2_PLACEMENT_3D('',#15,#19,#20);
#22 = CYLINDRICAL_SURFACE('',#21,5.297068600259788);
#23 = CARTESIAN_POINT('',(3.141592653589793,-0.));
#24 = DIRECTION('',(-1.,0.));
#25 = VECTOR('',#24,1.);
#26 = LINE('',#23,#25);
#27 = ( GEOMETRIC_REPRESENTATION_CONTEXT(2) PARAMETRIC_REPRESENTATION_CONTEXT() REPRESENTATION_CONTEXT('uv','2D') );
#28 = DEFINITIONAL_REPRESENTATION('',(#26),#27);
#29 = PCURVE('',#22,#28);
#30 = CARTESIAN_POINT('',(-3.1369942196531455,-45.34624277456655));
#31 = DIRECTION('',(1.,0.));
#32 = AXIS2_PLACEMENT_2D('',#30,#31);
#33 = CIRCLE('',#32,5.297068600259788);
#34 = DEFINITIONAL_REPRESENTATION('',(#33),#27);
#35 = PCURVE('',#10,#34);
#36 = SURFACE_CURVE('',#18,(#29,#35),.CURVE_3D.);
#37 = EDGE_CURVE('',#12,#14,#36,.T.);
#38 = ORIENTED_EDGE('',*,*,#37,.T.);
#39 = CARTESIAN_POINT('',(7.,-40.049174174306756,-20.863005780346853));
#40 = VERTEX_POINT('',#39);
#41 = VECTOR('',#8,1.);
#42 = LINE('',#13,#41);
#43 = DIRECTION('',(-0.,1.,0.));
#44 = DIRECTION('',(0.,-0.,1.));
#45 = AXIS2_PLACEMENT_3D('',#13,#43,#44);
#46 = PLANE('',#45);
#47 = CARTESIAN_POINT('',(0.,0.));
#48 = VECTOR('',#24,1.);
#49 = LINE('',#47,#48);
#50 = DEFINITIONAL_REPRESENTATION('',(#49),#27);
#51 = PCURVE('',#46,#50);
#52 = CARTESIAN_POINT('',(-3.136994219653146,-40.049174174306756));
#53 = VECTOR('',#31,1.);
#54 = LINE('',#52,#53);
#55 = DEFINITIONAL_REPRESENTATION('',(#54),#27);
#56 = PCURVE('',#10,#55);
#57 = SURFACE_CURVE('',#42,(#51,#56),.CURVE_3D.);
#58 = EDGE_CURVE('',#40,#14,#57,.T.);
#59 = ORIENTED_EDGE('',*,*,#58,.F.);
#60 = CARTESIAN_POINT('',(7.,-50.643311374826325,-20.863005780346853));
#61 = VERTEX_POINT('',#60);
#62 = CARTESIAN_POINT('',(7.,-45.34624277456655,-20.863005780346853));
#63 = AXIS2_PLACEMENT_3D('',#62,#16,#8);
#64 = CIRCLE('',#63,5.297068600259784);
#65 = CARTESIAN_POINT('',(20.863005780346853,-45.34624277456655));
#66 = AXIS2_PLACEMENT_2D('',#65,#31);
#67 = CIRCLE('',#66,5.297068600259784);
#68 = DEFINITIONAL_REPRESENTATION('',(#67),#27);
#69 = PCURVE('',#10,#68);
#70 = AXIS2_PLACEMENT_3D('',#62,#19,#20);
#71 = CYLINDRICAL_SURFACE('',#70,5.297068600259784);
#72 = VECTOR('',#24,1.);
#73 = LINE('',#23,#72);
#74 = DEFINITIONAL_REPRESENTATION('',(#73),#27);
#75 = PCURVE('',#71,#74);
#76 = SURFACE_CURVE('',#64,(#69,#75),.CURVE_3D.);
#77 = EDGE_CURVE('',#40,#61,#76,.T.);
#78 = ORIENTED_EDGE('',*,*,#77,.T.);
#79 = DIRECTION('',(0.,0.0000000000000002891205793294679,-1.));
#80 = VECTOR('',#79,1.);
#81 = LINE('',#11,#80);
#82 = DIRECTION('',(-0.,1.,0.0000000000000002891205793294679));
#83 = DIRECTION('',(0.,-0.0000000000000002891205793294679,1.));
#84 = AXIS2_PLACEMENT_3D('',#11,#82,#83);
#85 = PLANE('',#84);
#86 = VECTOR('',#24,1.);
#87 = LINE('',#47,#86);
#88 = DEFINITIONAL_REPRESENTATION('',(#87),#27);
#89 = PCURVE('',#85,#88);
#90 = CARTESIAN_POINT('',(-3.1369942196531446,-50.64331137482633));
#91 = DIRECTION('',(1.,0.0000000000000002891205793294679));
#92 = VECTOR('',#91,1.);
#93 = LINE('',#90,#92);
#94 = DEFINITIONAL_REPRESENTATION('',(#93),#27);
#95 = PCURVE('',#10,#94);
#96 = SURFACE_CURVE('',#81,(#89,#95),.CURVE_3D.);
#97 = EDGE_CURVE('',#61,#12,#96,.T.);
#98 = ORIENTED_EDGE('',*,*,#97,.T.);
#99 = EDGE_LOOP('',(#38,#59,#78,#98));
#100 = FACE_OUTER_BOUND('',#99,.T.);
#101 = CARTESIAN_POINT('',(6.999999999999999,-45.34624277456655,-24.66300578034685));
#102 = VERTEX_POINT('',#101);
#103 = CARTESIAN_POINT('',(6.999999999999999,-45.34624277456655,-20.863005780346853));
#104 = AXIS2_PLACEMENT_3D('',#103,#7,#8);
#105 = CIRCLE('',#104,3.7999999999999976);
#106 = CARTESIAN_POINT('',(17.9,-45.34624277456655,-20.863005780346853));
#107 = AXIS2_PLACEMENT_3D('',#106,#19,#20);
#108 = CYLINDRICAL_SURFACE('',#107,3.7999999999999976);
#109 = CARTESIAN_POINT('',(3.141592653589793,10.899999999999999));
#110 = VECTOR('',#24,1.);
#111 = LINE('',#109,#110);
#112 = DEFINITIONAL_REPRESENTATION('',(#111),#27);
#113 = PCURVE('',#108,#112);
#114 = AXIS2_PLACEMENT_2D('',#65,#31);
#115 = CIRCLE('',#114,3.7999999999999976);
#116 = DEFINITIONAL_REPRESENTATION('',(#115),#27);
#117 = PCURVE('',#10,#116);
#118 = SURFACE_CURVE('',#105,(#113,#117),.CURVE_3D.);
#119 = EDGE_CURVE('',#102,#102,#118,.T.);
#120 = ORIENTED_EDGE('',*,*,#119,.F.);
#121 = EDGE_LOOP('',(#120));
#122 = FACE_BOUND('',#121,.T.);
#123 = ADVANCED_FACE('',(#100,#122),#10,.T.);
#124 = CARTESIAN_POINT('',(0.,-50.643311374826325,-20.863005780346853));
#125 = VERTEX_POINT('',#124);
#126 = CARTESIAN_POINT('',(0.,-50.64331137482633,3.1369942196531446));
#127 = VERTEX_POINT('',#126);
#128 = VECTOR('',#79,1.);
#129 = LINE('',#126,#128);
#130 = CARTESIAN_POINT('',(0.,-45.34624277456655,-20.863005780346853));
#131 = AXIS2_PLACEMENT_3D('',#130,#16,#8);
#132 = PLANE('',#131);
#133 = CARTESIAN_POINT('',(-23.999999999999996,-5.297068600259784));
#134 = VECTOR('',#91,1.);
#135 = LINE('',#133,#134);
#136 = DEFINITIONAL_REPRESENTATION('',(#135),#27);
#137 = PCURVE('',#132,#136);
#138 = CARTESIAN_POINT('',(0.,-7.));
#139 = VECTOR('',#24,1.);
#140 = LINE('',#138,#139);
#141 = DEFINITIONAL_REPRESENTATION('',(#140),#27);
#142 = PCURVE('',#85,#141);
#143 = SURFACE_CURVE('',#129,(#137,#142),.CURVE_3D.);
#144 = EDGE_CURVE('',#125,#127,#143,.T.);
#145 = ORIENTED_EDGE('',*,*,#144,.T.);
#146 = VECTOR('',#19,1.);
#147 = LINE('',#11,#146);
#148 = DIRECTION('',(0.,-1.));
#149 = VECTOR('',#148,1.);
#150 = LINE('',#47,#149);
#151 = DEFINITIONAL_REPRESENTATION('',(#150),#27);
#152 = PCURVE('',#85,#151);
#153 = CARTESIAN_POINT('',(-1.5707963267948968,7.));
#154 = DIRECTION('',(0.,1.));
#155 = VECTOR('',#154,1.);
#156 = LINE('',#153,#155);
#157 = DEFINITIONAL_REPRESENTATION('',(#156),#27);
#158 = PCURVE('',#22,#157);
#159 = SURFACE_CURVE('',#147,(#152,#158),.CURVE_3D.);
#160 = EDGE_CURVE('',#127,#12,#159,.T.);
#161 = ORIENTED_EDGE('',*,*,#160,.T.);
#162 = ORIENTED_EDGE('',*,*,#97,.F.);
#163 = VECTOR('',#19,1.);
#164 = LINE('',#60,#163);
#165 = CARTESIAN_POINT('',(-23.999999999999996,0.));
#166 = VECTOR('',#148,1.);
#167 = LINE('',#165,#166);
#168 = DEFINITIONAL_REPRESENTATION('',(#167),#27);
#169 = PCURVE('',#85,#168);
#170 = CARTESIAN_POINT('',(-1.5707963267948966,7.));
#171 = VECTOR('',#154,1.);
#172 = LINE('',#170,#171);
#173 = DEFINITIONAL_REPRESENTATION('',(#172),#27);
#174 = PCURVE('',#71,#173);
#175 = SURFACE_CURVE('',#164,(#169,#174),.CURVE_3D.);
#176 = EDGE_CURVE('',#125,#61,#175,.T.);
#177 = ORIENTED_EDGE('',*,*,#176,.F.);
#178 = EDGE_LOOP('',(#145,#161,#162,#177));
#179 = FACE_OUTER_BOUND('',#178,.T.);
#180 = ADVANCED_FACE('',(#179),#85,.T.);
#181 = CARTESIAN_POINT('',(0.,-40.049174174306756,-20.863005780346853));
#182 = VERTEX_POINT('',#181);
#183 = AXIS2_PLACEMENT_3D('',#130,#16,#8);
#184 = CIRCLE('',#183,5.297068600259784);
#185 = CARTESIAN_POINT('',(3.141592653589793,7.));
#186 = VECTOR('',#24,1.);
#187 = LINE('',#185,#186);
#188 = DEFINITIONAL_REPRESENTATION('',(#187),#27);
#189 = PCURVE('',#71,#188);
#190 = AXIS2_PLACEMENT_2D('',#47,#31);
#191 = CIRCLE('',#190,5.297068600259784);
#192 = DEFINITIONAL_REPRESENTATION('',(#191),#27);
#193 = PCURVE('',#132,#192);
#194 = SURFACE_CURVE('',#184,(#189,#193),.CURVE_3D.);
#195 = EDGE_CURVE('',#182,#125,#194,.T.);
#196 = ORIENTED_EDGE('',*,*,#195,.T.);
#197 = ORIENTED_EDGE('',*,*,#176,.T.);
#198 = ORIENTED_EDGE('',*,*,#77,.F.);
#199 = VECTOR('',#19,1.);
#200 = LINE('',#39,#199);
#201 = CARTESIAN_POINT('',(1.5707963267948966,7.));
#202 = VECTOR('',#154,1.);
#203 = LINE('',#201,#202);
#204 = DEFINITIONAL_REPRESENTATION('',(#203),#27);
#205 = PCURVE('',#71,#204);
#206 = CARTESIAN_POINT('',(-24.,0.));
#207 = VECTOR('',#148,1.);
#208 = LINE('',#206,#207);
#209 = DEFINITIONAL_REPRESENTATION('',(#208),#27);
#210 = PCURVE('',#46,#209);
#211 = SURFACE_CURVE('',#200,(#205,#210),.CURVE_3D.);
#212 = EDGE_CURVE('',#182,#40,#211,.T.);
#213 = ORIENTED_EDGE('',*,*,#212,.F.);
#214 = EDGE_LOOP('',(#196,#197,#198,#213));
#215 = FACE_OUTER_BOUND('',#214,.T.);
#216 = ADVANCED_FACE('',(#215),#71,.T.);
#217 = CARTESIAN_POINT('',(0.,-45.34624277456655,-22.313005780346852));
#218 = VERTEX_POINT('',#217);
#219 = AXIS2_PLACEMENT_3D('',#130,#7,#8);
#220 = CIRCLE('',#219,1.45);
#221 = AXIS2_PLACEMENT_3D('',#106,#19,#20);
#222 = CYLINDRICAL_SURFACE('',#221,1.45);
#223 = CARTESIAN_POINT('',(3.141592653589793,17.9));
#224 = VECTOR('',#24,1.);
#225 = LINE('',#223,#224);
#226 = DEFINITIONAL_REPRESENTATION('',(#225),#27);
#227 = PCURVE('',#222,#226);
#228 = AXIS2_PLACEMENT_2D('',#47,#31);
#229 = CIRCLE('',#228,1.45);
#230 = DEFINITIONAL_REPRESENTATION('',(#229),#27);
#231 = PCURVE('',#132,#230);
#232 = SURFACE_CURVE('',#220,(#227,#231),.CURVE_3D.);
#233 = EDGE_CURVE('',#218,#218,#232,.T.);
#234 = ORIENTED_EDGE('',*,*,#233,.T.);
#235 = EDGE_LOOP('',(#234));
#236 = FACE_OUTER_BOUND('',#235,.T.);
#237 = CARTESIAN_POINT('',(0.,-40.049174174306756,3.136994219653146));
#238 = VERTEX_POINT('',#237);
#239 = CARTESIAN_POINT('',(0.,-45.34624277456655,3.1369942196531455));
#240 = AXIS2_PLACEMENT_3D('',#239,#16,#8);
#241 = CIRCLE('',#240,5.297068600259788);
#242 = AXIS2_PLACEMENT_2D('',#206,#31);
#243 = CIRCLE('',#242,5.297068600259788);
#244 = DEFINITIONAL_REPRESENTATION('',(#243),#27);
#245 = PCURVE('',#132,#244);
#246 = VECTOR('',#24,1.);
#247 = LINE('',#185,#246);
#248 = DEFINITIONAL_REPRESENTATION('',(#247),#27);
#249 = PCURVE('',#22,#248);
#250 = SURFACE_CURVE('',#241,(#245,#249),.CURVE_3D.);
#251 = EDGE_CURVE('',#127,#238,#250,.T.);
#252 = ORIENTED_EDGE('',*,*,#251,.F.);
#253 = ORIENTED_EDGE('',*,*,#144,.F.);
#254 = ORIENTED_EDGE('',*,*,#195,.F.);
#255 = VECTOR('',#8,1.);
#256 = LINE('',#237,#255);
#257 = CARTESIAN_POINT('',(-24.,5.2970686002597915));
#258 = VECTOR('',#31,1.);
#259 = LINE('',#257,#258);
#260 = DEFINITIONAL_REPRESENTATION('',(#259),#27);
#261 = PCURVE('',#132,#260);
#262 = VECTOR('',#24,1.);
#263 = LINE('',#138,#262);
#264 = DEFINITIONAL_REPRESENTATION('',(#263),#27);
#265 = PCURVE('',#46,#264);
#266 = SURFACE_CURVE('',#256,(#261,#265),.CURVE_3D.);
#267 = EDGE_CURVE('',#182,#238,#266,.T.);
#268 = ORIENTED_EDGE('',*,*,#267,.T.);
#269 = EDGE_LOOP('',(#252,#253,#254,#268));
#270 = FACE_BOUND('',#269,.T.);
#271 = ADVANCED_FACE('',(#236,#270),#132,.T.);
#272 = CARTESIAN_POINT('',(17.9,-45.34624277456655,-22.313005780346852));
#273 = VERTEX_POINT('',#272);
#274 = AXIS2_PLACEMENT_3D('',#106,#7,#8);
#275 = CIRCLE('',#274,1.45);
#276 = VECTOR('',#24,1.);
#277 = LINE('',#23,#276);
#278 = DEFINITIONAL_REPRESENTATION('',(#277),#27);
#279 = PCURVE('',#222,#278);
#280 = AXIS2_PLACEMENT_3D('',#106,#16,#8);
#281 = PLANE('',#280);
#282 = AXIS2_PLACEMENT_2D('',#47,#31);
#283 = CIRCLE('',#282,1.45);
#284 = DEFINITIONAL_REPRESENTATION('',(#283),#27);
#285 = PCURVE('',#281,#284);
#286 = SURFACE_CURVE('',#275,(#279,#285),.CURVE_3D.);
#287 = EDGE_CURVE('',#273,#273,#286,.T.);
#288 = ORIENTED_EDGE('',*,*,#287,.T.);
#289 = DIRECTION('',(-1.,0.,0.));
#290 = VECTOR('',#289,1.);
#291 = LINE('',#272,#290);
#292 = CARTESIAN_POINT('',(3.141592653589793,0.));
#293 = VECTOR('',#154,1.);
#294 = LINE('',#292,#293);
#295 = DEFINITIONAL_REPRESENTATION('',(#294),#27);
#296 = PCURVE('',#222,#295);
#297 = VECTOR('',#154,1.);
#298 = LINE('',#292,#297);
#299 = DEFINITIONAL_REPRESENTATION('',(#298),#27);
#300 = PCURVE('',#222,#299);
#301 = SURFACE_CURVE('',#291,(#296,#300),.CURVE_3D.);
#302 = EDGE_CURVE('',#273,#218,#301,.T.);
#303 = ORIENTED_EDGE('',*,*,#302,.T.);
#304 = ORIENTED_EDGE('',*,*,#233,.F.);
#305 = ORIENTED_EDGE('',*,*,#302,.F.);
#306 = EDGE_LOOP('',(#288,#303,#304,#305));
#307 = FACE_OUTER_BOUND('',#306,.T.);
#308 = ADVANCED_FACE('',(#307),#222,.T.);
#309 = ORIENTED_EDGE('',*,*,#251,.T.);
#310 = VECTOR('',#19,1.);
#311 = LINE('',#13,#310);
#312 = VECTOR('',#148,1.);
#313 = LINE('',#47,#312);
#314 = DEFINITIONAL_REPRESENTATION('',(#313),#27);
#315 = PCURVE('',#46,#314);
#316 = VECTOR('',#154,1.);
#317 = LINE('',#201,#316);
#318 = DEFINITIONAL_REPRESENTATION('',(#317),#27);
#319 = PCURVE('',#22,#318);
#320 = SURFACE_CURVE('',#311,(#315,#319),.CURVE_3D.);
#321 = EDGE_CURVE('',#238,#14,#320,.T.);
#322 = ORIENTED_EDGE('',*,*,#321,.T.);
#323 = ORIENTED_EDGE('',*,*,#37,.F.);
#324 = ORIENTED_EDGE('',*,*,#160,.F.);
#325 = EDGE_LOOP('',(#309,#322,#323,#324));
#326 = FACE_OUTER_BOUND('',#325,.T.);
#327 = ADVANCED_FACE('',(#326),#22,.T.);
#328 = ORIENTED_EDGE('',*,*,#267,.F.);
#329 = ORIENTED_EDGE('',*,*,#212,.T.);
#330 = ORIENTED_EDGE('',*,*,#58,.T.);
#331 = ORIENTED_EDGE('',*,*,#321,.F.);
#332 = EDGE_LOOP('',(#328,#329,#330,#331));
#333 = FACE_OUTER_BOUND('',#332,.T.);
#334 = ADVANCED_FACE('',(#333),#46,.T.);
#335 = CARTESIAN_POINT('',(17.9,-45.34624277456655,-24.66300578034685));
#336 = VERTEX_POINT('',#335);
#337 = AXIS2_PLACEMENT_3D('',#106,#16,#8);
#338 = CIRCLE('',#337,3.7999999999999976);
#339 = VECTOR('',#24,1.);
#340 = LINE('',#23,#339);
#341 = DEFINITIONAL_REPRESENTATION('',(#340),#27);
#342 = PCURVE('',#108,#341);
#343 = AXIS2_PLACEMENT_2D('',#47,#31);
#344 = CIRCLE('',#343,3.7999999999999976);
#345 = DEFINITIONAL_REPRESENTATION('',(#344),#27);
#346 = PCURVE('',#281,#345);
#347 = SURFACE_CURVE('',#338,(#342,#346),.CURVE_3D.);
#348 = EDGE_CURVE('',#336,#336,#347,.T.);
#349 = ORIENTED_EDGE('',*,*,#348,.T.);
#350 = EDGE_LOOP('',(#349));
#351 = FACE_OUTER_BOUND('',#350,.T.);
#352 = ORIENTED_EDGE('',*,*,#287,.F.);
#353 = EDGE_LOOP('',(#352));
#354 = FACE_BOUND('',#353,.T.);
#355 = ADVANCED_FACE('',(#351,#354),#281,.T.);
#356 = ORIENTED_EDGE('',*,*,#119,.T.);
#357 = VECTOR('',#16,1.);
#358 = LINE('',#101,#357);
#359 = VECTOR('',#148,1.);
#360 = LINE('',#109,#359);
#361 = DEFINITIONAL_REPRESENTATION('',(#360),#27);
#362 = PCURVE('',#108,#361);
#363 = VECTOR('',#148,1.);
#364 = LINE('',#109,#363);
#365 = DEFINITIONAL_REPRESENTATION('',(#364),#27);
#366 = PCURVE('',#108,#365);
#367 = SURFACE_CURVE('',#358,(#362,#366),.CURVE_3D.);
#368 = EDGE_CURVE('',#102,#336,#367,.T.);
#369 = ORIENTED_EDGE('',*,*,#368,.T.);
#370 = ORIENTED_EDGE('',*,*,#348,.F.);
#371 = ORIENTED_EDGE('',*,*,#368,.F.);
#372 = EDGE_LOOP('',(#356,#369,#370,#371));
#373 = FACE_OUTER_BOUND('',#372,.T.);
#374 = ADVANCED_FACE('',(#373),#108,.T.);
#375 = CLOSED_SHELL('',(#123,#180,#216,#271,#308,#327,#334,#355,#374));
#376 = MANIFOLD_SOLID_BREP('',#375);
#377 = CARTESIAN_POINT('',(0.,0.,0.));
#378 = DIRECTION('',(0.,0.,1.));
#379 = AXIS2_PLACEMENT_3D('',#377,#378,#16);
#380 = APPLICATION_CONTEXT('automotive design');
#381 = APPLICATION_PROTOCOL_DEFINITION('international standard','automotive_design',2000,#380);
#382 = PRODUCT_CONTEXT('',#380,'mechanical');
#383 = PRODUCT('cadmpeg_model','cadmpeg_model','',(#382));
#384 = PRODUCT_DEFINITION_FORMATION('','',#383);
#385 = PRODUCT_DEFINITION_CONTEXT('part definition',#380,'design');
#386 = PRODUCT_DEFINITION('design','',#384,#385);
#387 = PRODUCT_DEFINITION_SHAPE('','',#386);
#388 = ADVANCED_BREP_SHAPE_REPRESENTATION('',(#376,#379),#5);
#389 = SHAPE_DEFINITION_REPRESENTATION(#387,#388);
ENDSEC;
END-ISO-10303-21;
