ISO-10303-21;
HEADER;
FILE_DESCRIPTION (( 'STEP AP214' ),
    '1' );
FILE_NAME ('ArkCan mount.STEP',
    '2026-09-21T18:02:09',
    ( '' ),
    ( '' ),
    'SwSTEP 2.0',
    'SolidWorks 2026',
    '' );
FILE_SCHEMA (( 'AUTOMOTIVE_DESIGN' ));
ENDSEC;

DATA;
#1 = ORIENTED_EDGE ( 'NONE', *, *, #624, .F. ) ;
#2 = DIRECTION ( 'NONE',  ( 1.000000000000000000, -0.000000000000000000, 0.000000000000000000 ) ) ;
#3 = CIRCLE ( 'NONE', #1270, 0.3500000000000003109 ) ;
#4 = ORIENTED_EDGE ( 'NONE', *, *, #915, .F. ) ;
#5 = AXIS2_PLACEMENT_3D ( 'NONE', #564, #1177, #1287 ) ;
#6 = AXIS2_PLACEMENT_3D ( 'NONE', #406, #1334, #801 ) ;
#7 = CARTESIAN_POINT ( 'NONE',  ( 0.3975000000000000200, 4.490250384563220898, 16.72450905858789127 ) ) ;
#8 = CARTESIAN_POINT ( 'NONE',  ( 0.3975000000000000200, 4.350250384563221218, 16.96450905858789326 ) ) ;
#9 = DIRECTION ( 'NONE',  ( 0.000000000000000000, 0.000000000000000000, 1.000000000000000000 ) ) ;
#10 = EDGE_CURVE ( 'NONE', #1155, #1016, #409, .T. ) ;
#11 = ORIENTED_EDGE ( 'NONE', *, *, #388, .T. ) ;
#12 = FACE_OUTER_BOUND ( 'NONE', #273, .T. ) ;
#13 = DIRECTION ( 'NONE',  ( 0.000000000000000000, -1.000000000000000000, -0.000000000000000000 ) ) ;
#14 = VERTEX_POINT ( 'NONE', #1236 ) ;
#15 = FACE_OUTER_BOUND ( 'NONE', #219, .T. ) ;
#16 = DIRECTION ( 'NONE',  ( 0.000000000000000000, 0.000000000000000000, 1.000000000000000000 ) ) ;
#17 = ADVANCED_FACE ( 'NONE', ( #638 ), #1244, .F. ) ;
#18 = EDGE_LOOP ( 'NONE', ( #872, #928 ) ) ;
#19 = CYLINDRICAL_SURFACE ( 'NONE', #434, 0.2500000000000002220 ) ;
#20 = DIRECTION ( 'NONE',  ( 0.000000000000000000, 0.000000000000000000, -1.000000000000000000 ) ) ;
#21 = ORIENTED_EDGE ( 'NONE', *, *, #676, .T. ) ;
#22 = DIRECTION ( 'NONE',  ( 0.000000000000000000, 0.000000000000000000, -1.000000000000000000 ) ) ;
#23 = DIRECTION ( 'NONE',  ( -1.000000000000000000, -0.000000000000000000, -0.000000000000000000 ) ) ;
#24 = CIRCLE ( 'NONE', #301, 0.1625000000000015321 ) ;
#25 = VERTEX_POINT ( 'NONE', #1127 ) ;
#26 = CARTESIAN_POINT ( 'NONE',  ( 0.4975000000000000533, 1.148549615436786686, 16.72450905858789127 ) ) ;
#27 = CIRCLE ( 'NONE', #431, 0.2500000000000002220 ) ;
#28 = DIRECTION ( 'NONE',  ( 1.000000000000000000, -0.000000000000000000, 0.000000000000000000 ) ) ;
#29 = ORIENTED_EDGE ( 'NONE', *, *, #314, .T. ) ;
#30 = CIRCLE ( 'NONE', #121, 0.2500000000000002220 ) ;
#31 = AXIS2_PLACEMENT_3D ( 'NONE', #401, #729, #120 ) ;
#32 = DIRECTION ( 'NONE',  ( 0.000000000000000000, 0.000000000000000000, -1.000000000000000000 ) ) ;
#33 = AXIS2_PLACEMENT_3D ( 'NONE', #1054, #1049, #539 ) ;
#34 = CIRCLE ( 'NONE', #727, 0.3500000000000003109 ) ;
#35 = CARTESIAN_POINT ( 'NONE',  ( 0.5975000000000001421, 1.619400000000005946, 13.99365867402467778 ) ) ;
#36 = DIRECTION ( 'NONE',  ( -1.000000000000000000, -0.000000000000000000, -0.000000000000000000 ) ) ;
#37 = ORIENTED_EDGE ( 'NONE', *, *, #735, .F. ) ;
#38 = CARTESIAN_POINT ( 'NONE',  ( 0.4975000000000000533, 4.350250384563221218, 13.52280828946146052 ) ) ;
#39 = EDGE_LOOP ( 'NONE', ( #663, #659, #672, #427 ) ) ;
#40 = EDGE_CURVE ( 'NONE', #1141, #610, #425, .T. ) ;
#41 = CARTESIAN_POINT ( 'NONE',  ( 0.000000000000000000, 1.619400000000005946, 14.15615867402467742 ) ) ;
#42 = DIRECTION ( 'NONE',  ( -1.000000000000000000, -0.000000000000000000, -0.000000000000000000 ) ) ;
#43 = ORIENTED_EDGE ( 'NONE', *, *, #10, .F. ) ;
#44 = DIRECTION ( 'NONE',  ( 0.000000000000000000, 0.000000000000000000, 1.000000000000000000 ) ) ;
#45 = DIRECTION ( 'NONE',  ( -0.000000000000000000, -0.000000000000000000, 1.000000000000000000 ) ) ;
#46 = VERTEX_POINT ( 'NONE', #110 ) ;
#47 = DIRECTION ( 'NONE',  ( -1.000000000000000000, 0.000000000000000000, -0.000000000000000000 ) ) ;
#48 = FACE_OUTER_BOUND ( 'NONE', #1237, .T. ) ;
#49 = FACE_BOUND ( 'NONE', #1281, .T. ) ;
#50 = DIRECTION ( 'NONE',  ( 0.000000000000000000, 0.000000000000000000, -1.000000000000000000 ) ) ;
#51 = AXIS2_PLACEMENT_3D ( 'NONE', #797, #1095, #290 ) ;
#52 = VERTEX_POINT ( 'NONE', #209 ) ;
#53 = VECTOR ( 'NONE', #398, 100.0000000000000000 ) ;
#54 = CIRCLE ( 'NONE', #413, 0.2500000000000002220 ) ;
#55 = DIRECTION ( 'NONE',  ( 0.000000000000000000, 0.000000000000000000, -1.000000000000000000 ) ) ;
#56 = CIRCLE ( 'NONE', #1109, 0.2500000000000002220 ) ;
#57 = DIRECTION ( 'NONE',  ( -1.000000000000000000, -0.000000000000000000, -0.000000000000000000 ) ) ;
#58 = CIRCLE ( 'NONE', #482, 0.3500000000000003109 ) ;
#59 = VECTOR ( 'NONE', #45, 100.0000000000000000 ) ;
#60 = EDGE_LOOP ( 'NONE', ( #479, #29, #471, #1 ) ) ;
#61 = EDGE_CURVE ( 'NONE', #758, #1179, #1125, .T. ) ;
#62 = DIRECTION ( 'NONE',  ( 1.000000000000000000, -0.000000000000000000, 0.000000000000000000 ) ) ;
#63 = EDGE_LOOP ( 'NONE', ( #211, #1233, #778, #462 ) ) ;
#64 = DIRECTION ( 'NONE',  ( -1.000000000000000000, -0.000000000000000000, -0.000000000000000000 ) ) ;
#65 = FACE_OUTER_BOUND ( 'NONE', #60, .T. ) ;
#66 = VERTEX_POINT ( 'NONE', #840 ) ;
#67 = FACE_OUTER_BOUND ( 'NONE', #392, .T. ) ;
#68 = EDGE_CURVE ( 'NONE', #1096, #785, #193, .T. ) ;
#69 = VERTEX_POINT ( 'NONE', #525 ) ;
#70 = DIRECTION ( 'NONE',  ( 0.000000000000000000, 0.000000000000000000, 1.000000000000000000 ) ) ;
#71 = CARTESIAN_POINT ( 'NONE',  ( 0.3975000000000000200, 4.490250384563220898, 0.000000000000000000 ) ) ;
#72 = ORIENTED_EDGE ( 'NONE', *, *, #293, .T. ) ;
#73 = FACE_OUTER_BOUND ( 'NONE', #422, .T. ) ;
#74 = VERTEX_POINT ( 'NONE', #316 ) ;
#75 = UNCERTAINTY_MEASURE_WITH_UNIT (LENGTH_MEASURE( 1.000000000000000082E-05 ), #131, 'distance_accuracy_value', 'NONE');
#76 = CIRCLE ( 'NONE', #612, 0.2500000000000002220 ) ;
#77 = CARTESIAN_POINT ( 'NONE',  ( 0.4975000000000000533, 1.048549615436786819, 16.96450905858789326 ) ) ;
#78 = AXIS2_PLACEMENT_3D ( 'NONE', #71, #1307, #1215 ) ;
#79 = EDGE_CURVE ( 'NONE', #95, #1085, #250, .T. ) ;
#80 = AXIS2_PLACEMENT_3D ( 'NONE', #188, #1342, #932 ) ;
#81 = DIRECTION ( 'NONE',  ( -1.000000000000000000, -0.000000000000000000, -0.000000000000000000 ) ) ;
#82 = AXIS2_PLACEMENT_3D ( 'NONE', #367, #603, #1206 ) ;
#83 = CIRCLE ( 'NONE', #830, 0.2400000000000013234 ) ;
#84 = VERTEX_POINT ( 'NONE', #198 ) ;
#85 = CARTESIAN_POINT ( 'NONE',  ( 0.3975000000000000200, 1.048549615436786819, 16.72450905858789127 ) ) ;
#86 = AXIS2_PLACEMENT_3D ( 'NONE', #199, #1080, #9 ) ;
#87 = ORIENTED_EDGE ( 'NONE', *, *, #692, .F. ) ;
#88 = AXIS2_PLACEMENT_3D ( 'NONE', #1092, #473, #658 ) ;
#89 = PLANE ( 'NONE',  #958 ) ;
#90 = EDGE_CURVE ( 'NONE', #529, #808, #537, .T. ) ;
#91 = CARTESIAN_POINT ( 'NONE',  ( 0.4975000000000000533, 4.350250384563221218, 16.72450905858789127 ) ) ;
#92 = EDGE_LOOP ( 'NONE', ( #842, #907, #728, #648, #706, #385, #519, #575 ) ) ;
#93 = LINE ( 'NONE', #1222, #1005 ) ;
#94 = CARTESIAN_POINT ( 'NONE',  ( 0.000000000000000000, 1.048549615436786819, 16.96450905858789326 ) ) ;
#95 = VERTEX_POINT ( 'NONE', #860 ) ;
#96 = ORIENTED_EDGE ( 'NONE', *, *, #68, .T. ) ;
#97 = LINE ( 'NONE', #962, #1238 ) ;
#98 = CIRCLE ( 'NONE', #144, 0.1625000000000015321 ) ;
#99 = AXIS2_PLACEMENT_3D ( 'NONE', #909, #381, #182 ) ;
#100 = LINE ( 'NONE', #1149, #1343 ) ;
#101 = AXIS2_PLACEMENT_3D ( 'NONE', #978, #140, #1157 ) ;
#102 = EDGE_CURVE ( 'NONE', #945, #1141, #737, .T. ) ;
#103 = CIRCLE ( 'NONE', #1258, 0.2400000000000013234 ) ;
#104 = DIRECTION ( 'NONE',  ( 0.000000000000000000, 0.000000000000000000, 1.000000000000000000 ) ) ;
#105 = AXIS2_PLACEMENT_3D ( 'NONE', #679, #238, #786 ) ;
#106 = EDGE_CURVE ( 'NONE', #494, #295, #3, .T. ) ;
#107 = ORIENTED_EDGE ( 'NONE', *, *, #584, .F. ) ;
#108 = CIRCLE ( 'NONE', #483, 0.1000000000000000888 ) ;
#109 = CYLINDRICAL_SURFACE ( 'NONE', #1165, 0.2400000000000013234 ) ;
#110 = CARTESIAN_POINT ( 'NONE',  ( 0.000000000000000000, 4.019400000000003637, 14.15615867402467920 ) ) ;
#111 = ORIENTED_EDGE ( 'NONE', *, *, #226, .T. ) ;
#112 = LINE ( 'NONE', #846, #634 ) ;
#113 = EDGE_LOOP ( 'NONE', ( #939, #855, #1078, #858 ) ) ;
#114 = ORIENTED_EDGE ( 'NONE', *, *, #733, .T. ) ;
#115 = EDGE_CURVE ( 'NONE', #14, #313, #98, .T. ) ;
#116 = DIRECTION ( 'NONE',  ( 0.000000000000000000, 0.000000000000000000, -1.000000000000000000 ) ) ;
#117 = AXIS2_PLACEMENT_3D ( 'NONE', #879, #668, #330 ) ;
#118 = DIRECTION ( 'NONE',  ( 0.000000000000000000, 0.000000000000000000, -1.000000000000000000 ) ) ;
#119 = ORIENTED_EDGE ( 'NONE', *, *, #582, .T. ) ;
#120 = DIRECTION ( 'NONE',  ( 0.000000000000000000, 0.000000000000000000, 1.000000000000000000 ) ) ;
#121 = AXIS2_PLACEMENT_3D ( 'NONE', #468, #1156, #412 ) ;
#122 = DIRECTION ( 'NONE',  ( -1.000000000000000000, -0.000000000000000000, -0.000000000000000000 ) ) ;
#123 = CIRCLE ( 'NONE', #256, 0.1000000000000000888 ) ;
#124 = TOROIDAL_SURFACE ( 'NONE', #787, 0.3500000000000002554, 0.1000000000000000056 ) ;
#125 = VECTOR ( 'NONE', #122, 100.0000000000000000 ) ;
#126 = CARTESIAN_POINT ( 'NONE',  ( 0.3975000000000000200, 1.288549615436786810, 16.96450905858789326 ) ) ;
#127 = EDGE_CURVE ( 'NONE', #754, #1025, #916, .T. ) ;
#128 = DIRECTION ( 'NONE',  ( 0.000000000000000000, -1.469398677973023743E-16, 1.000000000000000000 ) ) ;
#129 = EDGE_LOOP ( 'NONE', ( #1312, #1271, #192, #1059 ) ) ;
#130 = FACE_OUTER_BOUND ( 'NONE', #405, .T. ) ;
#131 =( LENGTH_UNIT ( ) NAMED_UNIT ( * ) SI_UNIT ( .CENTI., .METRE. ) );
#132 = ORIENTED_EDGE ( 'NONE', *, *, #971, .T. ) ;
#133 = DIRECTION ( 'NONE',  ( 1.000000000000000000, -0.000000000000000000, 0.000000000000000000 ) ) ;
#134 = CARTESIAN_POINT ( 'NONE',  ( 0.4975000000000000533, 1.619400000000004836, 16.04365867402467671 ) ) ;
#135 = EDGE_LOOP ( 'NONE', ( #645, #893, #1103, #486 ) ) ;
#136 = EDGE_CURVE ( 'NONE', #247, #442, #1144, .T. ) ;
#137 = CARTESIAN_POINT ( 'NONE',  ( 1.037500000000000089, 4.019400000000004525, 16.39365867402467813 ) ) ;
#138 = CARTESIAN_POINT ( 'NONE',  ( 0.5975000000000000311, 1.619400000000004836, 16.04365867402467671 ) ) ;
#139 = ORIENTED_EDGE ( 'NONE', *, *, #1265, .T. ) ;
#140 = DIRECTION ( 'NONE',  ( -0.000000000000000000, -1.000000000000000000, 0.000000000000000000 ) ) ;
#141 = LINE ( 'NONE', #1073, #478 ) ;
#142 = CYLINDRICAL_SURFACE ( 'NONE', #831, 0.1625000000000015321 ) ;
#143 = ADVANCED_FACE ( 'NONE', ( #1280 ), #662, .T. ) ;
#144 = AXIS2_PLACEMENT_3D ( 'NONE', #979, #1168, #544 ) ;
#145 = ORIENTED_EDGE ( 'NONE', *, *, #866, .F. ) ;
#146 = LINE ( 'NONE', #1184, #1191 ) ;
#147 = CIRCLE ( 'NONE', #501, 0.2500000000000002220 ) ;
#148 = EDGE_CURVE ( 'NONE', #1032, #689, #141, .T. ) ;
#149 = DIRECTION ( 'NONE',  ( 0.000000000000000000, 0.000000000000000000, -1.000000000000000000 ) ) ;
#150 = VERTEX_POINT ( 'NONE', #236 ) ;
#151 = AXIS2_PLACEMENT_3D ( 'NONE', #1328, #303, #187 ) ;
#152 = DIRECTION ( 'NONE',  ( -1.000000000000000000, 0.000000000000000000, -0.000000000000000000 ) ) ;
#153 = DIRECTION ( 'NONE',  ( 0.000000000000000000, 0.000000000000000000, -1.000000000000000000 ) ) ;
#154 = ORIENTED_EDGE ( 'NONE', *, *, #1346, .T. ) ;
#155 = FACE_BOUND ( 'NONE', #713, .T. ) ;
#156 = DIRECTION ( 'NONE',  ( 1.000000000000000000, -0.000000000000000000, 0.000000000000000000 ) ) ;
#157 = ORIENTED_EDGE ( 'NONE', *, *, #293, .F. ) ;
#158 = LINE ( 'NONE', #991, #740 ) ;
#159 = LINE ( 'NONE', #266, #319 ) ;
#160 = DIRECTION ( 'NONE',  ( 0.000000000000000000, 0.000000000000000000, 1.000000000000000000 ) ) ;
#161 = VERTEX_POINT ( 'NONE', #8 ) ;
#162 = PLANE ( 'NONE',  #870 ) ;
#163 = VERTEX_POINT ( 'NONE', #1285 ) ;
#164 = CARTESIAN_POINT ( 'NONE',  ( 1.037500000000000089, 1.619400000000005946, 13.83115867402467991 ) ) ;
#165 = EDGE_CURVE ( 'NONE', #533, #888, #335, .T. ) ;
#166 = FACE_OUTER_BOUND ( 'NONE', #1221, .T. ) ;
#167 = ORIENTED_EDGE ( 'NONE', *, *, #750, .T. ) ;
#168 = FACE_OUTER_BOUND ( 'NONE', #745, .T. ) ;
#169 = CIRCLE ( 'NONE', #955, 0.2500000000000002220 ) ;
#170 = ORIENTED_EDGE ( 'NONE', *, *, #712, .F. ) ;
#171 = CARTESIAN_POINT ( 'NONE',  ( 0.4975000000000000533, 1.048549615436787263, 13.66280828946146109 ) ) ;
#172 = AXIS2_PLACEMENT_3D ( 'NONE', #446, #1213, #803 ) ;
#173 = CARTESIAN_POINT ( 'NONE',  ( 0.3975000000000000200, 4.590250384563220543, 13.66280828946146109 ) ) ;
#174 = AXIS2_PLACEMENT_3D ( 'NONE', #862, #347, #764 ) ;
#175 = CARTESIAN_POINT ( 'NONE',  ( 0.4975000000000000533, 1.619400000000005946, 13.83115867402467991 ) ) ;
#176 = ADVANCED_FACE ( 'NONE', ( #1269 ), #747, .T. ) ;
#177 = AXIS2_PLACEMENT_3D ( 'NONE', #1301, #267, #688 ) ;
#178 = ORIENTED_EDGE ( 'NONE', *, *, #1048, .T. ) ;
#179 = CARTESIAN_POINT ( 'NONE',  ( 1.037500000000000089, 1.619400000000005946, 13.99365867402467778 ) ) ;
#180 = VERTEX_POINT ( 'NONE', #134 ) ;
#181 = CARTESIAN_POINT ( 'NONE',  ( 0.4975000000000000533, 1.619400000000004836, 16.39365867402467813 ) ) ;
#182 = DIRECTION ( 'NONE',  ( 0.000000000000000000, 0.000000000000000000, -1.000000000000000000 ) ) ;
#183 = ORIENTED_EDGE ( 'NONE', *, *, #705, .F. ) ;
#184 = CARTESIAN_POINT ( 'NONE',  ( 0.5975000000000000311, 4.019400000000003637, 13.99365867402467778 ) ) ;
#185 = EDGE_CURVE ( 'NONE', #336, #743, #24, .T. ) ;
#186 = ORIENTED_EDGE ( 'NONE', *, *, #394, .F. ) ;
#187 = DIRECTION ( 'NONE',  ( 0.000000000000000000, 0.000000000000000000, -1.000000000000000000 ) ) ;
#188 = CARTESIAN_POINT ( 'NONE',  ( 0.5975000000000001421, 4.019400000000004525, 16.39365867402467813 ) ) ;
#189 = ORIENTED_EDGE ( 'NONE', *, *, #773, .T. ) ;
#190 = EDGE_CURVE ( 'NONE', #74, #295, #863, .T. ) ;
#191 = DIRECTION ( 'NONE',  ( 0.000000000000000000, 0.000000000000000000, -1.000000000000000000 ) ) ;
#192 = ORIENTED_EDGE ( 'NONE', *, *, #40, .T. ) ;
#193 = CIRCLE ( 'NONE', #841, 0.1000000000000000888 ) ;
#194 = DIRECTION ( 'NONE',  ( 0.000000000000000000, 0.000000000000000000, -1.000000000000000000 ) ) ;
#195 = FACE_OUTER_BOUND ( 'NONE', #1053, .T. ) ;
#196 = VECTOR ( 'NONE', #64, 100.0000000000000000 ) ;
#197 = CIRCLE ( 'NONE', #480, 0.2500000000000002220 ) ;
#198 = CARTESIAN_POINT ( 'NONE',  ( 0.4975000000000000533, 4.490250384563220898, 13.66280828946146109 ) ) ;
#199 = CARTESIAN_POINT ( 'NONE',  ( 0.4975000000000000533, 1.288549615436787255, 13.66280828946146109 ) ) ;
#200 = ORIENTED_EDGE ( 'NONE', *, *, #640, .T. ) ;
#201 = DIRECTION ( 'NONE',  ( 1.000000000000000000, 0.000000000000000000, 0.000000000000000000 ) ) ;
#202 = DIRECTION ( 'NONE',  ( 1.000000000000000000, 0.000000000000000000, 0.000000000000000000 ) ) ;
#203 = ORIENTED_EDGE ( 'NONE', *, *, #394, .T. ) ;
#204 = ORIENTED_EDGE ( 'NONE', *, *, #419, .T. ) ;
#205 = CARTESIAN_POINT ( 'NONE',  ( 0.3975000000000000200, 4.350250384563221218, 13.52280828946146052 ) ) ;
#206 = EDGE_CURVE ( 'NONE', #1203, #1283, #228, .T. ) ;
#207 = CARTESIAN_POINT ( 'NONE',  ( 0.3975000000000000200, 4.350250384563221218, 16.72450905858789127 ) ) ;
#208 = ADVANCED_FACE ( 'NONE', ( #433 ), #775, .T. ) ;
#209 = CARTESIAN_POINT ( 'NONE',  ( 0.3975000000000000200, 1.288549615436787255, 13.42280828946146087 ) ) ;
#210 = ORIENTED_EDGE ( 'NONE', *, *, #598, .F. ) ;
#211 = ORIENTED_EDGE ( 'NONE', *, *, #1183, .T. ) ;
#212 = CARTESIAN_POINT ( 'NONE',  ( 1.037500000000000089, 1.619400000000004836, 16.39365867402467813 ) ) ;
#213 = VECTOR ( 'NONE', #1329, 100.0000000000000000 ) ;
#214 = ORIENTED_EDGE ( 'NONE', *, *, #877, .T. ) ;
#215 = AXIS2_PLACEMENT_3D ( 'NONE', #558, #887, #1084 ) ;
#216 = EDGE_LOOP ( 'NONE', ( #685, #268, #923, #1333 ) ) ;
#217 = CARTESIAN_POINT ( 'NONE',  ( 0.3975000000000000200, 4.350250384563221218, 13.66280828946146109 ) ) ;
#218 = CARTESIAN_POINT ( 'NONE',  ( 0.4975000000000000533, 1.048549615436786819, 16.72450905858789127 ) ) ;
#219 = EDGE_LOOP ( 'NONE', ( #263, #605, #732, #1317 ) ) ;
#220 = EDGE_CURVE ( 'NONE', #838, #84, #1212, .T. ) ;
#221 = CARTESIAN_POINT ( 'NONE',  ( 0.000000000000000000, 4.019400000000004525, 16.39365867402467813 ) ) ;
#222 = DIRECTION ( 'NONE',  ( -1.000000000000000000, -0.000000000000000000, -0.000000000000000000 ) ) ;
#223 = ORIENTED_EDGE ( 'NONE', *, *, #1099, .F. ) ;
#224 = DIRECTION ( 'NONE',  ( 1.000000000000000000, 0.000000000000000000, 0.000000000000000000 ) ) ;
#225 = DIRECTION ( 'NONE',  ( -1.000000000000000000, 0.000000000000000000, 0.000000000000000000 ) ) ;
#226 = EDGE_CURVE ( 'NONE', #1230, #46, #1254, .T. ) ;
#227 = CARTESIAN_POINT ( 'NONE',  ( 1.037500000000000089, 4.019400000000004525, 16.39365867402467813 ) ) ;
#228 = LINE ( 'NONE', #561, #631 ) ;
#229 = CIRCLE ( 'NONE', #80, 0.2500000000000002220 ) ;
#230 = DIRECTION ( 'NONE',  ( 1.000000000000000000, 0.000000000000000000, 0.000000000000000000 ) ) ;
#231 = COLOUR_RGB ( '',0.7921568627450980005, 0.8196078431372548767, 0.9333333333333333481 ) ;
#232 = CARTESIAN_POINT ( 'NONE',  ( 0.000000000000000000, 4.590250384563220543, 16.96450905858789326 ) ) ;
#233 = CIRCLE ( 'NONE', #896, 0.1624999999999987566 ) ;
#234 = EDGE_LOOP ( 'NONE', ( #794, #332, #748, #1296 ) ) ;
#235 = CARTESIAN_POINT ( 'NONE',  ( 0.5975000000000000311, 1.619400000000005946, 13.99365867402467778 ) ) ;
#236 = CARTESIAN_POINT ( 'NONE',  ( 1.037500000000000089, 4.019400000000003637, 13.74365867402467778 ) ) ;
#237 = VERTEX_POINT ( 'NONE', #579 ) ;
#238 = DIRECTION ( 'NONE',  ( -1.000000000000000000, -0.000000000000000000, -0.000000000000000000 ) ) ;
#239 = ORIENTED_EDGE ( 'NONE', *, *, #451, .T. ) ;
#240 = ADVANCED_FACE ( 'NONE', ( #1154 ), #965, .T. ) ;
#241 = FILL_AREA_STYLE_COLOUR ( '', #231 ) ;
#242 = CARTESIAN_POINT ( 'NONE',  ( 1.037500000000000089, 4.019400000000004525, 16.14365867402467813 ) ) ;
#243 = ADVANCED_FACE ( 'NONE', ( #343, #585, #682, #1101, #609 ), #604, .F. ) ;
#244 = ORIENTED_EDGE ( 'NONE', *, *, #1289, .T. ) ;
#245 = CARTESIAN_POINT ( 'NONE',  ( 0.3975000000000000200, 4.350250384563221218, 16.72450905858789127 ) ) ;
#246 = DIRECTION ( 'NONE',  ( 0.000000000000000000, -1.000000000000000000, -0.000000000000000000 ) ) ;
#247 = VERTEX_POINT ( 'NONE', #710 ) ;
#248 = DIRECTION ( 'NONE',  ( 0.000000000000000000, 1.000000000000000000, 0.000000000000000000 ) ) ;
#249 = CARTESIAN_POINT ( 'NONE',  ( 0.3975000000000000200, 4.490250384563220898, 13.66280828946146109 ) ) ;
#250 = CIRCLE ( 'NONE', #540, 0.3500000000000003109 ) ;
#251 = EDGE_LOOP ( 'NONE', ( #1006, #96, #183, #1093 ) ) ;
#252 = CARTESIAN_POINT ( 'NONE',  ( 1.037500000000000089, 1.619400000000004836, 16.55615867402467600 ) ) ;
#253 = AXIS2_PLACEMENT_3D ( 'NONE', #1126, #734, #1029 ) ;
#254 = ORIENTED_EDGE ( 'NONE', *, *, #1310, .F. ) ;
#255 = AXIS2_PLACEMENT_3D ( 'NONE', #7, #964, #439 ) ;
#256 = AXIS2_PLACEMENT_3D ( 'NONE', #755, #657, #779 ) ;
#257 = DIRECTION ( 'NONE',  ( 0.000000000000000000, 0.000000000000000000, -1.000000000000000000 ) ) ;
#258 = AXIS2_PLACEMENT_3D ( 'NONE', #365, #1295, #20 ) ;
#259 = CARTESIAN_POINT ( 'NONE',  ( 0.3975000000000000200, 1.288549615436786810, 16.72450905858789127 ) ) ;
#260 = FACE_OUTER_BOUND ( 'NONE', #39, .T. ) ;
#261 = VERTEX_POINT ( 'NONE', #1201 ) ;
#262 = DIRECTION ( 'NONE',  ( -1.000000000000000000, 0.000000000000000000, -0.000000000000000000 ) ) ;
#263 = ORIENTED_EDGE ( 'NONE', *, *, #68, .F. ) ;
#264 = EDGE_CURVE ( 'NONE', #1119, #1230, #599, .T. ) ;
#265 =( NAMED_UNIT ( * ) SI_UNIT ( $, .STERADIAN. ) SOLID_ANGLE_UNIT ( ) );
#266 = CARTESIAN_POINT ( 'NONE',  ( 0.3975000000000000200, 1.288549615436787255, 13.42280828946146087 ) ) ;
#267 = DIRECTION ( 'NONE',  ( 1.000000000000000000, 0.000000000000000000, 0.000000000000000000 ) ) ;
#268 = ORIENTED_EDGE ( 'NONE', *, *, #616, .T. ) ;
#269 = FACE_BOUND ( 'NONE', #766, .T. ) ;
#270 = ORIENTED_EDGE ( 'NONE', *, *, #777, .T. ) ;
#271 =( NAMED_UNIT ( * ) PLANE_ANGLE_UNIT ( ) SI_UNIT ( $, .RADIAN. ) );
#272 = DIRECTION ( 'NONE',  ( 0.000000000000000000, 0.000000000000000000, 1.000000000000000000 ) ) ;
#273 = EDGE_LOOP ( 'NONE', ( #139, #1261 ) ) ;
#274 = LINE ( 'NONE', #814, #1044 ) ;
#275 = AXIS2_PLACEMENT_3D ( 'NONE', #768, #674, #1065 ) ;
#276 = ORIENTED_EDGE ( 'NONE', *, *, #329, .F. ) ;
#277 = AXIS2_PLACEMENT_3D ( 'NONE', #360, #957, #560 ) ;
#278 = CIRCLE ( 'NONE', #82, 0.1000000000000000056 ) ;
#279 = CARTESIAN_POINT ( 'NONE',  ( 0.4975000000000000533, 1.619400000000004836, 16.74365867402467956 ) ) ;
#280 = VECTOR ( 'NONE', #1034, 100.0000000000000000 ) ;
#281 = CARTESIAN_POINT ( 'NONE',  ( 0.4975000000000000533, 4.019400000000003637, 13.83115867402467636 ) ) ;
#282 = CARTESIAN_POINT ( 'NONE',  ( 1.037500000000000089, 4.019400000000003637, 14.24365867402467778 ) ) ;
#283 = EDGE_CURVE ( 'NONE', #1025, #754, #76, .T. ) ;
#284 = AXIS2_PLACEMENT_3D ( 'NONE', #1171, #156, #757 ) ;
#285 = CARTESIAN_POINT ( 'NONE',  ( 0.4975000000000000533, 4.590250384563220543, 13.66280828946146109 ) ) ;
#286 = PRODUCT_CONTEXT ( 'NONE', #1142, 'mechanical' ) ;
#287 = ORIENTED_EDGE ( 'NONE', *, *, #61, .T. ) ;
#288 = DIRECTION ( 'NONE',  ( -1.000000000000000000, -0.000000000000000000, -0.000000000000000000 ) ) ;
#289 = EDGE_CURVE ( 'NONE', #25, #533, #651, .T. ) ;
#290 = DIRECTION ( 'NONE',  ( 0.000000000000000000, 0.000000000000000000, -1.000000000000000000 ) ) ;
#291 = FACE_OUTER_BOUND ( 'NONE', #538, .T. ) ;
#292 = ORIENTED_EDGE ( 'NONE', *, *, #576, .T. ) ;
#293 = EDGE_CURVE ( 'NONE', #678, #52, #159, .T. ) ;
#294 = DIRECTION ( 'NONE',  ( 0.000000000000000000, 0.000000000000000000, -1.000000000000000000 ) ) ;
#295 = VERTEX_POINT ( 'NONE', #687 ) ;
#296 = FACE_OUTER_BOUND ( 'NONE', #251, .T. ) ;
#297 = CARTESIAN_POINT ( 'NONE',  ( 0.000000000000000000, 1.619400000000004836, 16.39365867402467813 ) ) ;
#298 = CARTESIAN_POINT ( 'NONE',  ( 0.5975000000000001421, 4.019400000000004525, 16.39365867402467813 ) ) ;
#299 = ORIENTED_EDGE ( 'NONE', *, *, #283, .F. ) ;
#300 = PRODUCT_DEFINITION_CONTEXT ( 'detailed design', #900, 'design' ) ;
#301 = AXIS2_PLACEMENT_3D ( 'NONE', #1181, #753, #1158 ) ;
#302 = CARTESIAN_POINT ( 'NONE',  ( 0.000000000000000000, 4.019400000000003637, 13.83115867402467636 ) ) ;
#303 = DIRECTION ( 'NONE',  ( 1.000000000000000000, -0.000000000000000000, 0.000000000000000000 ) ) ;
#304 = CARTESIAN_POINT ( 'NONE',  ( 1.037500000000000089, 4.019400000000003637, 13.99365867402467778 ) ) ;
#305 = AXIS2_PLACEMENT_3D ( 'NONE', #205, #1335, #931 ) ;
#306 = DIRECTION ( 'NONE',  ( 0.000000000000000000, 0.000000000000000000, 1.000000000000000000 ) ) ;
#307 = AXIS2_PLACEMENT_3D ( 'NONE', #1326, #799, #191 ) ;
#308 = CIRCLE ( 'NONE', #1066, 0.1624999999999987566 ) ;
#309 = ORIENTED_EDGE ( 'NONE', *, *, #10, .T. ) ;
#310 = DIRECTION ( 'NONE',  ( -1.000000000000000000, -0.000000000000000000, -0.000000000000000000 ) ) ;
#311 = ADVANCED_FACE ( 'NONE', ( #166 ), #1315, .F. ) ;
#312 = DIRECTION ( 'NONE',  ( -1.000000000000000000, 0.000000000000000000, 0.000000000000000000 ) ) ;
#313 = VERTEX_POINT ( 'NONE', #998 ) ;
#314 = EDGE_CURVE ( 'NONE', #738, #163, #704, .T. ) ;
#315 = DIRECTION ( 'NONE',  ( 0.000000000000000000, 0.000000000000000000, -1.000000000000000000 ) ) ;
#316 = CARTESIAN_POINT ( 'NONE',  ( 0.5975000000000001421, 4.019400000000004525, 16.64365867402467813 ) ) ;
#317 = ORIENTED_EDGE ( 'NONE', *, *, #705, .T. ) ;
#318 = AXIS2_PLACEMENT_3D ( 'NONE', #568, #762, #361 ) ;
#319 = VECTOR ( 'NONE', #470, 100.0000000000000000 ) ;
#320 = DIRECTION ( 'NONE',  ( 1.000000000000000000, -0.000000000000000000, 0.000000000000000000 ) ) ;
#321 = CIRCLE ( 'NONE', #344, 0.2400000000000013234 ) ;
#322 = ADVANCED_FACE ( 'NONE', ( #884 ), #1207, .F. ) ;
#323 = CIRCLE ( 'NONE', #1087, 0.1000000000000000888 ) ;
#324 = ORIENTED_EDGE ( 'NONE', *, *, #1240, .F. ) ;
#325 = AXIS2_PLACEMENT_3D ( 'NONE', #717, #601, #929 ) ;
#326 = CIRCLE ( 'NONE', #33, 0.2500000000000002220 ) ;
#327 = VERTEX_POINT ( 'NONE', #1009 ) ;
#328 = LINE ( 'NONE', #852, #1146 ) ;
#329 = EDGE_CURVE ( 'NONE', #84, #1130, #1291, .T. ) ;
#330 = DIRECTION ( 'NONE',  ( 0.000000000000000000, -8.673617379883988140E-15, -1.000000000000000000 ) ) ;
#331 = ADVANCED_FACE ( 'NONE', ( #65 ), #368, .F. ) ;
#332 = ORIENTED_EDGE ( 'NONE', *, *, #813, .T. ) ;
#333 = FACE_OUTER_BOUND ( 'NONE', #1172, .T. ) ;
#334 = SURFACE_STYLE_USAGE ( .BOTH. , #859 ) ;
#335 = LINE ( 'NONE', #242, #695 ) ;
#336 = VERTEX_POINT ( 'NONE', #389 ) ;
#337 = DIRECTION ( 'NONE',  ( -1.000000000000000000, 0.000000000000000000, -0.000000000000000000 ) ) ;
#338 = DIRECTION ( 'NONE',  ( 0.000000000000000000, 0.000000000000000000, -1.000000000000000000 ) ) ;
#339 = EDGE_LOOP ( 'NONE', ( #644, #379, #244, #1331 ) ) ;
#340 = PRESENTATION_STYLE_ASSIGNMENT (( #334 ) ) ;
#341 = VECTOR ( 'NONE', #824, 100.0000000000000000 ) ;
#342 = AXIS2_PLACEMENT_3D ( 'NONE', #1115, #57, #791 ) ;
#343 = FACE_OUTER_BOUND ( 'NONE', #92, .T. ) ;
#344 = AXIS2_PLACEMENT_3D ( 'NONE', #1248, #1035, #823 ) ;
#345 = AXIS2_PLACEMENT_3D ( 'NONE', #889, #248, #70 ) ;
#346 = VERTEX_POINT ( 'NONE', #993 ) ;
#347 = DIRECTION ( 'NONE',  ( 1.000000000000000000, -0.000000000000000000, 0.000000000000000000 ) ) ;
#348 = AXIS2_PLACEMENT_3D ( 'NONE', #1272, #262, #770 ) ;
#349 = ADVANCED_FACE ( 'NONE', ( #48 ), #805, .T. ) ;
#350 = DIRECTION ( 'NONE',  ( -0.000000000000000000, 1.000000000000000000, 0.000000000000000000 ) ) ;
#351 = ORIENTED_EDGE ( 'NONE', *, *, #712, .T. ) ;
#352 = AXIS2_PLACEMENT_3D ( 'NONE', #594, #1122, #711 ) ;
#353 = EDGE_CURVE ( 'NONE', #1176, #758, #497, .T. ) ;
#354 = DIRECTION ( 'NONE',  ( 1.000000000000000000, -0.000000000000000000, 0.000000000000000000 ) ) ;
#355 = CARTESIAN_POINT ( 'NONE',  ( 0.3975000000000000200, 1.148549615436789129, 1.687677286509242658E-16 ) ) ;
#356 = ORIENTED_EDGE ( 'NONE', *, *, #115, .F. ) ;
#357 = CARTESIAN_POINT ( 'NONE',  ( 0.4975000000000000533, 1.148549615436787130, 13.66280828946146109 ) ) ;
#358 = DIRECTION ( 'NONE',  ( 0.000000000000000000, 0.000000000000000000, 1.000000000000000000 ) ) ;
#359 = VERTEX_POINT ( 'NONE', #1323 ) ;
#360 = CARTESIAN_POINT ( 'NONE',  ( 0.4975000000000000533, 1.288549615436787255, 13.66280828946146109 ) ) ;
#361 = DIRECTION ( 'NONE',  ( 0.000000000000000000, 0.000000000000000000, 1.000000000000000000 ) ) ;
#362 = DIRECTION ( 'NONE',  ( 0.000000000000000000, 0.000000000000000000, 1.000000000000000000 ) ) ;
#363 = EDGE_LOOP ( 'NONE', ( #1218, #681, #588, #559 ) ) ;
#364 = CARTESIAN_POINT ( 'NONE',  ( 0.4975000000000000533, 4.019400000000003637, 13.99365867402467778 ) ) ;
#365 = CARTESIAN_POINT ( 'NONE',  ( 1.037500000000000089, 1.619400000000005946, 13.99365867402467778 ) ) ;
#366 = EDGE_LOOP ( 'NONE', ( #876, #1210, #1147, #1275 ) ) ;
#367 = CARTESIAN_POINT ( 'NONE',  ( 0.3975000000000000200, 1.148549615436787130, 13.66280828946146109 ) ) ;
#368 = CYLINDRICAL_SURFACE ( 'NONE', #760, 0.1624999999999987566 ) ;
#369 = ORIENTED_EDGE ( 'NONE', *, *, #396, .T. ) ;
#370 = EDGE_CURVE ( 'NONE', #1096, #237, #169, .T. ) ;
#371 = DIRECTION ( 'NONE',  ( 0.000000000000000000, 0.000000000000000000, 1.000000000000000000 ) ) ;
#372 = EDGE_LOOP ( 'NONE', ( #292, #763 ) ) ;
#373 = AXIS2_PLACEMENT_3D ( 'NONE', #503, #224, #1038 ) ;
#374 = DIRECTION ( 'NONE',  ( 0.000000000000000000, 1.000000000000000000, 0.000000000000000000 ) ) ;
#375 = CIRCLE ( 'NONE', #505, 0.1625000000000015321 ) ;
#376 = DIRECTION ( 'NONE',  ( -1.000000000000000000, -0.000000000000000000, -0.000000000000000000 ) ) ;
#377 = CARTESIAN_POINT ( 'NONE',  ( 0.4975000000000000533, 4.490250384563220898, 16.72450905858789127 ) ) ;
#378 = ADVANCED_FACE ( 'NONE', ( #476 ), #1062, .T. ) ;
#379 = ORIENTED_EDGE ( 'NONE', *, *, #1247, .T. ) ;
#380 = CARTESIAN_POINT ( 'NONE',  ( 0.000000000000000000, 1.288549615436787255, 13.66280828946146109 ) ) ;
#381 = DIRECTION ( 'NONE',  ( 1.000000000000000000, 0.000000000000000000, 0.000000000000000000 ) ) ;
#382 = CARTESIAN_POINT ( 'NONE',  ( 0.5975000000000001421, 4.019400000000003637, 13.74365867402467778 ) ) ;
#383 = ORIENTED_EDGE ( 'NONE', *, *, #813, .F. ) ;
#384 = DIRECTION ( 'NONE',  ( 0.000000000000000000, 0.000000000000000000, 1.000000000000000000 ) ) ;
#385 = ORIENTED_EDGE ( 'NONE', *, *, #735, .T. ) ;
#386 = DIRECTION ( 'NONE',  ( 0.000000000000000000, 0.000000000000000000, 1.000000000000000000 ) ) ;
#387 = CARTESIAN_POINT ( 'NONE',  ( 0.000000000000000000, 4.350250384563221218, 16.72450905858789127 ) ) ;
#388 = EDGE_CURVE ( 'NONE', #888, #74, #229, .T. ) ;
#389 = CARTESIAN_POINT ( 'NONE',  ( 0.000000000000000000, 4.019400000000004525, 16.23115867402467671 ) ) ;
#390 = ORIENTED_EDGE ( 'NONE', *, *, #680, .F. ) ;
#391 = CARTESIAN_POINT ( 'NONE',  ( 0.4975000000000000533, 0.000000000000000000, 0.000000000000000000 ) ) ;
#392 = EDGE_LOOP ( 'NONE', ( #656, #1339, #498, #488 ) ) ;
#393 = VECTOR ( 'NONE', #536, 100.0000000000000000 ) ;
#394 = EDGE_CURVE ( 'NONE', #1176, #150, #54, .T. ) ;
#395 = DIRECTION ( 'NONE',  ( 0.000000000000000000, 0.000000000000000000, -1.000000000000000000 ) ) ;
#396 = EDGE_CURVE ( 'NONE', #689, #1245, #1021, .T. ) ;
#397 = AXIS2_PLACEMENT_3D ( 'NONE', #179, #1031, #606 ) ;
#398 = DIRECTION ( 'NONE',  ( -1.000000000000000000, -0.000000000000000000, -0.000000000000000000 ) ) ;
#399 = FACE_OUTER_BOUND ( 'NONE', #1110, .T. ) ;
#400 = EDGE_LOOP ( 'NONE', ( #1349, #769 ) ) ;
#401 = CARTESIAN_POINT ( 'NONE',  ( 1.037500000000000089, 4.019400000000004525, 16.39365867402467813 ) ) ;
#402 = FACE_OUTER_BOUND ( 'NONE', #508, .T. ) ;
#403 = ORIENTED_EDGE ( 'NONE', *, *, #1310, .T. ) ;
#404 = DIRECTION ( 'NONE',  ( 0.000000000000000000, 0.000000000000000000, -1.000000000000000000 ) ) ;
#405 = EDGE_LOOP ( 'NONE', ( #449, #492, #516, #145 ) ) ;
#406 = CARTESIAN_POINT ( 'NONE',  ( 1.037500000000000089, 4.019400000000003637, 13.99365867402467778 ) ) ;
#407 = CARTESIAN_POINT ( 'NONE',  ( 0.5975000000000000311, 1.619400000000004836, 16.39365867402467813 ) ) ;
#408 = DIRECTION ( 'NONE',  ( -1.000000000000000000, 0.000000000000000000, 0.000000000000000000 ) ) ;
#409 = LINE ( 'NONE', #731, #341 ) ;
#410 = ADVANCED_FACE ( 'NONE', ( #832 ), #827, .F. ) ;
#411 = ORIENTED_EDGE ( 'NONE', *, *, #206, .T. ) ;
#412 = DIRECTION ( 'NONE',  ( 0.000000000000000000, 0.000000000000000000, -1.000000000000000000 ) ) ;
#413 = AXIS2_PLACEMENT_3D ( 'NONE', #304, #1020, #424 ) ;
#414 = CIRCLE ( 'NONE', #253, 0.1400000000000012346 ) ;
#415 = TOROIDAL_SURFACE ( 'NONE', #151, 0.1399999999999999856, 0.1000000000000000056 ) ;
#416 = ORIENTED_EDGE ( 'NONE', *, *, #946, .F. ) ;
#417 = VECTOR ( 'NONE', #918, 100.0000000000000000 ) ;
#418 = ORIENTED_EDGE ( 'NONE', *, *, #148, .F. ) ;
#419 = EDGE_CURVE ( 'NONE', #1016, #84, #414, .T. ) ;
#420 = PLANE ( 'NONE',  #596 ) ;
#421 = DIRECTION ( 'NONE',  ( 0.000000000000000000, -8.673617379883988140E-15, -1.000000000000000000 ) ) ;
#422 = EDGE_LOOP ( 'NONE', ( #981, #1070, #911, #1305 ) ) ;
#423 = ADVANCED_FACE ( 'NONE', ( #725 ), #109, .T. ) ;
#424 = DIRECTION ( 'NONE',  ( 0.000000000000000000, 0.000000000000000000, -1.000000000000000000 ) ) ;
#425 = LINE ( 'NONE', #218, #825 ) ;
#426 = ORIENTED_EDGE ( 'NONE', *, *, #777, .F. ) ;
#427 = ORIENTED_EDGE ( 'NONE', *, *, #185, .F. ) ;
#428 = EDGE_CURVE ( 'NONE', #610, #808, #321, .T. ) ;
#429 = AXIS2_PLACEMENT_3D ( 'NONE', #249, #1088, #454 ) ;
#430 = LINE ( 'NONE', #878, #393 ) ;
#431 = AXIS2_PLACEMENT_3D ( 'NONE', #1259, #354, #116 ) ;
#432 = PRODUCT_DEFINITION ( 'UNKNOWN', '', #550, #300 ) ;
#433 = FACE_OUTER_BOUND ( 'NONE', #936, .T. ) ;
#434 = AXIS2_PLACEMENT_3D ( 'NONE', #450, #895, #912 ) ;
#435 = ORIENTED_EDGE ( 'NONE', *, *, #528, .T. ) ;
#436 = AXIS2_PLACEMENT_3D ( 'NONE', #1316, #812, #160 ) ;
#437 = CIRCLE ( 'NONE', #726, 0.1000000000000000888 ) ;
#438 = CARTESIAN_POINT ( 'NONE',  ( 1.037500000000000089, 4.019400000000003637, 13.99365867402467778 ) ) ;
#439 = DIRECTION ( 'NONE',  ( -1.000000000000000000, 0.000000000000000000, 0.000000000000000000 ) ) ;
#440 = DIRECTION ( 'NONE',  ( -0.000000000000000000, -1.000000000000000000, -0.000000000000000000 ) ) ;
#441 = CARTESIAN_POINT ( 'NONE',  ( 0.4975000000000000533, 4.590250384563220543, 16.72450905858789127 ) ) ;
#442 = VERTEX_POINT ( 'NONE', #1235 ) ;
#443 = DIRECTION ( 'NONE',  ( 0.000000000000000000, -0.000000000000000000, -1.000000000000000000 ) ) ;
#444 = DIRECTION ( 'NONE',  ( 0.000000000000000000, 0.000000000000000000, -1.000000000000000000 ) ) ;
#445 = ORIENTED_EDGE ( 'NONE', *, *, #759, .T. ) ;
#446 = CARTESIAN_POINT ( 'NONE',  ( 0.000000000000000000, 1.619400000000005946, 13.99365867402467778 ) ) ;
#447 = DIRECTION ( 'NONE',  ( -1.000000000000000000, 0.000000000000000000, 0.000000000000000000 ) ) ;
#448 = EDGE_CURVE ( 'NONE', #14, #743, #1353, .T. ) ;
#449 = ORIENTED_EDGE ( 'NONE', *, *, #819, .F. ) ;
#450 = CARTESIAN_POINT ( 'NONE',  ( 1.037500000000000089, 1.619400000000005946, 13.99365867402467778 ) ) ;
#451 = EDGE_CURVE ( 'NONE', #69, #1245, #741, .T. ) ;
#452 = ORIENTED_EDGE ( 'NONE', *, *, #670, .T. ) ;
#453 = DIRECTION ( 'NONE',  ( -0.000000000000000000, 1.000000000000000000, -0.000000000000000000 ) ) ;
#454 = DIRECTION ( 'NONE',  ( -1.000000000000000000, 0.000000000000000000, 0.000000000000000000 ) ) ;
#455 = AXIS2_PLACEMENT_3D ( 'NONE', #297, #625, #628 ) ;
#456 = VECTOR ( 'NONE', #781, 100.0000000000000000 ) ;
#457 = ORIENTED_EDGE ( 'NONE', *, *, #102, .F. ) ;
#458 = DIRECTION ( 'NONE',  ( 0.000000000000000000, 0.000000000000000000, -1.000000000000000000 ) ) ;
#459 = CIRCLE ( 'NONE', #348, 0.2400000000000013234 ) ;
#460 = CARTESIAN_POINT ( 'NONE',  ( 0.000000000000000000, 1.619400000000004836, 16.39365867402467813 ) ) ;
#461 = CIRCLE ( 'NONE', #742, 0.2500000000000002220 ) ;
#462 = ORIENTED_EDGE ( 'NONE', *, *, #90, .T. ) ;
#463 = DIRECTION ( 'NONE',  ( 0.000000000000000000, 0.000000000000000000, -1.000000000000000000 ) ) ;
#464 = DIRECTION ( 'NONE',  ( 1.000000000000000000, -0.000000000000000000, 0.000000000000000000 ) ) ;
#465 = ORIENTED_EDGE ( 'NONE', *, *, #854, .F. ) ;
#466 = CARTESIAN_POINT ( 'NONE',  ( 0.4975000000000000533, 1.048549615436787263, 13.42280828946146087 ) ) ;
#467 = EDGE_LOOP ( 'NONE', ( #369, #403 ) ) ;
#468 = CARTESIAN_POINT ( 'NONE',  ( 1.037500000000000089, 1.619400000000004836, 16.39365867402467813 ) ) ;
#469 = EDGE_CURVE ( 'NONE', #610, #944, #837, .T. ) ;
#470 = DIRECTION ( 'NONE',  ( -0.000000000000000000, -1.000000000000000000, 0.000000000000000000 ) ) ;
#471 = ORIENTED_EDGE ( 'NONE', *, *, #640, .F. ) ;
#472 = DIRECTION ( 'NONE',  ( -1.000000000000000000, -0.000000000000000000, -0.000000000000000000 ) ) ;
#473 = DIRECTION ( 'NONE',  ( -1.000000000000000000, 0.000000000000000000, -0.000000000000000000 ) ) ;
#474 = ORIENTED_EDGE ( 'NONE', *, *, #1320, .T. ) ;
#475 = CARTESIAN_POINT ( 'NONE',  ( 0.4975000000000000533, 4.350250384563221218, 16.72450905858789127 ) ) ;
#476 = FACE_OUTER_BOUND ( 'NONE', #626, .T. ) ;
#477 = ADVANCED_FACE ( 'NONE', ( #195 ), #697, .T. ) ;
#478 = VECTOR ( 'NONE', #23, 100.0000000000000000 ) ;
#479 = ORIENTED_EDGE ( 'NONE', *, *, #1074, .T. ) ;
#480 = AXIS2_PLACEMENT_3D ( 'NONE', #509, #714, #194 ) ;
#481 = DIRECTION ( 'NONE',  ( 0.000000000000000000, 1.000000000000000000, 0.000000000000000000 ) ) ;
#482 = AXIS2_PLACEMENT_3D ( 'NONE', #620, #1111, #690 ) ;
#483 = AXIS2_PLACEMENT_3D ( 'NONE', #857, #350, #875 ) ;
#484 = CARTESIAN_POINT ( 'NONE',  ( 0.4975000000000000533, 1.619400000000005946, 13.99365867402467778 ) ) ;
#485 = FACE_OUTER_BOUND ( 'NONE', #570, .T. ) ;
#486 = ORIENTED_EDGE ( 'NONE', *, *, #676, .F. ) ;
#487 = CARTESIAN_POINT ( 'NONE',  ( 0.4975000000000000533, 1.048549615436786819, 16.96450905858789326 ) ) ;
#488 = ORIENTED_EDGE ( 'NONE', *, *, #428, .F. ) ;
#489 = CARTESIAN_POINT ( 'NONE',  ( 1.037500000000000089, 4.019400000000003637, 13.99365867402467778 ) ) ;
#490 = CARTESIAN_POINT ( 'NONE',  ( 0.4975000000000000533, 4.490250384563220898, 16.72450905858789127 ) ) ;
#491 = LINE ( 'NONE', #591, #417 ) ;
#492 = ORIENTED_EDGE ( 'NONE', *, *, #924, .T. ) ;
#493 = ADVANCED_FACE ( 'NONE', ( #402, #510 ), #636, .T. ) ;
#494 = VERTEX_POINT ( 'NONE', #515 ) ;
#495 = ADVANCED_FACE ( 'NONE', ( #1045 ), #943, .F. ) ;
#496 = DIRECTION ( 'NONE',  ( 0.000000000000000000, 0.000000000000000000, -1.000000000000000000 ) ) ;
#497 = LINE ( 'NONE', #783, #843 ) ;
#498 = ORIENTED_EDGE ( 'NONE', *, *, #1183, .F. ) ;
#499 = VECTOR ( 'NONE', #42, 100.0000000000000000 ) ;
#500 = ORIENTED_EDGE ( 'NONE', *, *, #1247, .F. ) ;
#501 = AXIS2_PLACEMENT_3D ( 'NONE', #774, #1180, #552 ) ;
#502 = CIRCLE ( 'NONE', #172, 0.1624999999999987566 ) ;
#503 = CARTESIAN_POINT ( 'NONE',  ( 1.037500000000000089, 1.619400000000005946, 13.99365867402467778 ) ) ;
#504 = FACE_OUTER_BOUND ( 'NONE', #780, .T. ) ;
#505 = AXIS2_PLACEMENT_3D ( 'NONE', #438, #201, #622 ) ;
#506 = FACE_OUTER_BOUND ( 'NONE', #63, .T. ) ;
#507 = CARTESIAN_POINT ( 'NONE',  ( 0.000000000000000000, 0.000000000000000000, 0.000000000000000000 ) ) ;
#508 = EDGE_LOOP ( 'NONE', ( #619, #1148 ) ) ;
#509 = CARTESIAN_POINT ( 'NONE',  ( 1.037500000000000089, 1.619400000000005946, 13.99365867402467778 ) ) ;
#510 = FACE_BOUND ( 'NONE', #983, .T. ) ;
#511 = EDGE_CURVE ( 'NONE', #1319, #237, #100, .T. ) ;
#512 = ORIENTED_EDGE ( 'NONE', *, *, #773, .F. ) ;
#513 = ORIENTED_EDGE ( 'NONE', *, *, #220, .F. ) ;
#514 = FACE_OUTER_BOUND ( 'NONE', #1224, .T. ) ;
#515 = CARTESIAN_POINT ( 'NONE',  ( 0.4975000000000000533, 4.019400000000004525, 16.04365867402467671 ) ) ;
#516 = ORIENTED_EDGE ( 'NONE', *, *, #283, .T. ) ;
#517 = PRODUCT_RELATED_PRODUCT_CATEGORY ( 'part', '', ( #1055 ) ) ;
#518 = AXIS2_PLACEMENT_3D ( 'NONE', #1046, #1249, #306 ) ;
#519 = ORIENTED_EDGE ( 'NONE', *, *, #469, .F. ) ;
#520 = AXIS2_PLACEMENT_3D ( 'NONE', #1229, #1167, #1056 ) ;
#521 = STYLED_ITEM ( 'NONE', ( #340 ), #667 ) ;
#522 = DIRECTION ( 'NONE',  ( -1.000000000000000000, -0.000000000000000000, -0.000000000000000000 ) ) ;
#523 = CIRCLE ( 'NONE', #5, 0.1000000000000000888 ) ;
#524 = VECTOR ( 'NONE', #1128, 100.0000000000000000 ) ;
#525 = CARTESIAN_POINT ( 'NONE',  ( 1.037500000000000089, 1.619400000000004836, 16.23115867402468027 ) ) ;
#526 = CIRCLE ( 'NONE', #215, 0.1624999999999987566 ) ;
#527 = ORIENTED_EDGE ( 'NONE', *, *, #1048, .F. ) ;
#528 = EDGE_CURVE ( 'NONE', #838, #678, #1273, .T. ) ;
#529 = VERTEX_POINT ( 'NONE', #1143 ) ;
#530 = DIRECTION ( 'NONE',  ( 0.000000000000000000, 1.469398677973023743E-16, -1.000000000000000000 ) ) ;
#531 = DIRECTION ( 'NONE',  ( 0.000000000000000000, 0.000000000000000000, -1.000000000000000000 ) ) ;
#532 = ADVANCED_FACE ( 'NONE', ( #504 ), #818, .T. ) ;
#533 = VERTEX_POINT ( 'NONE', #653 ) ;
#534 = EDGE_LOOP ( 'NONE', ( #189, #1098, #633, #1022 ) ) ;
#535 = ADVANCED_FACE ( 'NONE', ( #1072 ), #541, .T. ) ;
#536 = DIRECTION ( 'NONE',  ( -1.000000000000000000, -0.000000000000000000, -0.000000000000000000 ) ) ;
#537 = LINE ( 'NONE', #1255, #1159 ) ;
#538 = EDGE_LOOP ( 'NONE', ( #1337, #913, #580, #1123 ) ) ;
#539 = DIRECTION ( 'NONE',  ( 0.000000000000000000, 0.000000000000000000, -1.000000000000000000 ) ) ;
#540 = AXIS2_PLACEMENT_3D ( 'NONE', #736, #948, #1354 ) ;
#541 = CYLINDRICAL_SURFACE ( 'NONE', #675, 0.2500000000000002220 ) ;
#542 = AXIS2_PLACEMENT_3D ( 'NONE', #207, #839, #1135 ) ;
#543 = AXIS2_PLACEMENT_3D ( 'NONE', #380, #152, #496 ) ;
#544 = DIRECTION ( 'NONE',  ( 0.000000000000000000, 0.000000000000000000, -1.000000000000000000 ) ) ;
#545 = VECTOR ( 'NONE', #1293, 100.0000000000000000 ) ;
#546 = ORIENTED_EDGE ( 'NONE', *, *, #388, .F. ) ;
#547 = DIRECTION ( 'NONE',  ( 0.000000000000000000, 0.000000000000000000, -1.000000000000000000 ) ) ;
#548 = VECTOR ( 'NONE', #1182, 100.0000000000000000 ) ;
#549 = AXIS2_PLACEMENT_3D ( 'NONE', #1274, #28, #650 ) ;
#550 = PRODUCT_DEFINITION_FORMATION_WITH_SPECIFIED_SOURCE ( 'ANY', '', #1055, .NOT_KNOWN. ) ;
#551 = FACE_OUTER_BOUND ( 'NONE', #904, .T. ) ;
#552 = DIRECTION ( 'NONE',  ( 0.000000000000000000, 0.000000000000000000, -1.000000000000000000 ) ) ;
#553 = CARTESIAN_POINT ( 'NONE',  ( 1.037500000000000089, 4.019400000000004525, 16.39365867402467813 ) ) ;
#554 = CARTESIAN_POINT ( 'NONE',  ( 1.037500000000000089, 1.619400000000005946, 14.15615867402467742 ) ) ;
#555 = ADVANCED_FACE ( 'NONE', ( #567 ), #746, .T. ) ;
#556 = ORIENTED_EDGE ( 'NONE', *, *, #750, .F. ) ;
#557 = DIRECTION ( 'NONE',  ( 1.000000000000000000, 0.000000000000000000, -0.000000000000000000 ) ) ;
#558 = CARTESIAN_POINT ( 'NONE',  ( 1.037500000000000089, 1.619400000000005946, 13.99365867402467778 ) ) ;
#559 = ORIENTED_EDGE ( 'NONE', *, *, #1284, .F. ) ;
#560 = DIRECTION ( 'NONE',  ( 0.000000000000000000, 0.000000000000000000, -1.000000000000000000 ) ) ;
#561 = CARTESIAN_POINT ( 'NONE',  ( 0.4975000000000000533, 1.288549615436786810, 16.86450905858789184 ) ) ;
#562 = ADVANCED_FACE ( 'NONE', ( #752 ), #937, .F. ) ;
#563 = ORIENTED_EDGE ( 'NONE', *, *, #396, .F. ) ;
#564 = CARTESIAN_POINT ( 'NONE',  ( 0.5975000000000000311, 1.619400000000005946, 14.34365867402467920 ) ) ;
#565 = DIRECTION ( 'NONE',  ( -1.000000000000000000, 0.000000000000000000, -0.000000000000000000 ) ) ;
#566 = EDGE_LOOP ( 'NONE', ( #1164, #210, #132, #821 ) ) ;
#567 = FACE_OUTER_BOUND ( 'NONE', #666, .T. ) ;
#568 = CARTESIAN_POINT ( 'NONE',  ( 1.037500000000000089, 4.019400000000003637, 13.99365867402467778 ) ) ;
#569 = CIRCLE ( 'NONE', #1322, 0.1625000000000015321 ) ;
#570 = EDGE_LOOP ( 'NONE', ( #383, #186, #1136, #287 ) ) ;
#571 = DIRECTION ( 'NONE',  ( 0.000000000000000000, -1.000000000000000000, -0.000000000000000000 ) ) ;
#572 = TOROIDAL_SURFACE ( 'NONE', #1325, 0.3499999999999999223, 0.1000000000000000056 ) ;
#573 =( NAMED_UNIT ( * ) SI_UNIT ( $, .STERADIAN. ) SOLID_ANGLE_UNIT ( ) );
#574 = AXIS2_PLACEMENT_3D ( 'NONE', #391, #807, #294 ) ;
#575 = ORIENTED_EDGE ( 'NONE', *, *, #428, .T. ) ;
#576 = EDGE_CURVE ( 'NONE', #743, #336, #867, .T. ) ;
#577 = TOROIDAL_SURFACE ( 'NONE', #284, 0.3500000000000002554, 0.1000000000000000056 ) ;
#578 = CARTESIAN_POINT ( 'NONE',  ( 0.5975000000000001421, 4.019400000000003637, 14.24365867402467778 ) ) ;
#579 = CARTESIAN_POINT ( 'NONE',  ( 0.5975000000000001421, 1.619400000000004836, 16.14365867402467813 ) ) ;
#580 = ORIENTED_EDGE ( 'NONE', *, *, #637, .T. ) ;
#581 = CYLINDRICAL_SURFACE ( 'NONE', #105, 0.1624999999999987566 ) ;
#582 = EDGE_CURVE ( 'NONE', #976, #1155, #977, .T. ) ;
#583 = ORIENTED_EDGE ( 'NONE', *, *, #106, .F. ) ;
#584 = EDGE_CURVE ( 'NONE', #632, #161, #112, .T. ) ;
#585 = FACE_BOUND ( 'NONE', #467, .T. ) ;
#586 = FACE_OUTER_BOUND ( 'NONE', #987, .T. ) ;
#587 = CARTESIAN_POINT ( 'NONE',  ( 1.037500000000000089, 4.019400000000004525, 16.39365867402467813 ) ) ;
#588 = ORIENTED_EDGE ( 'NONE', *, *, #1138, .F. ) ;
#589 = LINE ( 'NONE', #1113, #845 ) ;
#590 = CARTESIAN_POINT ( 'NONE',  ( 0.5975000000000001421, 1.619400000000005946, 13.99365867402467778 ) ) ;
#591 = CARTESIAN_POINT ( 'NONE',  ( 0.4975000000000000533, 1.288549615436786810, 16.96450905858789326 ) ) ;
#592 = AXIS2_PLACEMENT_3D ( 'NONE', #212, #202, #315 ) ;
#593 = ORIENTED_EDGE ( 'NONE', *, *, #370, .T. ) ;
#594 = CARTESIAN_POINT ( 'NONE',  ( 0.4975000000000000533, 1.619400000000005946, 13.99365867402467778 ) ) ;
#595 = ORIENTED_EDGE ( 'NONE', *, *, #451, .F. ) ;
#596 = AXIS2_PLACEMENT_3D ( 'NONE', #466, #371, #557 ) ;
#597 = LINE ( 'NONE', #686, #1024 ) ;
#598 = EDGE_CURVE ( 'NONE', #1179, #758, #27, .T. ) ;
#599 = LINE ( 'NONE', #281, #499 ) ;
#600 = ORIENTED_EDGE ( 'NONE', *, *, #1350, .F. ) ;
#601 = DIRECTION ( 'NONE',  ( 1.000000000000000000, -0.000000000000000000, 0.000000000000000000 ) ) ;
#602 = ORIENTED_EDGE ( 'NONE', *, *, #1116, .T. ) ;
#603 = DIRECTION ( 'NONE',  ( 0.000000000000000000, 0.000000000000000000, -1.000000000000000000 ) ) ;
#604 = PLANE ( 'NONE',  #51 ) ;
#605 = ORIENTED_EDGE ( 'NONE', *, *, #637, .F. ) ;
#606 = DIRECTION ( 'NONE',  ( 0.000000000000000000, 0.000000000000000000, -1.000000000000000000 ) ) ;
#607 = ORIENTED_EDGE ( 'NONE', *, *, #206, .F. ) ;
#608 = FACE_OUTER_BOUND ( 'NONE', #129, .T. ) ;
#609 = FACE_BOUND ( 'NONE', #1208, .T. ) ;
#610 = VERTEX_POINT ( 'NONE', #1268 ) ;
#611 = FACE_BOUND ( 'NONE', #1030, .T. ) ;
#612 = AXIS2_PLACEMENT_3D ( 'NONE', #590, #1300, #1106 ) ;
#613 = ORIENTED_EDGE ( 'NONE', *, *, #1001, .T. ) ;
#614 = CIRCLE ( 'NONE', #1256, 0.1624999999999987566 ) ;
#615 = CARTESIAN_POINT ( 'NONE',  ( 0.3975000000000000200, 4.590250384563220543, 13.66280828946146109 ) ) ;
#616 = EDGE_CURVE ( 'NONE', #313, #336, #430, .T. ) ;
#617 = AXIS2_PLACEMENT_3D ( 'NONE', #1308, #984, #386 ) ;
#618 = DIRECTION ( 'NONE',  ( 0.000000000000000000, 0.000000000000000000, -1.000000000000000000 ) ) ;
#619 = ORIENTED_EDGE ( 'NONE', *, *, #1240, .T. ) ;
#620 = CARTESIAN_POINT ( 'NONE',  ( 0.4975000000000000533, 1.619400000000004836, 16.39365867402467813 ) ) ;
#621 = EDGE_LOOP ( 'NONE', ( #309, #204, #1286, #270, #411, #1102, #702, #119 ) ) ;
#622 = DIRECTION ( 'NONE',  ( 0.000000000000000000, 0.000000000000000000, -1.000000000000000000 ) ) ;
#623 = CARTESIAN_POINT ( 'NONE',  ( 1.037500000000000089, 1.619400000000005946, 13.74365867402467778 ) ) ;
#624 = EDGE_CURVE ( 'NONE', #1152, #798, #328, .T. ) ;
#625 = DIRECTION ( 'NONE',  ( 1.000000000000000000, 0.000000000000000000, 0.000000000000000000 ) ) ;
#626 = EDGE_LOOP ( 'NONE', ( #87, #416, #457, #465 ) ) ;
#627 = CARTESIAN_POINT ( 'NONE',  ( 0.4975000000000000533, 4.590250384563220543, 16.96450905858789326 ) ) ;
#628 = DIRECTION ( 'NONE',  ( 0.000000000000000000, 0.000000000000000000, -1.000000000000000000 ) ) ;
#629 = CARTESIAN_POINT ( 'NONE',  ( 0.5975000000000001421, 4.019400000000003637, 13.99365867402467778 ) ) ;
#630 = EDGE_CURVE ( 'NONE', #313, #14, #569, .T. ) ;
#631 = VECTOR ( 'NONE', #654, 100.0000000000000000 ) ;
#632 = VERTEX_POINT ( 'NONE', #126 ) ;
#633 = ORIENTED_EDGE ( 'NONE', *, *, #795, .F. ) ;
#634 = VECTOR ( 'NONE', #453, 100.0000000000000000 ) ;
#635 = CIRCLE ( 'NONE', #956, 0.1625000000000015321 ) ;
#636 = PLANE ( 'NONE',  #592 ) ;
#637 = EDGE_CURVE ( 'NONE', #237, #1096, #147, .T. ) ;
#638 = FACE_OUTER_BOUND ( 'NONE', #216, .T. ) ;
#639 = TOROIDAL_SURFACE ( 'NONE', #549, 0.3500000000000002554, 0.1000000000000000056 ) ;
#640 = EDGE_CURVE ( 'NONE', #798, #163, #614, .T. ) ;
#641 = ORIENTED_EDGE ( 'NONE', *, *, #1214, .T. ) ;
#642 = DIRECTION ( 'NONE',  ( 1.000000000000000000, 0.000000000000000000, -0.000000000000000000 ) ) ;
#643 = DIRECTION ( 'NONE',  ( 1.000000000000000000, 0.000000000000000000, 0.000000000000000000 ) ) ;
#644 = ORIENTED_EDGE ( 'NONE', *, *, #264, .F. ) ;
#645 = ORIENTED_EDGE ( 'NONE', *, *, #314, .F. ) ;
#646 = DIRECTION ( 'NONE',  ( 1.000000000000000000, 0.000000000000000000, 0.000000000000000000 ) ) ;
#647 = DIRECTION ( 'NONE',  ( -1.000000000000000000, -0.000000000000000000, -0.000000000000000000 ) ) ;
#648 = ORIENTED_EDGE ( 'NONE', *, *, #136, .T. ) ;
#649 = DIRECTION ( 'NONE',  ( 0.000000000000000000, -1.000000000000000000, 0.000000000000000000 ) ) ;
#650 = DIRECTION ( 'NONE',  ( 0.000000000000000000, 0.000000000000000000, -1.000000000000000000 ) ) ;
#651 = CIRCLE ( 'NONE', #99, 0.2500000000000002220 ) ;
#652 = EDGE_CURVE ( 'NONE', #346, #1130, #844, .T. ) ;
#653 = CARTESIAN_POINT ( 'NONE',  ( 1.037500000000000089, 4.019400000000004525, 16.14365867402467813 ) ) ;
#654 = DIRECTION ( 'NONE',  ( 0.000000000000000000, -1.000000000000000000, 0.000000000000000000 ) ) ;
#655 = CIRCLE ( 'NONE', #1131, 0.1000000000000000888 ) ;
#656 = ORIENTED_EDGE ( 'NONE', *, *, #40, .F. ) ;
#657 = DIRECTION ( 'NONE',  ( 0.000000000000000000, -1.000000000000000000, -0.000000000000000000 ) ) ;
#658 = DIRECTION ( 'NONE',  ( 0.000000000000000000, 0.000000000000000000, -1.000000000000000000 ) ) ;
#659 = ORIENTED_EDGE ( 'NONE', *, *, #630, .T. ) ;
#660 = DIRECTION ( 'NONE',  ( 0.000000000000000000, 0.000000000000000000, -1.000000000000000000 ) ) ;
#661 = ADVANCED_FACE ( 'NONE', ( #15 ), #1107, .F. ) ;
#662 = CYLINDRICAL_SURFACE ( 'NONE', #1341, 0.1000000000000000888 ) ;
#663 = ORIENTED_EDGE ( 'NONE', *, *, #616, .F. ) ;
#664 = CARTESIAN_POINT ( 'NONE',  ( 0.5975000000000000311, 4.019400000000003637, 13.64365867402467813 ) ) ;
#665 = CYLINDRICAL_SURFACE ( 'NONE', #1007, 0.2400000000000013234 ) ;
#666 = EDGE_LOOP ( 'NONE', ( #1089, #157, #4, #43 ) ) ;
#667 = MANIFOLD_SOLID_BREP ( 'Fillet2', #756 ) ;
#668 = DIRECTION ( 'NONE',  ( -1.000000000000000000, 0.000000000000000000, -0.000000000000000000 ) ) ;
#669 = EDGE_LOOP ( 'NONE', ( #1345, #898, #167, #602 ) ) ;
#670 = EDGE_CURVE ( 'NONE', #1169, #442, #158, .T. ) ;
#671 = DIRECTION ( 'NONE',  ( 0.000000000000000000, 0.000000000000000000, -1.000000000000000000 ) ) ;
#672 = ORIENTED_EDGE ( 'NONE', *, *, #448, .T. ) ;
#673 = AXIS2_PLACEMENT_3D ( 'NONE', #553, #647, #16 ) ;
#674 = DIRECTION ( 'NONE',  ( 0.000000000000000000, 1.000000000000000000, -1.224646799147353207E-16 ) ) ;
#675 = AXIS2_PLACEMENT_3D ( 'NONE', #969, #761, #1050 ) ;
#676 = EDGE_CURVE ( 'NONE', #163, #798, #502, .T. ) ;
#677 = CIRCLE ( 'NONE', #1344, 0.1000000000000000888 ) ;
#678 = VERTEX_POINT ( 'NONE', #1012 ) ;
#679 = CARTESIAN_POINT ( 'NONE',  ( 0.4975000000000000533, 1.619400000000005946, 13.99365867402467778 ) ) ;
#680 = EDGE_CURVE ( 'NONE', #161, #1203, #677, .T. ) ;
#681 = ORIENTED_EDGE ( 'NONE', *, *, #992, .T. ) ;
#682 = FACE_BOUND ( 'NONE', #372, .T. ) ;
#683 = EDGE_LOOP ( 'NONE', ( #1327, #1140 ) ) ;
#684 = DIRECTION ( 'NONE',  ( 0.000000000000000000, 0.000000000000000000, -1.000000000000000000 ) ) ;
#685 = ORIENTED_EDGE ( 'NONE', *, *, #115, .T. ) ;
#686 = CARTESIAN_POINT ( 'NONE',  ( 0.4975000000000000533, 1.288549615436787255, 13.42280828946146087 ) ) ;
#687 = CARTESIAN_POINT ( 'NONE',  ( 0.4975000000000000533, 4.019400000000004525, 16.74365867402467956 ) ) ;
#688 = DIRECTION ( 'NONE',  ( 0.000000000000000000, 0.000000000000000000, -1.000000000000000000 ) ) ;
#689 = VERTEX_POINT ( 'NONE', #1290 ) ;
#690 = DIRECTION ( 'NONE',  ( 0.000000000000000000, 0.000000000000000000, -1.000000000000000000 ) ) ;
#691 = VERTEX_POINT ( 'NONE', #703 ) ;
#692 = EDGE_CURVE ( 'NONE', #632, #1283, #940, .T. ) ;
#693 = CARTESIAN_POINT ( 'NONE',  ( 1.037500000000000089, 4.019400000000004525, 16.64365867402467813 ) ) ;
#694 = EDGE_CURVE ( 'NONE', #529, #1227, #103, .T. ) ;
#695 = VECTOR ( 'NONE', #222, 100.0000000000000000 ) ;
#696 = DIRECTION ( 'NONE',  ( -0.000000000000000000, 0.000000000000000000, 1.000000000000000000 ) ) ;
#697 = TOROIDAL_SURFACE ( 'NONE', #542, 0.1399999999999999856, 0.1000000000000000056 ) ;
#698 = ORIENTED_EDGE ( 'NONE', *, *, #1150, .F. ) ;
#699 = DIRECTION ( 'NONE',  ( 0.000000000000000000, 1.469398677973023743E-16, -1.000000000000000000 ) ) ;
#700 = MECHANICAL_DESIGN_GEOMETRIC_PRESENTATION_REPRESENTATION (  '', ( #521 ), #1324 ) ;
#701 = SHAPE_DEFINITION_REPRESENTATION ( #851, #1064 ) ;
#702 = ORIENTED_EDGE ( 'NONE', *, *, #1099, .T. ) ;
#703 = CARTESIAN_POINT ( 'NONE',  ( 0.4975000000000000533, 1.619400000000005946, 14.34365867402467920 ) ) ;
#704 = LINE ( 'NONE', #175, #53 ) ;
#705 = EDGE_CURVE ( 'NONE', #180, #785, #784, .T. ) ;
#706 = ORIENTED_EDGE ( 'NONE', *, *, #670, .F. ) ;
#707 = DIRECTION ( 'NONE',  ( 0.000000000000000000, 0.000000000000000000, 1.000000000000000000 ) ) ;
#708 = ORIENTED_EDGE ( 'NONE', *, *, #1114, .F. ) ;
#709 = DIRECTION ( 'NONE',  ( 0.000000000000000000, 1.000000000000000000, -1.224646799147353207E-16 ) ) ;
#710 = CARTESIAN_POINT ( 'NONE',  ( 0.000000000000000000, 4.590250384563220543, 13.66280828946146109 ) ) ;
#711 = DIRECTION ( 'NONE',  ( 0.000000000000000000, 0.000000000000000000, -1.000000000000000000 ) ) ;
#712 = EDGE_CURVE ( 'NONE', #976, #261, #278, .T. ) ;
#713 = EDGE_LOOP ( 'NONE', ( #356, #1263 ) ) ;
#714 = DIRECTION ( 'NONE',  ( 1.000000000000000000, 0.000000000000000000, 0.000000000000000000 ) ) ;
#715 = CARTESIAN_POINT ( 'NONE',  ( 0.5975000000000000311, 1.619400000000005946, 13.99365867402467778 ) ) ;
#716 = DIRECTION ( 'NONE',  ( 0.000000000000000000, 1.000000000000000000, -1.224646799147353207E-16 ) ) ;
#717 = CARTESIAN_POINT ( 'NONE',  ( 0.3975000000000000200, 4.350250384563221218, 13.66280828946146109 ) ) ;
#718 = ORIENTED_EDGE ( 'NONE', *, *, #1150, .T. ) ;
#719 = AXIS2_PLACEMENT_3D ( 'NONE', #221, #646, #463 ) ;
#720 = EDGE_CURVE ( 'NONE', #161, #529, #589, .T. ) ;
#721 = CIRCLE ( 'NONE', #1216, 0.1625000000000015321 ) ;
#722 = LINE ( 'NONE', #623, #280 ) ;
#723 = CIRCLE ( 'NONE', #305, 0.1000000000000000888 ) ;
#724 = TOROIDAL_SURFACE ( 'NONE', #325, 0.1399999999999999856, 0.1000000000000000056 ) ;
#725 = FACE_OUTER_BOUND ( 'NONE', #113, .T. ) ;
#726 = AXIS2_PLACEMENT_3D ( 'NONE', #1061, #246, #1186 ) ;
#727 = AXIS2_PLACEMENT_3D ( 'NONE', #1178, #1077, #882 ) ;
#728 = ORIENTED_EDGE ( 'NONE', *, *, #1346, .F. ) ;
#729 = DIRECTION ( 'NONE',  ( -1.000000000000000000, -0.000000000000000000, -0.000000000000000000 ) ) ;
#730 = CARTESIAN_POINT ( 'NONE',  ( 0.4975000000000000533, 1.619400000000004836, 16.23115867402468027 ) ) ;
#731 = CARTESIAN_POINT ( 'NONE',  ( 0.4975000000000000533, 4.350250384563221218, 13.52280828946146052 ) ) ;
#732 = ORIENTED_EDGE ( 'NONE', *, *, #1276, .T. ) ;
#733 = EDGE_CURVE ( 'NONE', #52, #1169, #597, .T. ) ;
#734 = DIRECTION ( 'NONE',  ( 1.000000000000000000, -0.000000000000000000, 0.000000000000000000 ) ) ;
#735 = EDGE_CURVE ( 'NONE', #1169, #944, #1190, .T. ) ;
#736 = CARTESIAN_POINT ( 'NONE',  ( 0.4975000000000000533, 4.019400000000003637, 13.99365867402467778 ) ) ;
#737 = CIRCLE ( 'NONE', #1294, 0.1000000000000000056 ) ;
#738 = VERTEX_POINT ( 'NONE', #164 ) ;
#739 = AXIS2_PLACEMENT_3D ( 'NONE', #217, #1348, #421 ) ;
#740 = VECTOR ( 'NONE', #374, 100.0000000000000000 ) ;
#741 = LINE ( 'NONE', #730, #920 ) ;
#742 = AXIS2_PLACEMENT_3D ( 'NONE', #298, #905, #404 ) ;
#743 = VERTEX_POINT ( 'NONE', #1189 ) ;
#744 =( GEOMETRIC_REPRESENTATION_CONTEXT ( 3 ) GLOBAL_UNCERTAINTY_ASSIGNED_CONTEXT ( ( #75 ) ) GLOBAL_UNIT_ASSIGNED_CONTEXT ( ( #131, #967, #573 ) ) REPRESENTATION_CONTEXT ( 'NONE', 'WORKASPACE' ) );
#745 = EDGE_LOOP ( 'NONE', ( #1042, #800, #950, #826 ) ) ;
#746 = CYLINDRICAL_SURFACE ( 'NONE', #101, 0.1000000000000000888 ) ;
#747 = CYLINDRICAL_SURFACE ( 'NONE', #318, 0.2500000000000002220 ) ;
#748 = ORIENTED_EDGE ( 'NONE', *, *, #598, .T. ) ;
#749 = LINE ( 'NONE', #1228, #892 ) ;
#750 = EDGE_CURVE ( 'NONE', #25, #74, #997, .T. ) ;
#751 = FACE_OUTER_BOUND ( 'NONE', #1082, .T. ) ;
#752 = FACE_OUTER_BOUND ( 'NONE', #788, .T. ) ;
#753 = DIRECTION ( 'NONE',  ( 1.000000000000000000, 0.000000000000000000, 0.000000000000000000 ) ) ;
#754 = VERTEX_POINT ( 'NONE', #914 ) ;
#755 = CARTESIAN_POINT ( 'NONE',  ( 0.5975000000000000311, 4.019400000000004525, 16.04365867402467671 ) ) ;
#756 = CLOSED_SHELL ( 'NONE', ( #410, #1108, #1330, #817, #1052, #176, #874, #1194, #331, #322, #17, #495, #1145, #243, #906, #926, #849, #1071, #311, #1166, #1017, #951, #493, #532, #1041, #240, #1198, #1211, #833, #535, #423, #1338, #1151, #1134, #378, #208, #143, #836, #477, #555, #349, #1094, #661, #1251, #938, #562 ) ) ;
#757 = DIRECTION ( 'NONE',  ( 0.000000000000000000, 0.000000000000000000, -1.000000000000000000 ) ) ;
#758 = VERTEX_POINT ( 'NONE', #578 ) ;
#759 = EDGE_CURVE ( 'NONE', #346, #838, #1008, .T. ) ;
#760 = AXIS2_PLACEMENT_3D ( 'NONE', #484, #376, #902 ) ;
#761 = DIRECTION ( 'NONE',  ( -1.000000000000000000, -0.000000000000000000, -0.000000000000000000 ) ) ;
#762 = DIRECTION ( 'NONE',  ( -1.000000000000000000, -0.000000000000000000, -0.000000000000000000 ) ) ;
#763 = ORIENTED_EDGE ( 'NONE', *, *, #185, .T. ) ;
#764 = DIRECTION ( 'NONE',  ( 0.000000000000000000, 0.000000000000000000, -1.000000000000000000 ) ) ;
#765 = AXIS2_PLACEMENT_3D ( 'NONE', #922, #1332, #384 ) ;
#766 = EDGE_LOOP ( 'NONE', ( #1205, #968 ) ) ;
#767 = FILL_AREA_STYLE ('',( #241 ) ) ;
#768 = CARTESIAN_POINT ( 'NONE',  ( 0.5975000000000000311, 4.019400000000004525, 16.74365867402467956 ) ) ;
#769 = ORIENTED_EDGE ( 'NONE', *, *, #1253, .F. ) ;
#770 = DIRECTION ( 'NONE',  ( 0.000000000000000000, 0.000000000000000000, -1.000000000000000000 ) ) ;
#771 = LINE ( 'NONE', #232, #59 ) ;
#772 = ORIENTED_EDGE ( 'NONE', *, *, #652, .F. ) ;
#773 = EDGE_CURVE ( 'NONE', #66, #1119, #635, .T. ) ;
#774 = CARTESIAN_POINT ( 'NONE',  ( 0.5975000000000001421, 1.619400000000004836, 16.39365867402467813 ) ) ;
#775 = CYLINDRICAL_SURFACE ( 'NONE', #804, 0.1000000000000000888 ) ;
#776 = LINE ( 'NONE', #441, #548 ) ;
#777 = EDGE_CURVE ( 'NONE', #1130, #1203, #1129, .T. ) ;
#778 = ORIENTED_EDGE ( 'NONE', *, *, #720, .T. ) ;
#779 = DIRECTION ( 'NONE',  ( 0.000000000000000000, 0.000000000000000000, -1.000000000000000000 ) ) ;
#780 = EDGE_LOOP ( 'NONE', ( #792, #324, #214, #593 ) ) ;
#781 = DIRECTION ( 'NONE',  ( -0.000000000000000000, -0.000000000000000000, -1.000000000000000000 ) ) ;
#782 = AXIS2_PLACEMENT_3D ( 'NONE', #1175, #1260, #153 ) ;
#783 = CARTESIAN_POINT ( 'NONE',  ( 1.037500000000000089, 4.019400000000003637, 14.24365867402467778 ) ) ;
#784 = CIRCLE ( 'NONE', #869, 0.3500000000000003109 ) ;
#785 = VERTEX_POINT ( 'NONE', #279 ) ;
#786 = DIRECTION ( 'NONE',  ( 0.000000000000000000, 0.000000000000000000, 1.000000000000000000 ) ) ;
#787 = AXIS2_PLACEMENT_3D ( 'NONE', #184, #62, #1015 ) ;
#788 = EDGE_LOOP ( 'NONE', ( #1250, #299, #1121, #708 ) ) ;
#789 = CIRCLE ( 'NONE', #88, 0.3500000000000003109 ) ;
#790 = DIRECTION ( 'NONE',  ( 0.000000000000000000, 0.000000000000000000, -1.000000000000000000 ) ) ;
#791 = DIRECTION ( 'NONE',  ( 0.000000000000000000, 0.000000000000000000, 1.000000000000000000 ) ) ;
#792 = ORIENTED_EDGE ( 'NONE', *, *, #511, .F. ) ;
#793 = DIRECTION ( 'NONE',  ( -1.000000000000000000, 0.000000000000000000, -0.000000000000000000 ) ) ;
#794 = ORIENTED_EDGE ( 'NONE', *, *, #1214, .F. ) ;
#795 = EDGE_CURVE ( 'NONE', #46, #1230, #721, .T. ) ;
#796 = LINE ( 'NONE', #171, #1220 ) ;
#797 = CARTESIAN_POINT ( 'NONE',  ( 0.000000000000000000, 0.000000000000000000, 0.000000000000000000 ) ) ;
#798 = VERTEX_POINT ( 'NONE', #41 ) ;
#799 = DIRECTION ( 'NONE',  ( -1.000000000000000000, 0.000000000000000000, -0.000000000000000000 ) ) ;
#800 = ORIENTED_EDGE ( 'NONE', *, *, #528, .F. ) ;
#801 = DIRECTION ( 'NONE',  ( 0.000000000000000000, 0.000000000000000000, -1.000000000000000000 ) ) ;
#802 = EDGE_CURVE ( 'NONE', #1319, #327, #30, .T. ) ;
#803 = DIRECTION ( 'NONE',  ( 0.000000000000000000, 0.000000000000000000, -1.000000000000000000 ) ) ;
#804 = AXIS2_PLACEMENT_3D ( 'NONE', #355, #128, #848 ) ;
#805 = CYLINDRICAL_SURFACE ( 'NONE', #78, 0.1000000000000000056 ) ;
#806 = EDGE_LOOP ( 'NONE', ( #351, #996, #949, #921 ) ) ;
#807 = DIRECTION ( 'NONE',  ( 1.000000000000000000, -0.000000000000000000, 0.000000000000000000 ) ) ;
#808 = VERTEX_POINT ( 'NONE', #829 ) ;
#809 = TOROIDAL_SURFACE ( 'NONE', #174, 0.3500000000000002554, 0.1000000000000000056 ) ;
#810 = DIRECTION ( 'NONE',  ( 1.000000000000000000, 0.000000000000000000, 0.000000000000000000 ) ) ;
#811 = CARTESIAN_POINT ( 'NONE',  ( 0.5975000000000001421, 1.619400000000004836, 16.39365867402467813 ) ) ;
#812 = DIRECTION ( 'NONE',  ( -1.000000000000000000, -0.000000000000000000, -0.000000000000000000 ) ) ;
#813 = EDGE_CURVE ( 'NONE', #150, #1179, #749, .T. ) ;
#814 = CARTESIAN_POINT ( 'NONE',  ( 0.4975000000000000533, 1.148549615436787130, 13.66280828946146109 ) ) ;
#815 = ORIENTED_EDGE ( 'NONE', *, *, #1116, .F. ) ;
#816 = CARTESIAN_POINT ( 'NONE',  ( 0.5975000000000001421, 4.019400000000004525, 16.14365867402467813 ) ) ;
#817 = ADVANCED_FACE ( 'NONE', ( #296 ), #572, .F. ) ;
#818 = CYLINDRICAL_SURFACE ( 'NONE', #520, 0.2500000000000002220 ) ;
#819 = EDGE_CURVE ( 'NONE', #961, #359, #197, .T. ) ;
#820 = CARTESIAN_POINT ( 'NONE',  ( 1.037500000000000089, 4.019400000000003637, 13.83115867402467636 ) ) ;
#821 = ORIENTED_EDGE ( 'NONE', *, *, #79, .F. ) ;
#822 = CARTESIAN_POINT ( 'NONE',  ( 0.000000000000000000, 4.590250384563220543, 16.72450905858789127 ) ) ;
#823 = DIRECTION ( 'NONE',  ( 0.000000000000000000, 0.000000000000000000, -1.000000000000000000 ) ) ;
#824 = DIRECTION ( 'NONE',  ( 0.000000000000000000, 1.000000000000000000, -0.000000000000000000 ) ) ;
#825 = VECTOR ( 'NONE', #312, 100.0000000000000000 ) ;
#826 = ORIENTED_EDGE ( 'NONE', *, *, #419, .F. ) ;
#827 = TOROIDAL_SURFACE ( 'NONE', #1000, 0.3499999999999999223, 0.1000000000000000056 ) ;
#828 = AXIS2_PLACEMENT_3D ( 'NONE', #1278, #2, #1153 ) ;
#829 = CARTESIAN_POINT ( 'NONE',  ( 0.000000000000000000, 1.288549615436786810, 16.96450905858789326 ) ) ;
#830 = AXIS2_PLACEMENT_3D ( 'NONE', #245, #337, #671 ) ;
#831 = AXIS2_PLACEMENT_3D ( 'NONE', #980, #36, #362 ) ;
#832 = FACE_OUTER_BOUND ( 'NONE', #363, .T. ) ;
#833 = ADVANCED_FACE ( 'NONE', ( #12, #1234 ), #1246, .T. ) ;
#834 = ORIENTED_EDGE ( 'NONE', *, *, #190, .T. ) ;
#835 = DIRECTION ( 'NONE',  ( -1.000000000000000000, -0.000000000000000000, -0.000000000000000000 ) ) ;
#836 = ADVANCED_FACE ( 'NONE', ( #1018 ), #415, .T. ) ;
#837 = LINE ( 'NONE', #94, #1163 ) ;
#838 = VERTEX_POINT ( 'NONE', #615 ) ;
#839 = DIRECTION ( 'NONE',  ( 1.000000000000000000, -0.000000000000000000, 0.000000000000000000 ) ) ;
#840 = CARTESIAN_POINT ( 'NONE',  ( 1.037500000000000089, 4.019400000000003637, 14.15615867402467920 ) ) ;
#841 = AXIS2_PLACEMENT_3D ( 'NONE', #1040, #716, #104 ) ;
#842 = ORIENTED_EDGE ( 'NONE', *, *, #90, .F. ) ;
#843 = VECTOR ( 'NONE', #917, 100.0000000000000000 ) ;
#844 = CIRCLE ( 'NONE', #255, 0.1000000000000000056 ) ;
#845 = VECTOR ( 'NONE', #1306, 100.0000000000000000 ) ;
#846 = CARTESIAN_POINT ( 'NONE',  ( 0.3975000000000000200, 4.350250384563221218, 16.96450905858789326 ) ) ;
#847 = AXIS2_PLACEMENT_3D ( 'NONE', #627, #649, #443 ) ;
#848 = DIRECTION ( 'NONE',  ( 0.000000000000000000, -1.000000000000000000, -1.469398677973022510E-16 ) ) ;
#849 = ADVANCED_FACE ( 'NONE', ( #333 ), #1120, .F. ) ;
#850 = ORIENTED_EDGE ( 'NONE', *, *, #680, .T. ) ;
#851 = PRODUCT_DEFINITION_SHAPE ( 'NONE', 'NONE',  #432 ) ;
#852 = CARTESIAN_POINT ( 'NONE',  ( 0.4975000000000000533, 1.619400000000005946, 14.15615867402467742 ) ) ;
#853 = DIRECTION ( 'NONE',  ( -1.000000000000000000, 0.000000000000000000, -0.000000000000000000 ) ) ;
#854 = EDGE_CURVE ( 'NONE', #1283, #945, #941, .T. ) ;
#855 = ORIENTED_EDGE ( 'NONE', *, *, #1010, .T. ) ;
#856 = DIRECTION ( 'NONE',  ( 1.000000000000000000, 0.000000000000000000, 0.000000000000000000 ) ) ;
#857 = CARTESIAN_POINT ( 'NONE',  ( 0.3975000000000000200, 1.288549615436787255, 13.52280828946146052 ) ) ;
#858 = ORIENTED_EDGE ( 'NONE', *, *, #694, .F. ) ;
#859 = SURFACE_SIDE_STYLE ('',( #1173 ) ) ;
#860 = CARTESIAN_POINT ( 'NONE',  ( 0.4975000000000000533, 4.019400000000003637, 14.34365867402467920 ) ) ;
#861 = ORIENTED_EDGE ( 'NONE', *, *, #102, .T. ) ;
#862 = CARTESIAN_POINT ( 'NONE',  ( 0.5975000000000000311, 4.019400000000003637, 13.99365867402467778 ) ) ;
#863 = CIRCLE ( 'NONE', #275, 0.1000000000000000888 ) ;
#864 = CARTESIAN_POINT ( 'NONE',  ( 0.4975000000000000533, 4.019400000000003637, 14.15615867402467920 ) ) ;
#865 = ORIENTED_EDGE ( 'NONE', *, *, #136, .F. ) ;
#866 = EDGE_CURVE ( 'NONE', #359, #754, #93, .T. ) ;
#867 = CIRCLE ( 'NONE', #719, 0.1625000000000015321 ) ;
#868 = DIRECTION ( 'NONE',  ( 1.000000000000000000, 0.000000000000000000, 0.000000000000000000 ) ) ;
#869 = AXIS2_PLACEMENT_3D ( 'NONE', #181, #1200, #55 ) ;
#870 = AXIS2_PLACEMENT_3D ( 'NONE', #587, #994, #50 ) ;
#871 = CARTESIAN_POINT ( 'NONE',  ( 0.4975000000000000533, 4.019400000000004525, 16.39365867402467813 ) ) ;
#872 = ORIENTED_EDGE ( 'NONE', *, *, #106, .T. ) ;
#873 = FACE_OUTER_BOUND ( 'NONE', #566, .T. ) ;
#874 = ADVANCED_FACE ( 'NONE', ( #514 ), #1340, .T. ) ;
#875 = DIRECTION ( 'NONE',  ( 0.000000000000000000, 0.000000000000000000, 1.000000000000000000 ) ) ;
#876 = ORIENTED_EDGE ( 'NONE', *, *, #924, .F. ) ;
#877 = EDGE_CURVE ( 'NONE', #327, #1096, #97, .T. ) ;
#878 = CARTESIAN_POINT ( 'NONE',  ( 0.4975000000000000533, 4.019400000000004525, 16.23115867402467671 ) ) ;
#879 = CARTESIAN_POINT ( 'NONE',  ( 0.000000000000000000, 4.350250384563221218, 13.66280828946146109 ) ) ;
#880 = ORIENTED_EDGE ( 'NONE', *, *, #759, .F. ) ;
#881 = CYLINDRICAL_SURFACE ( 'NONE', #1043, 0.1625000000000015321 ) ;
#882 = DIRECTION ( 'NONE',  ( 0.000000000000000000, 0.000000000000000000, -1.000000000000000000 ) ) ;
#883 = ORIENTED_EDGE ( 'NONE', *, *, #1232, .F. ) ;
#884 = FACE_OUTER_BOUND ( 'NONE', #534, .T. ) ;
#885 = ORIENTED_EDGE ( 'NONE', *, *, #692, .T. ) ;
#886 = CARTESIAN_POINT ( 'NONE',  ( 1.037500000000000089, 1.619400000000004836, 16.39365867402467813 ) ) ;
#887 = DIRECTION ( 'NONE',  ( 1.000000000000000000, 0.000000000000000000, 0.000000000000000000 ) ) ;
#888 = VERTEX_POINT ( 'NONE', #816 ) ;
#889 = CARTESIAN_POINT ( 'NONE',  ( 0.3975000000000000200, 1.288549615436786810, 16.86450905858789184 ) ) ;
#890 = DIRECTION ( 'NONE',  ( -1.000000000000000000, -0.000000000000000000, -0.000000000000000000 ) ) ;
#891 = PLANE ( 'NONE',  #177 ) ;
#892 = VECTOR ( 'NONE', #835, 100.0000000000000000 ) ;
#893 = ORIENTED_EDGE ( 'NONE', *, *, #1253, .T. ) ;
#894 = EDGE_CURVE ( 'NONE', #758, #95, #655, .T. ) ;
#895 = DIRECTION ( 'NONE',  ( -1.000000000000000000, -0.000000000000000000, -0.000000000000000000 ) ) ;
#896 = AXIS2_PLACEMENT_3D ( 'NONE', #1162, #230, #1068 ) ;
#897 = CIRCLE ( 'NONE', #307, 0.3500000000000003109 ) ;
#898 = ORIENTED_EDGE ( 'NONE', *, *, #289, .F. ) ;
#899 = AXIS2_PLACEMENT_3D ( 'NONE', #507, #707, #995 ) ;
#900 = APPLICATION_CONTEXT ( 'automotive_design' ) ;
#901 = DIRECTION ( 'NONE',  ( 0.000000000000000000, 0.000000000000000000, 1.000000000000000000 ) ) ;
#902 = DIRECTION ( 'NONE',  ( 0.000000000000000000, 0.000000000000000000, 1.000000000000000000 ) ) ;
#903 = CYLINDRICAL_SURFACE ( 'NONE', #617, 0.2500000000000002220 ) ;
#904 = EDGE_LOOP ( 'NONE', ( #815, #834, #583, #1355 ) ) ;
#905 = DIRECTION ( 'NONE',  ( 1.000000000000000000, -0.000000000000000000, 0.000000000000000000 ) ) ;
#906 = ADVANCED_FACE ( 'NONE', ( #608 ), #89, .F. ) ;
#907 = ORIENTED_EDGE ( 'NONE', *, *, #694, .T. ) ;
#908 = DIRECTION ( 'NONE',  ( 1.000000000000000000, 0.000000000000000000, 0.000000000000000000 ) ) ;
#909 = CARTESIAN_POINT ( 'NONE',  ( 1.037500000000000089, 4.019400000000004525, 16.39365867402467813 ) ) ;
#910 = CYLINDRICAL_SURFACE ( 'NONE', #436, 0.2500000000000002220 ) ;
#911 = ORIENTED_EDGE ( 'NONE', *, *, #1352, .F. ) ;
#912 = DIRECTION ( 'NONE',  ( 0.000000000000000000, 0.000000000000000000, 1.000000000000000000 ) ) ;
#913 = ORIENTED_EDGE ( 'NONE', *, *, #511, .T. ) ;
#914 = CARTESIAN_POINT ( 'NONE',  ( 0.5975000000000001421, 1.619400000000005946, 14.24365867402467778 ) ) ;
#915 = EDGE_CURVE ( 'NONE', #1016, #678, #723, .T. ) ;
#916 = CIRCLE ( 'NONE', #1185, 0.2500000000000002220 ) ;
#917 = DIRECTION ( 'NONE',  ( -1.000000000000000000, -0.000000000000000000, -0.000000000000000000 ) ) ;
#918 = DIRECTION ( 'NONE',  ( 1.000000000000000000, -0.000000000000000000, -0.000000000000000000 ) ) ;
#919 = VECTOR ( 'NONE', #696, 100.0000000000000000 ) ;
#920 = VECTOR ( 'NONE', #1243, 100.0000000000000000 ) ;
#921 = ORIENTED_EDGE ( 'NONE', *, *, #582, .F. ) ;
#922 = CARTESIAN_POINT ( 'NONE',  ( 0.4975000000000000533, 1.288549615436786810, 16.72450905858789127 ) ) ;
#923 = ORIENTED_EDGE ( 'NONE', *, *, #576, .F. ) ;
#924 = EDGE_CURVE ( 'NONE', #961, #1025, #722, .T. ) ;
#925 = DIRECTION ( 'NONE',  ( 1.000000000000000000, -0.000000000000000000, 0.000000000000000000 ) ) ;
#926 = ADVANCED_FACE ( 'NONE', ( #1347 ), #420, .F. ) ;
#927 = DIRECTION ( 'NONE',  ( 0.000000000000000000, 0.000000000000000000, -1.000000000000000000 ) ) ;
#928 = ORIENTED_EDGE ( 'NONE', *, *, #1350, .T. ) ;
#929 = DIRECTION ( 'NONE',  ( 0.000000000000000000, 0.000000000000000000, -1.000000000000000000 ) ) ;
#930 = ORIENTED_EDGE ( 'NONE', *, *, #165, .T. ) ;
#931 = DIRECTION ( 'NONE',  ( 0.000000000000000000, 0.000000000000000000, 1.000000000000000000 ) ) ;
#932 = DIRECTION ( 'NONE',  ( 0.000000000000000000, 0.000000000000000000, -1.000000000000000000 ) ) ;
#933 = EDGE_LOOP ( 'NONE', ( #1047, #1161 ) ) ;
#934 = DIRECTION ( 'NONE',  ( 0.000000000000000000, 0.000000000000000000, -1.000000000000000000 ) ) ;
#935 = CARTESIAN_POINT ( 'NONE',  ( 0.4975000000000000533, 1.619400000000004836, 16.39365867402467813 ) ) ;
#936 = EDGE_LOOP ( 'NONE', ( #861, #1288, #170, #223 ) ) ;
#937 = TOROIDAL_SURFACE ( 'NONE', #1297, 0.3499999999999999223, 0.1000000000000000056 ) ;
#938 = ADVANCED_FACE ( 'NONE', ( #873 ), #809, .F. ) ;
#939 = ORIENTED_EDGE ( 'NONE', *, *, #720, .F. ) ;
#940 = CIRCLE ( 'NONE', #345, 0.1000000000000000888 ) ;
#941 = CIRCLE ( 'NONE', #1217, 0.1400000000000012346 ) ;
#942 = DIRECTION ( 'NONE',  ( 0.000000000000000000, 0.000000000000000000, 1.000000000000000000 ) ) ;
#943 = CYLINDRICAL_SURFACE ( 'NONE', #1105, 0.1624999999999987566 ) ;
#944 = VERTEX_POINT ( 'NONE', #973 ) ;
#945 = VERTEX_POINT ( 'NONE', #26 ) ;
#946 = EDGE_CURVE ( 'NONE', #1141, #632, #459, .T. ) ;
#947 = CARTESIAN_POINT ( 'NONE',  ( 0.4975000000000000533, 4.019400000000004525, 16.55615867402467956 ) ) ;
#948 = DIRECTION ( 'NONE',  ( -1.000000000000000000, 0.000000000000000000, -0.000000000000000000 ) ) ;
#949 = ORIENTED_EDGE ( 'NONE', *, *, #1313, .F. ) ;
#950 = ORIENTED_EDGE ( 'NONE', *, *, #220, .T. ) ;
#951 = ADVANCED_FACE ( 'NONE', ( #1170 ), #581, .F. ) ;
#952 = CARTESIAN_POINT ( 'NONE',  ( 0.000000000000000000, 1.619400000000005946, 13.99365867402467778 ) ) ;
#953 = ORIENTED_EDGE ( 'NONE', *, *, #1036, .T. ) ;
#954 = CARTESIAN_POINT ( 'NONE',  ( 0.000000000000000000, 1.619400000000004836, 16.23115867402468027 ) ) ;
#955 = AXIS2_PLACEMENT_3D ( 'NONE', #811, #1192, #1223 ) ;
#956 = AXIS2_PLACEMENT_3D ( 'NONE', #489, #908, #985 ) ;
#957 = DIRECTION ( 'NONE',  ( 1.000000000000000000, -0.000000000000000000, 0.000000000000000000 ) ) ;
#958 = AXIS2_PLACEMENT_3D ( 'NONE', #77, #1133, #1137 ) ;
#959 = EDGE_CURVE ( 'NONE', #261, #1141, #1264, .T. ) ;
#960 = DIRECTION ( 'NONE',  ( 0.000000000000000000, 0.000000000000000000, -1.000000000000000000 ) ) ;
#961 = VERTEX_POINT ( 'NONE', #1083 ) ;
#962 = CARTESIAN_POINT ( 'NONE',  ( 1.037500000000000089, 1.619400000000004836, 16.64365867402467813 ) ) ;
#963 = DIRECTION ( 'NONE',  ( 1.000000000000000000, 0.000000000000000000, 0.000000000000000000 ) ) ;
#964 = DIRECTION ( 'NONE',  ( 0.000000000000000000, 0.000000000000000000, -1.000000000000000000 ) ) ;
#965 = CYLINDRICAL_SURFACE ( 'NONE', #673, 0.2500000000000002220 ) ;
#966 = DIRECTION ( 'NONE',  ( 1.000000000000000000, 0.000000000000000000, 0.000000000000000000 ) ) ;
#967 =( NAMED_UNIT ( * ) PLANE_ANGLE_UNIT ( ) SI_UNIT ( $, .RADIAN. ) );
#968 = ORIENTED_EDGE ( 'NONE', *, *, #1114, .T. ) ;
#969 = CARTESIAN_POINT ( 'NONE',  ( 1.037500000000000089, 1.619400000000005946, 13.99365867402467778 ) ) ;
#970 = DIRECTION ( 'NONE',  ( 0.000000000000000000, 1.000000000000000000, 0.000000000000000000 ) ) ;
#971 = EDGE_CURVE ( 'NONE', #1179, #1085, #323, .T. ) ;
#972 = ORIENTED_EDGE ( 'NONE', *, *, #1014, .T. ) ;
#973 = CARTESIAN_POINT ( 'NONE',  ( 0.000000000000000000, 1.048549615436787263, 13.66280828946146109 ) ) ;
#974 = EDGE_CURVE ( 'NONE', #533, #25, #56, .T. ) ;
#975 = CARTESIAN_POINT ( 'NONE',  ( 0.4975000000000000533, 1.288549615436786810, 16.86450905858789184 ) ) ;
#976 = VERTEX_POINT ( 'NONE', #357 ) ;
#977 = CIRCLE ( 'NONE', #277, 0.1400000000000012346 ) ;
#978 = CARTESIAN_POINT ( 'NONE',  ( 0.3975000000000000200, 0.000000000000000000, 13.52280828946146052 ) ) ;
#979 = CARTESIAN_POINT ( 'NONE',  ( 1.037500000000000089, 4.019400000000004525, 16.39365867402467813 ) ) ;
#980 = CARTESIAN_POINT ( 'NONE',  ( 0.4975000000000000533, 4.019400000000004525, 16.39365867402467813 ) ) ;
#981 = ORIENTED_EDGE ( 'NONE', *, *, #61, .F. ) ;
#982 = DIRECTION ( 'NONE',  ( 0.000000000000000000, 0.000000000000000000, -1.000000000000000000 ) ) ;
#983 = EDGE_LOOP ( 'NONE', ( #990, #527 ) ) ;
#984 = DIRECTION ( 'NONE',  ( -1.000000000000000000, -0.000000000000000000, -0.000000000000000000 ) ) ;
#985 = DIRECTION ( 'NONE',  ( 0.000000000000000000, 0.000000000000000000, -1.000000000000000000 ) ) ;
#986 = DIRECTION ( 'NONE',  ( 0.000000000000000000, 0.000000000000000000, -1.000000000000000000 ) ) ;
#987 = EDGE_LOOP ( 'NONE', ( #203, #641 ) ) ;
#988 = CARTESIAN_POINT ( 'NONE',  ( 0.5975000000000001421, 1.619400000000005946, 13.74365867402467778 ) ) ;
#989 = LINE ( 'NONE', #864, #125 ) ;
#990 = ORIENTED_EDGE ( 'NONE', *, *, #1014, .F. ) ;
#991 = CARTESIAN_POINT ( 'NONE',  ( 0.000000000000000000, 1.048549615436787263, 13.42280828946146087 ) ) ;
#992 = EDGE_CURVE ( 'NONE', #754, #691, #523, .T. ) ;
#993 = CARTESIAN_POINT ( 'NONE',  ( 0.3975000000000000200, 4.590250384563220543, 16.72450905858789127 ) ) ;
#994 = DIRECTION ( 'NONE',  ( 1.000000000000000000, 0.000000000000000000, 0.000000000000000000 ) ) ;
#995 = DIRECTION ( 'NONE',  ( 1.000000000000000000, 0.000000000000000000, 0.000000000000000000 ) ) ;
#996 = ORIENTED_EDGE ( 'NONE', *, *, #1320, .F. ) ;
#997 = LINE ( 'NONE', #693, #196 ) ;
#998 = CARTESIAN_POINT ( 'NONE',  ( 1.037500000000000089, 4.019400000000004525, 16.23115867402467671 ) ) ;
#999 = CARTESIAN_POINT ( 'NONE',  ( 0.4975000000000000533, 4.350250384563221218, 16.86450905858789184 ) ) ;
#1000 = AXIS2_PLACEMENT_3D ( 'NONE', #715, #320, #618 ) ;
#1001 = EDGE_CURVE ( 'NONE', #442, #678, #146, .T. ) ;
#1002 = PRESENTATION_LAYER_ASSIGNMENT (  '', '', ( #521 ) ) ;
#1003 = ORIENTED_EDGE ( 'NONE', *, *, #1010, .F. ) ;
#1004 = DIRECTION ( 'NONE',  ( 0.000000000000000000, 0.000000000000000000, -1.000000000000000000 ) ) ;
#1005 = VECTOR ( 'NONE', #310, 100.0000000000000000 ) ;
#1006 = ORIENTED_EDGE ( 'NONE', *, *, #370, .F. ) ;
#1007 = AXIS2_PLACEMENT_3D ( 'NONE', #1282, #225, #358 ) ;
#1008 = LINE ( 'NONE', #173, #456 ) ;
#1009 = CARTESIAN_POINT ( 'NONE',  ( 1.037500000000000089, 1.619400000000004836, 16.64365867402467813 ) ) ;
#1010 = EDGE_CURVE ( 'NONE', #161, #346, #83, .T. ) ;
#1011 = EDGE_LOOP ( 'NONE', ( #1257, #546, #953, #600 ) ) ;
#1012 = CARTESIAN_POINT ( 'NONE',  ( 0.3975000000000000200, 4.350250384563221218, 13.42280828946146087 ) ) ;
#1013 = CARTESIAN_POINT ( 'NONE',  ( 0.4975000000000000533, 1.619400000000004836, 16.39365867402467813 ) ) ;
#1014 = EDGE_CURVE ( 'NONE', #1032, #69, #1277, .T. ) ;
#1015 = DIRECTION ( 'NONE',  ( 0.000000000000000000, 0.000000000000000000, -1.000000000000000000 ) ) ;
#1016 = VERTEX_POINT ( 'NONE', #38 ) ;
#1017 = ADVANCED_FACE ( 'NONE', ( #1097 ), #881, .F. ) ;
#1018 = FACE_OUTER_BOUND ( 'NONE', #806, .T. ) ;
#1019 = AXIS2_PLACEMENT_3D ( 'NONE', #629, #1051, #531 ) ;
#1020 = DIRECTION ( 'NONE',  ( 1.000000000000000000, 0.000000000000000000, 0.000000000000000000 ) ) ;
#1021 = CIRCLE ( 'NONE', #455, 0.1624999999999987566 ) ;
#1022 = ORIENTED_EDGE ( 'NONE', *, *, #1289, .F. ) ;
#1023 = FACE_OUTER_BOUND ( 'NONE', #621, .T. ) ;
#1024 = VECTOR ( 'NONE', #1100, 100.0000000000000000 ) ;
#1025 = VERTEX_POINT ( 'NONE', #988 ) ;
#1026 = AXIS2_PLACEMENT_3D ( 'NONE', #487, #1004, #793 ) ;
#1027 = CARTESIAN_POINT ( 'NONE',  ( 0.5975000000000000311, 4.019400000000003637, 14.34365867402467920 ) ) ;
#1028 = CIRCLE ( 'NONE', #1304, 0.1000000000000000888 ) ;
#1029 = DIRECTION ( 'NONE',  ( 0.000000000000000000, 0.000000000000000000, -1.000000000000000000 ) ) ;
#1030 = EDGE_LOOP ( 'NONE', ( #317, #1196 ) ) ;
#1031 = DIRECTION ( 'NONE',  ( 1.000000000000000000, 0.000000000000000000, 0.000000000000000000 ) ) ;
#1032 = VERTEX_POINT ( 'NONE', #252 ) ;
#1033 = FACE_OUTER_BOUND ( 'NONE', #1011, .T. ) ;
#1034 = DIRECTION ( 'NONE',  ( -1.000000000000000000, -0.000000000000000000, -0.000000000000000000 ) ) ;
#1035 = DIRECTION ( 'NONE',  ( -1.000000000000000000, 0.000000000000000000, -0.000000000000000000 ) ) ;
#1036 = EDGE_CURVE ( 'NONE', #888, #494, #123, .T. ) ;
#1037 = ORIENTED_EDGE ( 'NONE', *, *, #733, .F. ) ;
#1038 = DIRECTION ( 'NONE',  ( 0.000000000000000000, 0.000000000000000000, -1.000000000000000000 ) ) ;
#1039 = DIRECTION ( 'NONE',  ( 0.000000000000000000, 0.000000000000000000, 1.000000000000000000 ) ) ;
#1040 = CARTESIAN_POINT ( 'NONE',  ( 0.5975000000000000311, 1.619400000000004836, 16.74365867402467956 ) ) ;
#1041 = ADVANCED_FACE ( 'NONE', ( #1197, #155 ), #162, .T. ) ;
#1042 = ORIENTED_EDGE ( 'NONE', *, *, #915, .T. ) ;
#1043 = AXIS2_PLACEMENT_3D ( 'NONE', #364, #472, #44 ) ;
#1044 = VECTOR ( 'NONE', #699, 100.0000000000000000 ) ;
#1045 = FACE_OUTER_BOUND ( 'NONE', #1067, .T. ) ;
#1046 = CARTESIAN_POINT ( 'NONE',  ( 0.4975000000000000533, 4.019400000000004525, 16.39365867402467813 ) ) ;
#1047 = ORIENTED_EDGE ( 'NONE', *, *, #289, .T. ) ;
#1048 = EDGE_CURVE ( 'NONE', #69, #1032, #233, .T. ) ;
#1049 = DIRECTION ( 'NONE',  ( 1.000000000000000000, 0.000000000000000000, 0.000000000000000000 ) ) ;
#1050 = DIRECTION ( 'NONE',  ( 0.000000000000000000, 0.000000000000000000, 1.000000000000000000 ) ) ;
#1051 = DIRECTION ( 'NONE',  ( 1.000000000000000000, -0.000000000000000000, 0.000000000000000000 ) ) ;
#1052 = ADVANCED_FACE ( 'NONE', ( #130 ), #19, .T. ) ;
#1053 = EDGE_LOOP ( 'NONE', ( #850, #426, #772, #1003 ) ) ;
#1054 = CARTESIAN_POINT ( 'NONE',  ( 1.037500000000000089, 1.619400000000004836, 16.39365867402467813 ) ) ;
#1055 = PRODUCT ( 'ArkCan mount', 'ArkCan mount', '', ( #286 ) ) ;
#1056 = DIRECTION ( 'NONE',  ( 0.000000000000000000, 0.000000000000000000, 1.000000000000000000 ) ) ;
#1057 = CARTESIAN_POINT ( 'NONE',  ( 0.3975000000000000200, 1.148549615436786686, 16.72450905858789127 ) ) ;
#1058 = CARTESIAN_POINT ( 'NONE',  ( 0.000000000000000000, 1.288549615436787255, 13.42280828946146087 ) ) ;
#1059 = ORIENTED_EDGE ( 'NONE', *, *, #469, .T. ) ;
#1060 = CARTESIAN_POINT ( 'NONE',  ( 0.4975000000000000533, 1.288549615436786810, 16.72450905858789127 ) ) ;
#1061 = CARTESIAN_POINT ( 'NONE',  ( 0.5975000000000000311, 1.619400000000005946, 13.64365867402467813 ) ) ;
#1062 = TOROIDAL_SURFACE ( 'NONE', #1188, 0.1399999999999999856, 0.1000000000000000056 ) ;
#1063 = DIRECTION ( 'NONE',  ( -1.000000000000000000, -0.000000000000000000, -0.000000000000000000 ) ) ;
#1064 = ADVANCED_BREP_SHAPE_REPRESENTATION ( 'ArkCan mount', ( #667, #899 ), #744 ) ;
#1065 = DIRECTION ( 'NONE',  ( 0.000000000000000000, 0.000000000000000000, 1.000000000000000000 ) ) ;
#1066 = AXIS2_PLACEMENT_3D ( 'NONE', #460, #963, #149 ) ;
#1067 = EDGE_LOOP ( 'NONE', ( #972, #239, #563, #418 ) ) ;
#1068 = DIRECTION ( 'NONE',  ( 0.000000000000000000, 0.000000000000000000, -1.000000000000000000 ) ) ;
#1069 = CARTESIAN_POINT ( 'NONE',  ( 0.3975000000000000200, 1.288549615436787255, 13.66280828946146109 ) ) ;
#1070 = ORIENTED_EDGE ( 'NONE', *, *, #894, .T. ) ;
#1071 = ADVANCED_FACE ( 'NONE', ( #506 ), #1231, .F. ) ;
#1072 = FACE_OUTER_BOUND ( 'NONE', #366, .T. ) ;
#1073 = CARTESIAN_POINT ( 'NONE',  ( 0.4975000000000000533, 1.619400000000004836, 16.55615867402467600 ) ) ;
#1074 = EDGE_CURVE ( 'NONE', #1152, #738, #1132, .T. ) ;
#1075 = ORIENTED_EDGE ( 'NONE', *, *, #974, .F. ) ;
#1076 = DIRECTION ( 'NONE',  ( 1.000000000000000000, -0.000000000000000000, -0.000000000000000000 ) ) ;
#1077 = DIRECTION ( 'NONE',  ( -1.000000000000000000, 0.000000000000000000, -0.000000000000000000 ) ) ;
#1078 = ORIENTED_EDGE ( 'NONE', *, *, #1174, .F. ) ;
#1079 = CARTESIAN_POINT ( 'NONE',  ( 0.3975000000000000200, 0.000000000000000000, 16.86450905858789184 ) ) ;
#1080 = DIRECTION ( 'NONE',  ( -1.000000000000000000, -0.000000000000000000, 0.000000000000000000 ) ) ;
#1081 = EDGE_CURVE ( 'NONE', #785, #180, #58, .T. ) ;
#1082 = EDGE_LOOP ( 'NONE', ( #698, #435, #1309, #865 ) ) ;
#1083 = CARTESIAN_POINT ( 'NONE',  ( 1.037500000000000089, 1.619400000000005946, 13.74365867402467778 ) ) ;
#1084 = DIRECTION ( 'NONE',  ( 0.000000000000000000, 0.000000000000000000, -1.000000000000000000 ) ) ;
#1085 = VERTEX_POINT ( 'NONE', #1117 ) ;
#1086 = CARTESIAN_POINT ( 'NONE',  ( 0.3975000000000000200, 4.350250384563221218, 16.86450905858789184 ) ) ;
#1087 = AXIS2_PLACEMENT_3D ( 'NONE', #664, #571, #458 ) ;
#1088 = DIRECTION ( 'NONE',  ( 0.000000000000000000, 0.000000000000000000, -1.000000000000000000 ) ) ;
#1089 = ORIENTED_EDGE ( 'NONE', *, *, #1313, .T. ) ;
#1090 = CARTESIAN_POINT ( 'NONE',  ( 0.3975000000000000200, 1.048549615436786819, 16.72450905858789127 ) ) ;
#1091 = CIRCLE ( 'NONE', #258, 0.2500000000000002220 ) ;
#1092 = CARTESIAN_POINT ( 'NONE',  ( 0.4975000000000000533, 4.019400000000004525, 16.39365867402467813 ) ) ;
#1093 = ORIENTED_EDGE ( 'NONE', *, *, #1276, .F. ) ;
#1094 = ADVANCED_FACE ( 'NONE', ( #168 ), #724, .T. ) ;
#1095 = DIRECTION ( 'NONE',  ( 1.000000000000000000, -0.000000000000000000, 0.000000000000000000 ) ) ;
#1096 = VERTEX_POINT ( 'NONE', #1303 ) ;
#1097 = FACE_OUTER_BOUND ( 'NONE', #339, .T. ) ;
#1098 = ORIENTED_EDGE ( 'NONE', *, *, #264, .T. ) ;
#1099 = EDGE_CURVE ( 'NONE', #945, #976, #274, .T. ) ;
#1100 = DIRECTION ( 'NONE',  ( -1.000000000000000000, -0.000000000000000000, 0.000000000000000000 ) ) ;
#1101 = FACE_BOUND ( 'NONE', #1351, .T. ) ;
#1102 = ORIENTED_EDGE ( 'NONE', *, *, #854, .T. ) ;
#1103 = ORIENTED_EDGE ( 'NONE', *, *, #624, .T. ) ;
#1104 =( LENGTH_UNIT ( ) NAMED_UNIT ( * ) SI_UNIT ( .CENTI., .METRE. ) );
#1105 = AXIS2_PLACEMENT_3D ( 'NONE', #935, #81, #1039 ) ;
#1106 = DIRECTION ( 'NONE',  ( 0.000000000000000000, 0.000000000000000000, -1.000000000000000000 ) ) ;
#1107 = TOROIDAL_SURFACE ( 'NONE', #828, 0.3499999999999999223, 0.1000000000000000056 ) ;
#1108 = ADVANCED_FACE ( 'NONE', ( #73 ), #124, .F. ) ;
#1109 = AXIS2_PLACEMENT_3D ( 'NONE', #137, #856, #684 ) ;
#1110 = EDGE_LOOP ( 'NONE', ( #1037, #474, #883, #37 ) ) ;
#1111 = DIRECTION ( 'NONE',  ( -1.000000000000000000, 0.000000000000000000, -0.000000000000000000 ) ) ;
#1112 = EDGE_LOOP ( 'NONE', ( #613, #72, #114, #452 ) ) ;
#1113 = CARTESIAN_POINT ( 'NONE',  ( 0.4975000000000000533, 4.350250384563221218, 16.96450905858789326 ) ) ;
#1114 = EDGE_CURVE ( 'NONE', #691, #1187, #1241, .T. ) ;
#1115 = CARTESIAN_POINT ( 'NONE',  ( 0.4975000000000000533, 4.019400000000003637, 13.99365867402467778 ) ) ;
#1116 = EDGE_CURVE ( 'NONE', #74, #888, #461, .T. ) ;
#1117 = CARTESIAN_POINT ( 'NONE',  ( 0.4975000000000000533, 4.019400000000003637, 13.64365867402467813 ) ) ;
#1118 = APPLICATION_PROTOCOL_DEFINITION ( 'draft international standard', 'automotive_design', 1998, #1142 ) ;
#1119 = VERTEX_POINT ( 'NONE', #820 ) ;
#1120 = PLANE ( 'NONE',  #847 ) ;
#1121 = ORIENTED_EDGE ( 'NONE', *, *, #1284, .T. ) ;
#1122 = DIRECTION ( 'NONE',  ( -1.000000000000000000, 0.000000000000000000, -0.000000000000000000 ) ) ;
#1123 = ORIENTED_EDGE ( 'NONE', *, *, #877, .F. ) ;
#1124 = DIRECTION ( 'NONE',  ( 1.000000000000000000, -0.000000000000000000, 0.000000000000000000 ) ) ;
#1125 = CIRCLE ( 'NONE', #1019, 0.2500000000000002220 ) ;
#1126 = CARTESIAN_POINT ( 'NONE',  ( 0.4975000000000000533, 4.350250384563221218, 13.66280828946146109 ) ) ;
#1127 = CARTESIAN_POINT ( 'NONE',  ( 1.037500000000000089, 4.019400000000004525, 16.64365867402467813 ) ) ;
#1128 = DIRECTION ( 'NONE',  ( -1.000000000000000000, 0.000000000000000000, 0.000000000000000000 ) ) ;
#1129 = CIRCLE ( 'NONE', #1298, 0.1400000000000012346 ) ;
#1130 = VERTEX_POINT ( 'NONE', #377 ) ;
#1131 = AXIS2_PLACEMENT_3D ( 'NONE', #1027, #709, #942 ) ;
#1132 = CIRCLE ( 'NONE', #397, 0.1624999999999987566 ) ;
#1133 = DIRECTION ( 'NONE',  ( -0.000000000000000000, 1.000000000000000000, 1.469398677973023743E-16 ) ) ;
#1134 = ADVANCED_FACE ( 'NONE', ( #67 ), #1311, .T. ) ;
#1135 = DIRECTION ( 'NONE',  ( 0.000000000000000000, 0.000000000000000000, -1.000000000000000000 ) ) ;
#1136 = ORIENTED_EDGE ( 'NONE', *, *, #353, .T. ) ;
#1137 = DIRECTION ( 'NONE',  ( 0.000000000000000000, -1.469398677973023743E-16, 1.000000000000000000 ) ) ;
#1138 = EDGE_CURVE ( 'NONE', #1187, #691, #897, .T. ) ;
#1139 = ORIENTED_EDGE ( 'NONE', *, *, #148, .T. ) ;
#1140 = ORIENTED_EDGE ( 'NONE', *, *, #79, .T. ) ;
#1141 = VERTEX_POINT ( 'NONE', #85 ) ;
#1142 = APPLICATION_CONTEXT ( 'automotive_design' ) ;
#1143 = CARTESIAN_POINT ( 'NONE',  ( 0.000000000000000000, 4.350250384563221218, 16.96450905858789326 ) ) ;
#1144 = CIRCLE ( 'NONE', #117, 0.2400000000000013234 ) ;
#1145 = ADVANCED_FACE ( 'NONE', ( #1023, #611, #1209, #1204, #269 ), #1318, .T. ) ;
#1146 = VECTOR ( 'NONE', #1063, 100.0000000000000000 ) ;
#1147 = ORIENTED_EDGE ( 'NONE', *, *, #866, .T. ) ;
#1148 = ORIENTED_EDGE ( 'NONE', *, *, #802, .T. ) ;
#1149 = CARTESIAN_POINT ( 'NONE',  ( 1.037500000000000089, 1.619400000000004836, 16.14365867402467813 ) ) ;
#1150 = EDGE_CURVE ( 'NONE', #838, #247, #1219, .T. ) ;
#1151 = ADVANCED_FACE ( 'NONE', ( #399 ), #1225, .T. ) ;
#1152 = VERTEX_POINT ( 'NONE', #554 ) ;
#1153 = DIRECTION ( 'NONE',  ( 0.000000000000000000, 0.000000000000000000, -1.000000000000000000 ) ) ;
#1154 = FACE_OUTER_BOUND ( 'NONE', #669, .T. ) ;
#1155 = VERTEX_POINT ( 'NONE', #1193 ) ;
#1156 = DIRECTION ( 'NONE',  ( 1.000000000000000000, 0.000000000000000000, 0.000000000000000000 ) ) ;
#1157 = DIRECTION ( 'NONE',  ( 0.000000000000000000, 0.000000000000000000, -1.000000000000000000 ) ) ;
#1158 = DIRECTION ( 'NONE',  ( 0.000000000000000000, 0.000000000000000000, -1.000000000000000000 ) ) ;
#1159 = VECTOR ( 'NONE', #440, 100.0000000000000000 ) ;
#1160 = AXIS2_PLACEMENT_3D ( 'NONE', #1013, #890, #272 ) ;
#1161 = ORIENTED_EDGE ( 'NONE', *, *, #974, .T. ) ;
#1162 = CARTESIAN_POINT ( 'NONE',  ( 1.037500000000000089, 1.619400000000004836, 16.39365867402467813 ) ) ;
#1163 = VECTOR ( 'NONE', #530, 100.0000000000000000 ) ;
#1164 = ORIENTED_EDGE ( 'NONE', *, *, #894, .F. ) ;
#1165 = AXIS2_PLACEMENT_3D ( 'NONE', #91, #408, #1336 ) ;
#1166 = ADVANCED_FACE ( 'NONE', ( #260 ), #142, .F. ) ;
#1167 = DIRECTION ( 'NONE',  ( -1.000000000000000000, -0.000000000000000000, -0.000000000000000000 ) ) ;
#1168 = DIRECTION ( 'NONE',  ( 1.000000000000000000, 0.000000000000000000, 0.000000000000000000 ) ) ;
#1169 = VERTEX_POINT ( 'NONE', #1058 ) ;
#1170 = FACE_OUTER_BOUND ( 'NONE', #135, .T. ) ;
#1171 = CARTESIAN_POINT ( 'NONE',  ( 0.5975000000000000311, 4.019400000000004525, 16.39365867402467813 ) ) ;
#1172 = EDGE_LOOP ( 'NONE', ( #1292, #445, #718, #154 ) ) ;
#1173 = SURFACE_STYLE_FILL_AREA ( #767 ) ;
#1174 = EDGE_CURVE ( 'NONE', #1227, #346, #776, .T. ) ;
#1175 = CARTESIAN_POINT ( 'NONE',  ( 0.000000000000000000, 4.019400000000003637, 13.99365867402467778 ) ) ;
#1176 = VERTEX_POINT ( 'NONE', #282 ) ;
#1177 = DIRECTION ( 'NONE',  ( 0.000000000000000000, 1.000000000000000000, -1.224646799147353207E-16 ) ) ;
#1178 = CARTESIAN_POINT ( 'NONE',  ( 0.4975000000000000533, 4.019400000000003637, 13.99365867402467778 ) ) ;
#1179 = VERTEX_POINT ( 'NONE', #382 ) ;
#1180 = DIRECTION ( 'NONE',  ( 1.000000000000000000, -0.000000000000000000, 0.000000000000000000 ) ) ;
#1181 = CARTESIAN_POINT ( 'NONE',  ( 0.000000000000000000, 4.019400000000004525, 16.39365867402467813 ) ) ;
#1182 = DIRECTION ( 'NONE',  ( 1.000000000000000000, -0.000000000000000000, -0.000000000000000000 ) ) ;
#1183 = EDGE_CURVE ( 'NONE', #808, #632, #491, .T. ) ;
#1184 = CARTESIAN_POINT ( 'NONE',  ( 0.4975000000000000533, 4.350250384563221218, 13.42280828946146087 ) ) ;
#1185 = AXIS2_PLACEMENT_3D ( 'NONE', #35, #464, #960 ) ;
#1186 = DIRECTION ( 'NONE',  ( 0.000000000000000000, 0.000000000000000000, -1.000000000000000000 ) ) ;
#1187 = VERTEX_POINT ( 'NONE', #1202 ) ;
#1188 = AXIS2_PLACEMENT_3D ( 'NONE', #259, #1252, #927 ) ;
#1189 = CARTESIAN_POINT ( 'NONE',  ( 0.000000000000000000, 4.019400000000004525, 16.55615867402467956 ) ) ;
#1190 = CIRCLE ( 'NONE', #543, 0.2400000000000013234 ) ;
#1191 = VECTOR ( 'NONE', #1076, 100.0000000000000000 ) ;
#1192 = DIRECTION ( 'NONE',  ( 1.000000000000000000, -0.000000000000000000, 0.000000000000000000 ) ) ;
#1193 = CARTESIAN_POINT ( 'NONE',  ( 0.4975000000000000533, 1.288549615436787255, 13.52280828946146052 ) ) ;
#1194 = ADVANCED_FACE ( 'NONE', ( #291 ), #910, .T. ) ;
#1195 = CIRCLE ( 'NONE', #6, 0.2500000000000002220 ) ;
#1196 = ORIENTED_EDGE ( 'NONE', *, *, #1081, .T. ) ;
#1197 = FACE_OUTER_BOUND ( 'NONE', #933, .T. ) ;
#1198 = ADVANCED_FACE ( 'NONE', ( #586, #49 ), #891, .T. ) ;
#1199 = ORIENTED_EDGE ( 'NONE', *, *, #795, .T. ) ;
#1200 = DIRECTION ( 'NONE',  ( -1.000000000000000000, 0.000000000000000000, -0.000000000000000000 ) ) ;
#1201 = CARTESIAN_POINT ( 'NONE',  ( 0.3975000000000000200, 1.048549615436787263, 13.66280828946146109 ) ) ;
#1202 = CARTESIAN_POINT ( 'NONE',  ( 0.4975000000000000533, 1.619400000000005946, 13.64365867402467813 ) ) ;
#1203 = VERTEX_POINT ( 'NONE', #999 ) ;
#1204 = FACE_BOUND ( 'NONE', #683, .T. ) ;
#1205 = ORIENTED_EDGE ( 'NONE', *, *, #1138, .T. ) ;
#1206 = DIRECTION ( 'NONE',  ( -1.000000000000000000, 0.000000000000000000, 0.000000000000000000 ) ) ;
#1207 = CYLINDRICAL_SURFACE ( 'NONE', #342, 0.1625000000000015321 ) ;
#1208 = EDGE_LOOP ( 'NONE', ( #200, #21 ) ) ;
#1209 = FACE_BOUND ( 'NONE', #18, .T. ) ;
#1210 = ORIENTED_EDGE ( 'NONE', *, *, #1265, .F. ) ;
#1211 = ADVANCED_FACE ( 'NONE', ( #485 ), #903, .T. ) ;
#1212 = CIRCLE ( 'NONE', #429, 0.1000000000000000056 ) ;
#1213 = DIRECTION ( 'NONE',  ( 1.000000000000000000, 0.000000000000000000, 0.000000000000000000 ) ) ;
#1214 = EDGE_CURVE ( 'NONE', #150, #1176, #1195, .T. ) ;
#1215 = DIRECTION ( 'NONE',  ( -1.000000000000000000, 0.000000000000000000, 0.000000000000000000 ) ) ;
#1216 = AXIS2_PLACEMENT_3D ( 'NONE', #1321, #810, #395 ) ;
#1217 = AXIS2_PLACEMENT_3D ( 'NONE', #1060, #925, #547 ) ;
#1218 = ORIENTED_EDGE ( 'NONE', *, *, #127, .F. ) ;
#1219 = LINE ( 'NONE', #285, #524 ) ;
#1220 = VECTOR ( 'NONE', #642, 100.0000000000000000 ) ;
#1221 = EDGE_LOOP ( 'NONE', ( #595, #178, #1139, #254 ) ) ;
#1222 = CARTESIAN_POINT ( 'NONE',  ( 1.037500000000000089, 1.619400000000005946, 14.24365867402467778 ) ) ;
#1223 = DIRECTION ( 'NONE',  ( 0.000000000000000000, 0.000000000000000000, -1.000000000000000000 ) ) ;
#1224 = EDGE_LOOP ( 'NONE', ( #1075, #930, #11, #556 ) ) ;
#1225 = CYLINDRICAL_SURFACE ( 'NONE', #86, 0.2400000000000013234 ) ;
#1226 = APPLICATION_PROTOCOL_DEFINITION ( 'draft international standard', 'automotive_design', 1998, #900 ) ;
#1227 = VERTEX_POINT ( 'NONE', #822 ) ;
#1228 = CARTESIAN_POINT ( 'NONE',  ( 1.037500000000000089, 4.019400000000003637, 13.74365867402467778 ) ) ;
#1229 = CARTESIAN_POINT ( 'NONE',  ( 1.037500000000000089, 1.619400000000004836, 16.39365867402467813 ) ) ;
#1230 = VERTEX_POINT ( 'NONE', #302 ) ;
#1231 = PLANE ( 'NONE',  #1026 ) ;
#1232 = EDGE_CURVE ( 'NONE', #944, #261, #796, .T. ) ;
#1233 = ORIENTED_EDGE ( 'NONE', *, *, #584, .T. ) ;
#1234 = FACE_BOUND ( 'NONE', #400, .T. ) ;
#1235 = CARTESIAN_POINT ( 'NONE',  ( 0.000000000000000000, 4.350250384563221218, 13.42280828946146087 ) ) ;
#1236 = CARTESIAN_POINT ( 'NONE',  ( 1.037500000000000089, 4.019400000000004525, 16.55615867402467956 ) ) ;
#1237 = EDGE_LOOP ( 'NONE', ( #1267, #276, #513, #880 ) ) ;
#1238 = VECTOR ( 'NONE', #288, 100.0000000000000000 ) ;
#1239 = UNCERTAINTY_MEASURE_WITH_UNIT (LENGTH_MEASURE( 1.000000000000000082E-05 ), #1104, 'distance_accuracy_value', 'NONE');
#1240 = EDGE_CURVE ( 'NONE', #327, #1319, #326, .T. ) ;
#1241 = CIRCLE ( 'NONE', #352, 0.3500000000000003109 ) ;
#1242 = CIRCLE ( 'NONE', #1279, 0.2400000000000013234 ) ;
#1243 = DIRECTION ( 'NONE',  ( -1.000000000000000000, -0.000000000000000000, -0.000000000000000000 ) ) ;
#1244 = CYLINDRICAL_SURFACE ( 'NONE', #518, 0.1625000000000015321 ) ;
#1245 = VERTEX_POINT ( 'NONE', #954 ) ;
#1246 = PLANE ( 'NONE',  #373 ) ;
#1247 = EDGE_CURVE ( 'NONE', #1119, #66, #375, .T. ) ;
#1248 = CARTESIAN_POINT ( 'NONE',  ( 0.000000000000000000, 1.288549615436786810, 16.72450905858789127 ) ) ;
#1249 = DIRECTION ( 'NONE',  ( -1.000000000000000000, -0.000000000000000000, -0.000000000000000000 ) ) ;
#1250 = ORIENTED_EDGE ( 'NONE', *, *, #992, .F. ) ;
#1251 = ADVANCED_FACE ( 'NONE', ( #1033 ), #639, .F. ) ;
#1252 = DIRECTION ( 'NONE',  ( 1.000000000000000000, -0.000000000000000000, 0.000000000000000000 ) ) ;
#1253 = EDGE_CURVE ( 'NONE', #738, #1152, #526, .T. ) ;
#1254 = CIRCLE ( 'NONE', #782, 0.1625000000000015321 ) ;
#1255 = CARTESIAN_POINT ( 'NONE',  ( 0.000000000000000000, 1.048549615436786819, 16.96450905858789326 ) ) ;
#1256 = AXIS2_PLACEMENT_3D ( 'NONE', #952, #643, #660 ) ;
#1257 = ORIENTED_EDGE ( 'NONE', *, *, #190, .F. ) ;
#1258 = AXIS2_PLACEMENT_3D ( 'NONE', #387, #47, #790 ) ;
#1259 = CARTESIAN_POINT ( 'NONE',  ( 0.5975000000000001421, 4.019400000000003637, 13.99365867402467778 ) ) ;
#1260 = DIRECTION ( 'NONE',  ( 1.000000000000000000, 0.000000000000000000, 0.000000000000000000 ) ) ;
#1261 = ORIENTED_EDGE ( 'NONE', *, *, #819, .T. ) ;
#1262 = DIRECTION ( 'NONE',  ( 0.000000000000000000, 0.000000000000000000, 1.000000000000000000 ) ) ;
#1263 = ORIENTED_EDGE ( 'NONE', *, *, #630, .F. ) ;
#1264 = LINE ( 'NONE', #1090, #545 ) ;
#1265 = EDGE_CURVE ( 'NONE', #359, #961, #1091, .T. ) ;
#1266 = CARTESIAN_POINT ( 'NONE',  ( 1.037500000000000089, 1.619400000000004836, 16.14365867402467813 ) ) ;
#1267 = ORIENTED_EDGE ( 'NONE', *, *, #652, .T. ) ;
#1268 = CARTESIAN_POINT ( 'NONE',  ( 0.000000000000000000, 1.048549615436786819, 16.72450905858789127 ) ) ;
#1269 = FACE_OUTER_BOUND ( 'NONE', #234, .T. ) ;
#1270 = AXIS2_PLACEMENT_3D ( 'NONE', #871, #853, #986 ) ;
#1271 = ORIENTED_EDGE ( 'NONE', *, *, #959, .T. ) ;
#1272 = CARTESIAN_POINT ( 'NONE',  ( 0.3975000000000000200, 1.288549615436786810, 16.72450905858789127 ) ) ;
#1273 = CIRCLE ( 'NONE', #739, 0.2400000000000013234 ) ;
#1274 = CARTESIAN_POINT ( 'NONE',  ( 0.5975000000000000311, 4.019400000000004525, 16.39365867402467813 ) ) ;
#1275 = ORIENTED_EDGE ( 'NONE', *, *, #127, .T. ) ;
#1276 = EDGE_CURVE ( 'NONE', #237, #180, #1028, .T. ) ;
#1277 = CIRCLE ( 'NONE', #1299, 0.1624999999999987566 ) ;
#1278 = CARTESIAN_POINT ( 'NONE',  ( 0.5975000000000000311, 1.619400000000004836, 16.39365867402467813 ) ) ;
#1279 = AXIS2_PLACEMENT_3D ( 'NONE', #1069, #565, #338 ) ;
#1280 = FACE_OUTER_BOUND ( 'NONE', #1302, .T. ) ;
#1281 = EDGE_LOOP ( 'NONE', ( #512, #500 ) ) ;
#1282 = CARTESIAN_POINT ( 'NONE',  ( 0.4975000000000000533, 4.350250384563221218, 13.66280828946146109 ) ) ;
#1283 = VERTEX_POINT ( 'NONE', #975 ) ;
#1284 = EDGE_CURVE ( 'NONE', #1025, #1187, #437, .T. ) ;
#1285 = CARTESIAN_POINT ( 'NONE',  ( 0.000000000000000000, 1.619400000000005946, 13.83115867402467991 ) ) ;
#1286 = ORIENTED_EDGE ( 'NONE', *, *, #329, .T. ) ;
#1287 = DIRECTION ( 'NONE',  ( 0.000000000000000000, 0.000000000000000000, 1.000000000000000000 ) ) ;
#1288 = ORIENTED_EDGE ( 'NONE', *, *, #959, .F. ) ;
#1289 = EDGE_CURVE ( 'NONE', #66, #46, #989, .T. ) ;
#1290 = CARTESIAN_POINT ( 'NONE',  ( 0.000000000000000000, 1.619400000000004836, 16.55615867402467600 ) ) ;
#1291 = LINE ( 'NONE', #490, #919 ) ;
#1292 = ORIENTED_EDGE ( 'NONE', *, *, #1174, .T. ) ;
#1293 = DIRECTION ( 'NONE',  ( -0.000000000000000000, -1.469398677973023743E-16, 1.000000000000000000 ) ) ;
#1294 = AXIS2_PLACEMENT_3D ( 'NONE', #1057, #118, #447 ) ;
#1295 = DIRECTION ( 'NONE',  ( 1.000000000000000000, 0.000000000000000000, 0.000000000000000000 ) ) ;
#1296 = ORIENTED_EDGE ( 'NONE', *, *, #353, .F. ) ;
#1297 = AXIS2_PLACEMENT_3D ( 'NONE', #235, #133, #32 ) ;
#1298 = AXIS2_PLACEMENT_3D ( 'NONE', #475, #1314, #257 ) ;
#1299 = AXIS2_PLACEMENT_3D ( 'NONE', #886, #966, #982 ) ;
#1300 = DIRECTION ( 'NONE',  ( 1.000000000000000000, -0.000000000000000000, 0.000000000000000000 ) ) ;
#1301 = CARTESIAN_POINT ( 'NONE',  ( 1.037500000000000089, 4.019400000000003637, 13.99365867402467778 ) ) ;
#1302 = EDGE_LOOP ( 'NONE', ( #885, #607, #390, #107 ) ) ;
#1303 = CARTESIAN_POINT ( 'NONE',  ( 0.5975000000000001421, 1.619400000000004836, 16.64365867402467813 ) ) ;
#1304 = AXIS2_PLACEMENT_3D ( 'NONE', #138, #13, #444 ) ;
#1305 = ORIENTED_EDGE ( 'NONE', *, *, #971, .F. ) ;
#1306 = DIRECTION ( 'NONE',  ( -1.000000000000000000, 0.000000000000000000, 0.000000000000000000 ) ) ;
#1307 = DIRECTION ( 'NONE',  ( 0.000000000000000000, 0.000000000000000000, -1.000000000000000000 ) ) ;
#1308 = CARTESIAN_POINT ( 'NONE',  ( 1.037500000000000089, 4.019400000000003637, 13.99365867402467778 ) ) ;
#1309 = ORIENTED_EDGE ( 'NONE', *, *, #1001, .F. ) ;
#1310 = EDGE_CURVE ( 'NONE', #1245, #689, #308, .T. ) ;
#1311 = CYLINDRICAL_SURFACE ( 'NONE', #765, 0.2400000000000013234 ) ;
#1312 = ORIENTED_EDGE ( 'NONE', *, *, #1232, .T. ) ;
#1313 = EDGE_CURVE ( 'NONE', #1155, #52, #108, .T. ) ;
#1314 = DIRECTION ( 'NONE',  ( 1.000000000000000000, -0.000000000000000000, 0.000000000000000000 ) ) ;
#1315 = CYLINDRICAL_SURFACE ( 'NONE', #1160, 0.1624999999999987566 ) ;
#1316 = CARTESIAN_POINT ( 'NONE',  ( 1.037500000000000089, 1.619400000000004836, 16.39365867402467813 ) ) ;
#1317 = ORIENTED_EDGE ( 'NONE', *, *, #1081, .F. ) ;
#1318 = PLANE ( 'NONE',  #574 ) ;
#1319 = VERTEX_POINT ( 'NONE', #1266 ) ;
#1320 = EDGE_CURVE ( 'NONE', #52, #261, #1242, .T. ) ;
#1321 = CARTESIAN_POINT ( 'NONE',  ( 0.000000000000000000, 4.019400000000003637, 13.99365867402467778 ) ) ;
#1322 = AXIS2_PLACEMENT_3D ( 'NONE', #227, #868, #22 ) ;
#1323 = CARTESIAN_POINT ( 'NONE',  ( 1.037500000000000089, 1.619400000000005946, 14.24365867402467778 ) ) ;
#1324 =( GEOMETRIC_REPRESENTATION_CONTEXT ( 3 ) GLOBAL_UNCERTAINTY_ASSIGNED_CONTEXT ( ( #1239 ) ) GLOBAL_UNIT_ASSIGNED_CONTEXT ( ( #1104, #271, #265 ) ) REPRESENTATION_CONTEXT ( 'NONE', 'WORKASPACE' ) );
#1325 = AXIS2_PLACEMENT_3D ( 'NONE', #407, #1124, #934 ) ;
#1326 = CARTESIAN_POINT ( 'NONE',  ( 0.4975000000000000533, 1.619400000000005946, 13.99365867402467778 ) ) ;
#1327 = ORIENTED_EDGE ( 'NONE', *, *, #1352, .T. ) ;
#1328 = CARTESIAN_POINT ( 'NONE',  ( 0.3975000000000000200, 1.288549615436787255, 13.66280828946146109 ) ) ;
#1329 = DIRECTION ( 'NONE',  ( -1.000000000000000000, -0.000000000000000000, -0.000000000000000000 ) ) ;
#1330 = ADVANCED_FACE ( 'NONE', ( #551 ), #577, .F. ) ;
#1331 = ORIENTED_EDGE ( 'NONE', *, *, #226, .F. ) ;
#1332 = DIRECTION ( 'NONE',  ( -1.000000000000000000, 0.000000000000000000, 0.000000000000000000 ) ) ;
#1333 = ORIENTED_EDGE ( 'NONE', *, *, #448, .F. ) ;
#1334 = DIRECTION ( 'NONE',  ( 1.000000000000000000, 0.000000000000000000, 0.000000000000000000 ) ) ;
#1335 = DIRECTION ( 'NONE',  ( -0.000000000000000000, 1.000000000000000000, 0.000000000000000000 ) ) ;
#1336 = DIRECTION ( 'NONE',  ( 0.000000000000000000, 0.000000000000000000, 1.000000000000000000 ) ) ;
#1337 = ORIENTED_EDGE ( 'NONE', *, *, #802, .F. ) ;
#1338 = ADVANCED_FACE ( 'NONE', ( #751 ), #665, .T. ) ;
#1339 = ORIENTED_EDGE ( 'NONE', *, *, #946, .T. ) ;
#1340 = CYLINDRICAL_SURFACE ( 'NONE', #31, 0.2500000000000002220 ) ;
#1341 = AXIS2_PLACEMENT_3D ( 'NONE', #1079, #970, #1262 ) ;
#1342 = DIRECTION ( 'NONE',  ( 1.000000000000000000, -0.000000000000000000, 0.000000000000000000 ) ) ;
#1343 = VECTOR ( 'NONE', #522, 100.0000000000000000 ) ;
#1344 = AXIS2_PLACEMENT_3D ( 'NONE', #1086, #481, #901 ) ;
#1345 = ORIENTED_EDGE ( 'NONE', *, *, #165, .F. ) ;
#1346 = EDGE_CURVE ( 'NONE', #247, #1227, #771, .T. ) ;
#1347 = FACE_OUTER_BOUND ( 'NONE', #1112, .T. ) ;
#1348 = DIRECTION ( 'NONE',  ( -1.000000000000000000, 0.000000000000000000, -0.000000000000000000 ) ) ;
#1349 = ORIENTED_EDGE ( 'NONE', *, *, #1074, .F. ) ;
#1350 = EDGE_CURVE ( 'NONE', #295, #494, #789, .T. ) ;
#1351 = EDGE_LOOP ( 'NONE', ( #1199, #111 ) ) ;
#1352 = EDGE_CURVE ( 'NONE', #1085, #95, #34, .T. ) ;
#1353 = LINE ( 'NONE', #947, #213 ) ;
#1354 = DIRECTION ( 'NONE',  ( 0.000000000000000000, 0.000000000000000000, -1.000000000000000000 ) ) ;
#1355 = ORIENTED_EDGE ( 'NONE', *, *, #1036, .F. ) ;
ENDSEC;
END-ISO-10303-21;
