ISO-10303-21;
HEADER;
FILE_DESCRIPTION (( 'STEP AP214' ),
    '1' );
FILE_NAME ('Lid.STEP',
    '2026-09-08T14:04:27',
    ( '' ),
    ( '' ),
    'SwSTEP 2.0',
    'SolidWorks 2026',
    '' );
FILE_SCHEMA (( 'AUTOMOTIVE_DESIGN' ));
ENDSEC;

DATA;
#1 = AXIS2_PLACEMENT_3D ( 'NONE', #460, #741, #508 ) ;
#2 = ORIENTED_EDGE ( 'NONE', *, *, #172, .F. ) ;
#3 = CARTESIAN_POINT ( 'NONE',  ( 0.3175000000000000044, 9.999999999997399414, 14.62750000000859174 ) ) ;
#4 = EDGE_CURVE ( 'NONE', #457, #90, #490, .T. ) ;
#5 = DIRECTION ( 'NONE',  ( 0.000000000000000000, 0.000000000000000000, -1.000000000000000000 ) ) ;
#6 = DIRECTION ( 'NONE',  ( 0.000000000000000000, 0.000000000000000000, 1.000000000000000000 ) ) ;
#7 = PRESENTATION_STYLE_ASSIGNMENT (( #503 ) ) ;
#8 = ORIENTED_EDGE ( 'NONE', *, *, #504, .T. ) ;
#9 = FACE_OUTER_BOUND ( 'NONE', #29, .T. ) ;
#10 = DIRECTION ( 'NONE',  ( 0.000000000000000000, 0.000000000000000000, -1.000000000000000000 ) ) ;
#11 = FACE_OUTER_BOUND ( 'NONE', #44, .T. ) ;
#12 = LINE ( 'NONE', #184, #356 ) ;
#13 = ADVANCED_FACE ( 'NONE', ( #278 ), #173, .F. ) ;
#14 = VERTEX_POINT ( 'NONE', #771 ) ;
#15 = CARTESIAN_POINT ( 'NONE',  ( 0.3175000000000000044, 17.93750000000001066, -9.999999999997028155 ) ) ;
#16 = DIRECTION ( 'NONE',  ( 0.000000000000000000, 0.000000000000000000, -1.000000000000000000 ) ) ;
#17 = LINE ( 'NONE', #439, #732 ) ;
#18 = ORIENTED_EDGE ( 'NONE', *, *, #119, .T. ) ;
#19 = PLANE ( 'NONE',  #512 ) ;
#20 = EDGE_CURVE ( 'NONE', #271, #543, #483, .T. ) ;
#21 = CIRCLE ( 'NONE', #603, 0.3299999999999997380 ) ;
#22 = ORIENTED_EDGE ( 'NONE', *, *, #139, .T. ) ;
#23 = DIRECTION ( 'NONE',  ( 0.000000000000000000, -1.000000000000000000, -8.763996089554698406E-17 ) ) ;
#24 = ORIENTED_EDGE ( 'NONE', *, *, #539, .T. ) ;
#25 = DIRECTION ( 'NONE',  ( 0.000000000000000000, 0.000000000000000000, -1.000000000000000000 ) ) ;
#26 = EDGE_LOOP ( 'NONE', ( #24, #691 ) ) ;
#27 = EDGE_LOOP ( 'NONE', ( #66, #578 ) ) ;
#28 = CARTESIAN_POINT ( 'NONE',  ( 0.3175000000000000044, 9.999999999997399414, 14.62750000000859174 ) ) ;
#29 = EDGE_LOOP ( 'NONE', ( #18, #632, #739, #207 ) ) ;
#30 = AXIS2_PLACEMENT_3D ( 'NONE', #238, #729, #195 ) ;
#31 = DIRECTION ( 'NONE',  ( -1.000000000000000000, -0.000000000000000000, -0.000000000000000000 ) ) ;
#32 = ORIENTED_EDGE ( 'NONE', *, *, #20, .F. ) ;
#33 = DIRECTION ( 'NONE',  ( 1.000000000000000000, -0.000000000000000000, 0.000000000000000000 ) ) ;
#34 = EDGE_CURVE ( 'NONE', #422, #248, #35, .T. ) ;
#35 = LINE ( 'NONE', #323, #714 ) ;
#36 = EDGE_CURVE ( 'NONE', #14, #650, #371, .T. ) ;
#37 = DIRECTION ( 'NONE',  ( 0.000000000000000000, 0.000000000000000000, -1.000000000000000000 ) ) ;
#38 = DIRECTION ( 'NONE',  ( 0.000000000000000000, 0.000000000000000000, -1.000000000000000000 ) ) ;
#39 = DIRECTION ( 'NONE',  ( 1.000000000000000000, -0.000000000000000000, 0.000000000000000000 ) ) ;
#40 = DIRECTION ( 'NONE',  ( 0.000000000000000000, 0.000000000000000000, -1.000000000000000000 ) ) ;
#41 = CYLINDRICAL_SURFACE ( 'NONE', #764, 0.3300000000000039013 ) ;
#42 = ORIENTED_EDGE ( 'NONE', *, *, #4, .F. ) ;
#43 = LINE ( 'NONE', #347, #202 ) ;
#44 = EDGE_LOOP ( 'NONE', ( #325, #272, #440, #758 ) ) ;
#45 = ADVANCED_FACE ( 'NONE', ( #626 ), #136, .F. ) ;
#46 = CARTESIAN_POINT ( 'NONE',  ( 0.000000000000000000, 17.93750000000001066, -10.32999999999703178 ) ) ;
#47 = CARTESIAN_POINT ( 'NONE',  ( 0.000000000000000000, -17.93750000000521183, -9.669999999997024531 ) ) ;
#48 = LINE ( 'NONE', #761, #291 ) ;
#49 = DIRECTION ( 'NONE',  ( 0.000000000000000000, 0.000000000000000000, -1.000000000000000000 ) ) ;
#50 = CLOSED_SHELL ( 'NONE', ( #527, #267, #415, #301, #482, #236, #197, #562, #51, #338, #665, #13, #163, #421, #305, #55, #556, #389, #127, #45, #398, #226 ) ) ;
#51 = ADVANCED_FACE ( 'NONE', ( #738 ), #141, .F. ) ;
#52 = VECTOR ( 'NONE', #401, 100.0000000000000000 ) ;
#53 = LINE ( 'NONE', #474, #312 ) ;
#54 = DIRECTION ( 'NONE',  ( 0.000000000000000000, 0.000000000000000000, -1.000000000000000000 ) ) ;
#55 = ADVANCED_FACE ( 'NONE', ( #288 ), #591, .F. ) ;
#56 = VERTEX_POINT ( 'NONE', #541 ) ;
#57 = DIRECTION ( 'NONE',  ( 0.000000000000000000, -1.000000000000000000, 0.000000000000000000 ) ) ;
#58 = VECTOR ( 'NONE', #103, 100.0000000000000000 ) ;
#59 = FACE_OUTER_BOUND ( 'NONE', #618, .T. ) ;
#60 = AXIS2_PLACEMENT_3D ( 'NONE', #270, #581, #38 ) ;
#61 = ORIENTED_EDGE ( 'NONE', *, *, #546, .T. ) ;
#62 = FACE_BOUND ( 'NONE', #725, .T. ) ;
#63 = CARTESIAN_POINT ( 'NONE',  ( 0.3175000000000000044, 9.999999999997399414, 14.62750000000859174 ) ) ;
#64 = SURFACE_SIDE_STYLE ('',( #552 ) ) ;
#65 = AXIS2_PLACEMENT_3D ( 'NONE', #661, #115, #424 ) ;
#66 = ORIENTED_EDGE ( 'NONE', *, *, #447, .T. ) ;
#67 = LINE ( 'NONE', #186, #611 ) ;
#68 = DIRECTION ( 'NONE',  ( 0.000000000000000000, 0.000000000000000000, -1.000000000000000000 ) ) ;
#69 = FILL_AREA_STYLE ('',( #625 ) ) ;
#70 = ORIENTED_EDGE ( 'NONE', *, *, #109, .T. ) ;
#71 = LINE ( 'NONE', #669, #268 ) ;
#72 = FACE_BOUND ( 'NONE', #229, .T. ) ;
#73 = VECTOR ( 'NONE', #529, 100.0000000000000000 ) ;
#74 = VERTEX_POINT ( 'NONE', #284 ) ;
#75 = DIRECTION ( 'NONE',  ( 0.000000000000000000, 0.000000000000000000, -1.000000000000000000 ) ) ;
#76 = EDGE_CURVE ( 'NONE', #247, #271, #232, .T. ) ;
#77 = LINE ( 'NONE', #444, #170 ) ;
#78 = PLANE ( 'NONE',  #130 ) ;
#79 = ORIENTED_EDGE ( 'NONE', *, *, #699, .T. ) ;
#80 = VECTOR ( 'NONE', #57, 100.0000000000000000 ) ;
#81 = CARTESIAN_POINT ( 'NONE',  ( 0.000000000000000000, -10.00000000000260236, -14.62750000000264095 ) ) ;
#82 = EDGE_CURVE ( 'NONE', #265, #564, #53, .T. ) ;
#83 = ORIENTED_EDGE ( 'NONE', *, *, #572, .T. ) ;
#84 = ORIENTED_EDGE ( 'NONE', *, *, #479, .F. ) ;
#85 = LINE ( 'NONE', #757, #58 ) ;
#86 = ORIENTED_EDGE ( 'NONE', *, *, #468, .F. ) ;
#87 = APPLICATION_PROTOCOL_DEFINITION ( 'draft international standard', 'automotive_design', 1998, #598 ) ;
#88 = EDGE_CURVE ( 'NONE', #534, #56, #21, .T. ) ;
#89 = VERTEX_POINT ( 'NONE', #341 ) ;
#90 = VERTEX_POINT ( 'NONE', #702 ) ;
#91 = CARTESIAN_POINT ( 'NONE',  ( 0.3175000000000000044, 9.999999999997404743, -14.29750000000264087 ) ) ;
#92 = DIRECTION ( 'NONE',  ( 1.000000000000000000, -0.000000000000000000, 0.000000000000000000 ) ) ;
#93 = VECTOR ( 'NONE', #368, 100.0000000000000000 ) ;
#94 = CARTESIAN_POINT ( 'NONE',  ( 0.000000000000000000, 19.14500000000001734, 15.83500000000783992 ) ) ;
#95 = EDGE_LOOP ( 'NONE', ( #456, #83, #213, #112 ) ) ;
#96 = CIRCLE ( 'NONE', #542, 0.3300000000000025135 ) ;
#97 = LINE ( 'NONE', #535, #585 ) ;
#98 = DIRECTION ( 'NONE',  ( 0.000000000000000000, 0.000000000000000000, 1.000000000000000000 ) ) ;
#99 = ORIENTED_EDGE ( 'NONE', *, *, #222, .T. ) ;
#100 = CARTESIAN_POINT ( 'NONE',  ( 0.3175000000000000044, 9.999999999997399414, 14.62750000000859174 ) ) ;
#101 = DIRECTION ( 'NONE',  ( 1.000000000000000000, -0.000000000000000000, 0.000000000000000000 ) ) ;
#102 = EDGE_CURVE ( 'NONE', #718, #247, #97, .T. ) ;
#103 = DIRECTION ( 'NONE',  ( -1.000000000000000000, -0.000000000000000000, -0.000000000000000000 ) ) ;
#104 = DIRECTION ( 'NONE',  ( 1.000000000000000000, -0.000000000000000000, 0.000000000000000000 ) ) ;
#105 = CIRCLE ( 'NONE', #746, 0.3300000000000039013 ) ;
#106 = FACE_OUTER_BOUND ( 'NONE', #609, .T. ) ;
#107 = AXIS2_PLACEMENT_3D ( 'NONE', #477, #416, #540 ) ;
#108 = CIRCLE ( 'NONE', #372, 0.3300000000000039013 ) ;
#109 = EDGE_CURVE ( 'NONE', #158, #344, #174, .T. ) ;
#110 = CARTESIAN_POINT ( 'NONE',  ( 0.000000000000000000, 9.999999999997404743, -14.62750000000264095 ) ) ;
#111 = VECTOR ( 'NONE', #560, 100.0000000000000000 ) ;
#112 = ORIENTED_EDGE ( 'NONE', *, *, #379, .F. ) ;
#113 = DIRECTION ( 'NONE',  ( -1.000000000000000000, -0.000000000000000000, -0.000000000000000000 ) ) ;
#114 = CIRCLE ( 'NONE', #567, 0.3300000000000025135 ) ;
#115 = DIRECTION ( 'NONE',  ( -1.000000000000000000, -0.000000000000000000, -0.000000000000000000 ) ) ;
#116 = ORIENTED_EDGE ( 'NONE', *, *, #147, .T. ) ;
#117 = CARTESIAN_POINT ( 'NONE',  ( 0.3175000000000000044, 0.000000000000000000, 0.000000000000000000 ) ) ;
#118 = AXIS2_PLACEMENT_3D ( 'NONE', #478, #713, #10 ) ;
#119 = EDGE_CURVE ( 'NONE', #121, #707, #108, .T. ) ;
#120 = LINE ( 'NONE', #486, #93 ) ;
#121 = VERTEX_POINT ( 'NONE', #351 ) ;
#122 = FACE_OUTER_BOUND ( 'NONE', #180, .T. ) ;
#123 = EDGE_LOOP ( 'NONE', ( #590, #153, #185, #681 ) ) ;
#124 = CARTESIAN_POINT ( 'NONE',  ( 0.000000000000000000, -10.00000000000260769, 14.29750000000858456 ) ) ;
#125 = AXIS2_PLACEMENT_3D ( 'NONE', #181, #190, #614 ) ;
#126 = DIRECTION ( 'NONE',  ( 1.000000000000000000, -0.000000000000000000, 0.000000000000000000 ) ) ;
#127 = ADVANCED_FACE ( 'NONE', ( #712 ), #765, .F. ) ;
#128 = EDGE_LOOP ( 'NONE', ( #777, #454 ) ) ;
#129 = CARTESIAN_POINT ( 'NONE',  ( 0.3175000000000000044, -17.93750000000521183, 10.33000000000297725 ) ) ;
#130 = AXIS2_PLACEMENT_3D ( 'NONE', #563, #612, #314 ) ;
#131 = LINE ( 'NONE', #137, #526 ) ;
#132 = AXIS2_PLACEMENT_3D ( 'NONE', #736, #33, #40 ) ;
#133 = ORIENTED_EDGE ( 'NONE', *, *, #620, .F. ) ;
#134 = EDGE_CURVE ( 'NONE', #56, #534, #554, .T. ) ;
#135 = FACE_BOUND ( 'NONE', #214, .T. ) ;
#136 = PLANE ( 'NONE',  #480 ) ;
#137 = CARTESIAN_POINT ( 'NONE',  ( 0.3175000000000000044, -10.00000000000260236, -14.95750000000264279 ) ) ;
#138 = DIRECTION ( 'NONE',  ( 0.000000000000000000, 0.000000000000000000, -1.000000000000000000 ) ) ;
#139 = EDGE_CURVE ( 'NONE', #149, #265, #524, .T. ) ;
#140 = FACE_OUTER_BOUND ( 'NONE', #507, .T. ) ;
#141 = PLANE ( 'NONE',  #692 ) ;
#142 = DIRECTION ( 'NONE',  ( 0.000000000000000000, 0.000000000000000000, -1.000000000000000000 ) ) ;
#143 = VERTEX_POINT ( 'NONE', #46 ) ;
#144 = DIRECTION ( 'NONE',  ( 0.000000000000000000, 0.000000000000000000, -1.000000000000000000 ) ) ;
#145 = DIRECTION ( 'NONE',  ( -1.000000000000000000, 0.000000000000000000, -0.000000000000000000 ) ) ;
#146 = ORIENTED_EDGE ( 'NONE', *, *, #354, .T. ) ;
#147 = EDGE_CURVE ( 'NONE', #583, #56, #295, .T. ) ;
#148 = AXIS2_PLACEMENT_3D ( 'NONE', #473, #39, #412 ) ;
#149 = VERTEX_POINT ( 'NONE', #162 ) ;
#150 = CARTESIAN_POINT ( 'NONE',  ( 0.3175000000000000044, 17.93750000000001066, -9.999999999997028155 ) ) ;
#151 = AXIS2_PLACEMENT_3D ( 'NONE', #602, #313, #557 ) ;
#152 = DIRECTION ( 'NONE',  ( -1.000000000000000000, -0.000000000000000000, -0.000000000000000000 ) ) ;
#153 = ORIENTED_EDGE ( 'NONE', *, *, #36, .T. ) ;
#154 = VECTOR ( 'NONE', #152, 100.0000000000000000 ) ;
#155 = DIRECTION ( 'NONE',  ( 0.000000000000000000, 0.000000000000000000, -1.000000000000000000 ) ) ;
#156 = EDGE_LOOP ( 'NONE', ( #237, #330, #671, #639 ) ) ;
#157 = CARTESIAN_POINT ( 'NONE',  ( 0.3175000000000000044, 9.999999999997399414, 14.29750000000858989 ) ) ;
#158 = VERTEX_POINT ( 'NONE', #230 ) ;
#159 = COLOUR_RGB ( '',0.7921568627450980005, 0.8196078431372548767, 0.9333333333333333481 ) ;
#160 = PRESENTATION_LAYER_ASSIGNMENT (  '', '', ( #600 ) ) ;
#161 = ORIENTED_EDGE ( 'NONE', *, *, #679, .F. ) ;
#162 = CARTESIAN_POINT ( 'NONE',  ( 0.3175000000000000044, -17.93750000000521183, -10.32999999999703178 ) ) ;
#163 = ADVANCED_FACE ( 'NONE', ( #651 ), #345, .F. ) ;
#164 = PRODUCT ( 'Lid', 'Lid', '', ( #329 ) ) ;
#165 = CIRCLE ( 'NONE', #604, 0.3300000000000025135 ) ;
#166 = DIRECTION ( 'NONE',  ( 0.000000000000000000, 0.000000000000000000, -1.000000000000000000 ) ) ;
#167 = CIRCLE ( 'NONE', #231, 0.3300000000000039013 ) ;
#168 = ORIENTED_EDGE ( 'NONE', *, *, #429, .T. ) ;
#169 = DIRECTION ( 'NONE',  ( 0.000000000000000000, 0.000000000000000000, 1.000000000000000000 ) ) ;
#170 = VECTOR ( 'NONE', #196, 100.0000000000000000 ) ;
#171 = AXIS2_PLACEMENT_3D ( 'NONE', #117, #731, #311 ) ;
#172 = EDGE_CURVE ( 'NONE', #422, #158, #96, .T. ) ;
#173 = CYLINDRICAL_SURFACE ( 'NONE', #107, 0.3300000000000025135 ) ;
#174 = LINE ( 'NONE', #157, #458 ) ;
#175 = VECTOR ( 'NONE', #399, 100.0000000000000000 ) ;
#176 = DIRECTION ( 'NONE',  ( 1.000000000000000000, -0.000000000000000000, 0.000000000000000000 ) ) ;
#177 = ORIENTED_EDGE ( 'NONE', *, *, #638, .T. ) ;
#178 = CYLINDRICAL_SURFACE ( 'NONE', #65, 0.3300000000000039013 ) ;
#179 = CYLINDRICAL_SURFACE ( 'NONE', #768, 0.3300000000000025135 ) ;
#180 = EDGE_LOOP ( 'NONE', ( #302, #70, #574, #359 ) ) ;
#181 = CARTESIAN_POINT ( 'NONE',  ( 0.000000000000000000, 17.93750000000001421, 10.00000000000297362 ) ) ;
#182 = AXIS2_PLACEMENT_3D ( 'NONE', #343, #634, #531 ) ;
#183 = DIRECTION ( 'NONE',  ( 0.000000000000000000, 1.000000000000000000, 0.000000000000000000 ) ) ;
#184 = CARTESIAN_POINT ( 'NONE',  ( 0.3175000000000000044, -19.14500000000561286, 0.000000000000000000 ) ) ;
#185 = ORIENTED_EDGE ( 'NONE', *, *, #655, .T. ) ;
#186 = CARTESIAN_POINT ( 'NONE',  ( 0.3175000000000000044, -17.93750000000521183, 9.670000000002969998 ) ) ;
#187 = AXIS2_PLACEMENT_3D ( 'NONE', #296, #656, #413 ) ;
#188 = CARTESIAN_POINT ( 'NONE',  ( 0.3175000000000000044, -17.93750000000521183, 9.670000000002969998 ) ) ;
#189 = ORIENTED_EDGE ( 'NONE', *, *, #476, .F. ) ;
#190 = DIRECTION ( 'NONE',  ( 1.000000000000000000, -0.000000000000000000, 0.000000000000000000 ) ) ;
#191 = DIRECTION ( 'NONE',  ( 0.000000000000000000, 0.000000000000000000, -1.000000000000000000 ) ) ;
#192 = UNCERTAINTY_MEASURE_WITH_UNIT (LENGTH_MEASURE( 1.000000000000000082E-05 ), #635, 'distance_accuracy_value', 'NONE');
#193 = EDGE_CURVE ( 'NONE', #696, #718, #43, .T. ) ;
#194 = ORIENTED_EDGE ( 'NONE', *, *, #274, .F. ) ;
#195 = DIRECTION ( 'NONE',  ( 0.000000000000000000, 0.000000000000000000, 1.000000000000000000 ) ) ;
#196 = DIRECTION ( 'NONE',  ( -1.000000000000000000, -0.000000000000000000, -0.000000000000000000 ) ) ;
#197 = ADVANCED_FACE ( 'NONE', ( #106 ), #350, .F. ) ;
#198 = ORIENTED_EDGE ( 'NONE', *, *, #233, .F. ) ;
#199 = DIRECTION ( 'NONE',  ( -1.000000000000000000, -0.000000000000000000, -0.000000000000000000 ) ) ;
#200 = DIRECTION ( 'NONE',  ( 0.000000000000000000, -0.000000000000000000, 1.000000000000000000 ) ) ;
#201 = CIRCLE ( 'NONE', #290, 0.3300000000000025135 ) ;
#202 = VECTOR ( 'NONE', #594, 100.0000000000000000 ) ;
#203 = VERTEX_POINT ( 'NONE', #234 ) ;
#204 = CARTESIAN_POINT ( 'NONE',  ( 0.3175000000000000044, -19.14500000000561286, 0.000000000000000000 ) ) ;
#205 = CIRCLE ( 'NONE', #393, 0.3300000000000039013 ) ;
#206 = CARTESIAN_POINT ( 'NONE',  ( 0.000000000000000000, 0.000000000000000000, 0.000000000000000000 ) ) ;
#207 = ORIENTED_EDGE ( 'NONE', *, *, #459, .F. ) ;
#208 = CARTESIAN_POINT ( 'NONE',  ( 0.000000000000000000, 9.999999999997404743, -14.29750000000264087 ) ) ;
#209 = CARTESIAN_POINT ( 'NONE',  ( 0.000000000000000000, 0.000000000000000000, 0.000000000000000000 ) ) ;
#210 = ORIENTED_EDGE ( 'NONE', *, *, #324, .T. ) ;
#211 = DIRECTION ( 'NONE',  ( 1.000000000000000000, 0.000000000000000000, 0.000000000000000000 ) ) ;
#212 = CIRCLE ( 'NONE', #182, 0.3300000000000025135 ) ;
#213 = ORIENTED_EDGE ( 'NONE', *, *, #34, .T. ) ;
#214 = EDGE_LOOP ( 'NONE', ( #517, #210 ) ) ;
#215 = PRODUCT_DEFINITION_FORMATION_WITH_SPECIFIED_SOURCE ( 'ANY', '', #164, .NOT_KNOWN. ) ;
#216 = CARTESIAN_POINT ( 'NONE',  ( 0.000000000000000000, -17.93750000000521183, -10.32999999999703178 ) ) ;
#217 = ORIENTED_EDGE ( 'NONE', *, *, #504, .F. ) ;
#218 = ORIENTED_EDGE ( 'NONE', *, *, #533, .F. ) ;
#219 = LINE ( 'NONE', #465, #175 ) ;
#220 = DIRECTION ( 'NONE',  ( 1.000000000000000000, -0.000000000000000000, 0.000000000000000000 ) ) ;
#221 = PRODUCT_DEFINITION_CONTEXT ( 'detailed design', #666, 'design' ) ;
#222 = EDGE_CURVE ( 'NONE', #426, #89, #648, .T. ) ;
#223 = CARTESIAN_POINT ( 'NONE',  ( 0.000000000000000000, -19.14500000000561286, -15.83500000000264052 ) ) ;
#224 = EDGE_LOOP ( 'NONE', ( #715, #352 ) ) ;
#225 = ORIENTED_EDGE ( 'NONE', *, *, #324, .F. ) ;
#226 = ADVANCED_FACE ( 'NONE', ( #135, #365, #615, #72, #449, #378, #321, #497, #140 ), #384, .F. ) ;
#227 = VERTEX_POINT ( 'NONE', #387 ) ;
#228 = CARTESIAN_POINT ( 'NONE',  ( 0.000000000000000000, 0.000000000000000000, 15.83500000000783992 ) ) ;
#229 = EDGE_LOOP ( 'NONE', ( #99, #704 ) ) ;
#230 = CARTESIAN_POINT ( 'NONE',  ( 0.3175000000000000044, 9.999999999997399414, 14.29750000000858989 ) ) ;
#231 = AXIS2_PLACEMENT_3D ( 'NONE', #455, #355, #68 ) ;
#232 = LINE ( 'NONE', #228, #73 ) ;
#233 = EDGE_CURVE ( 'NONE', #298, #271, #85, .T. ) ;
#234 = CARTESIAN_POINT ( 'NONE',  ( 0.000000000000000000, 17.93750000000001066, -9.669999999997024531 ) ) ;
#235 = CARTESIAN_POINT ( 'NONE',  ( 0.3175000000000000044, 17.93750000000001421, 10.00000000000297362 ) ) ;
#236 = ADVANCED_FACE ( 'NONE', ( #575 ), #41, .F. ) ;
#237 = ORIENTED_EDGE ( 'NONE', *, *, #260, .T. ) ;
#238 = CARTESIAN_POINT ( 'NONE',  ( 0.3175000000000000044, 17.93750000000001421, 10.00000000000297362 ) ) ;
#239 = ORIENTED_EDGE ( 'NONE', *, *, #260, .F. ) ;
#240 = CYLINDRICAL_SURFACE ( 'NONE', #262, 0.3300000000000039013 ) ;
#241 = EDGE_CURVE ( 'NONE', #327, #543, #48, .T. ) ;
#242 = DIRECTION ( 'NONE',  ( -1.000000000000000000, -0.000000000000000000, -0.000000000000000000 ) ) ;
#243 = ORIENTED_EDGE ( 'NONE', *, *, #396, .F. ) ;
#244 = FACE_BOUND ( 'NONE', #128, .T. ) ;
#245 = AXIS2_PLACEMENT_3D ( 'NONE', #698, #220, #142 ) ;
#246 = EDGE_CURVE ( 'NONE', #710, #269, #409, .T. ) ;
#247 = VERTEX_POINT ( 'NONE', #94 ) ;
#248 = VERTEX_POINT ( 'NONE', #277 ) ;
#249 = CYLINDRICAL_SURFACE ( 'NONE', #513, 0.3300000000000025135 ) ;
#250 = EDGE_CURVE ( 'NONE', #491, #762, #165, .T. ) ;
#251 = DIRECTION ( 'NONE',  ( 0.000000000000000000, 0.000000000000000000, -1.000000000000000000 ) ) ;
#252 = EDGE_LOOP ( 'NONE', ( #287, #306 ) ) ;
#253 = CARTESIAN_POINT ( 'NONE',  ( 0.3175000000000000044, -10.00000000000260769, 14.29750000000858456 ) ) ;
#254 = DIRECTION ( 'NONE',  ( 0.000000000000000000, 0.000000000000000000, -1.000000000000000000 ) ) ;
#255 = CIRCLE ( 'NONE', #385, 0.3300000000000039013 ) ;
#256 = DIRECTION ( 'NONE',  ( -1.000000000000000000, -0.000000000000000000, -0.000000000000000000 ) ) ;
#257 = MECHANICAL_DESIGN_GEOMETRIC_PRESENTATION_REPRESENTATION (  '', ( #600 ), #506 ) ;
#258 = DIRECTION ( 'NONE',  ( 0.000000000000000000, 0.000000000000000000, -1.000000000000000000 ) ) ;
#259 = AXIS2_PLACEMENT_3D ( 'NONE', #417, #708, #54 ) ;
#260 = EDGE_CURVE ( 'NONE', #543, #718, #282, .T. ) ;
#261 = ORIENTED_EDGE ( 'NONE', *, *, #546, .F. ) ;
#262 = AXIS2_PLACEMENT_3D ( 'NONE', #15, #199, #548 ) ;
#263 = ORIENTED_EDGE ( 'NONE', *, *, #770, .T. ) ;
#264 = ORIENTED_EDGE ( 'NONE', *, *, #102, .T. ) ;
#265 = VERTEX_POINT ( 'NONE', #340 ) ;
#266 = DIRECTION ( 'NONE',  ( 1.000000000000000000, -0.000000000000000000, 0.000000000000000000 ) ) ;
#267 = ADVANCED_FACE ( 'NONE', ( #706 ), #593, .F. ) ;
#268 = VECTOR ( 'NONE', #113, 100.0000000000000000 ) ;
#269 = VERTEX_POINT ( 'NONE', #589 ) ;
#270 = CARTESIAN_POINT ( 'NONE',  ( 0.3175000000000000044, -17.93750000000521183, 10.00000000000297362 ) ) ;
#271 = VERTEX_POINT ( 'NONE', #286 ) ;
#272 = ORIENTED_EDGE ( 'NONE', *, *, #476, .T. ) ;
#273 =( GEOMETRIC_REPRESENTATION_CONTEXT ( 3 ) GLOBAL_UNCERTAINTY_ASSIGNED_CONTEXT ( ( #192 ) ) GLOBAL_UNIT_ASSIGNED_CONTEXT ( ( #635, #406, #334 ) ) REPRESENTATION_CONTEXT ( 'NONE', 'WORKASPACE' ) );
#274 = EDGE_CURVE ( 'NONE', #269, #710, #167, .T. ) ;
#275 = DIRECTION ( 'NONE',  ( 0.000000000000000000, 0.000000000000000000, 1.000000000000000000 ) ) ;
#276 = VECTOR ( 'NONE', #627, 100.0000000000000000 ) ;
#277 = CARTESIAN_POINT ( 'NONE',  ( 0.000000000000000000, 9.999999999997399414, 14.95750000000859359 ) ) ;
#278 = FACE_OUTER_BOUND ( 'NONE', #558, .T. ) ;
#279 = ORIENTED_EDGE ( 'NONE', *, *, #20, .T. ) ;
#280 = EDGE_CURVE ( 'NONE', #327, #696, #673, .T. ) ;
#281 = AXIS2_PLACEMENT_3D ( 'NONE', #407, #516, #98 ) ;
#282 = LINE ( 'NONE', #528, #52 ) ;
#283 = EDGE_LOOP ( 'NONE', ( #261, #218 ) ) ;
#284 = CARTESIAN_POINT ( 'NONE',  ( 0.000000000000000000, -10.00000000000260236, -14.29750000000263910 ) ) ;
#285 = VERTEX_POINT ( 'NONE', #779 ) ;
#286 = CARTESIAN_POINT ( 'NONE',  ( 0.000000000000000000, -19.14500000000561286, 15.83500000000783992 ) ) ;
#287 = ORIENTED_EDGE ( 'NONE', *, *, #292, .T. ) ;
#288 = FACE_OUTER_BOUND ( 'NONE', #549, .T. ) ;
#289 = DIRECTION ( 'NONE',  ( 0.000000000000000000, 0.000000000000000000, 1.000000000000000000 ) ) ;
#290 = AXIS2_PLACEMENT_3D ( 'NONE', #685, #617, #138 ) ;
#291 = VECTOR ( 'NONE', #747, 100.0000000000000000 ) ;
#292 = EDGE_CURVE ( 'NONE', #203, #143, #205, .T. ) ;
#293 = DIRECTION ( 'NONE',  ( 0.000000000000000000, 0.000000000000000000, -1.000000000000000000 ) ) ;
#294 = VECTOR ( 'NONE', #183, 100.0000000000000000 ) ;
#295 = LINE ( 'NONE', #414, #427 ) ;
#296 = CARTESIAN_POINT ( 'NONE',  ( 0.3175000000000000044, 9.999999999997404743, -14.62750000000264095 ) ) ;
#297 = AXIS2_PLACEMENT_3D ( 'NONE', #318, #304, #545 ) ;
#298 = VERTEX_POINT ( 'NONE', #367 ) ;
#299 = DIRECTION ( 'NONE',  ( 0.000000000000000000, 0.000000000000000000, -1.000000000000000000 ) ) ;
#300 = AXIS2_PLACEMENT_3D ( 'NONE', #596, #537, #766 ) ;
#301 = ADVANCED_FACE ( 'NONE', ( #59 ), #616, .F. ) ;
#302 = ORIENTED_EDGE ( 'NONE', *, *, #172, .T. ) ;
#303 = DIRECTION ( 'NONE',  ( -1.000000000000000000, -0.000000000000000000, -0.000000000000000000 ) ) ;
#304 = DIRECTION ( 'NONE',  ( 1.000000000000000000, -0.000000000000000000, 0.000000000000000000 ) ) ;
#305 = ADVANCED_FACE ( 'NONE', ( #11 ), #178, .F. ) ;
#306 = ORIENTED_EDGE ( 'NONE', *, *, #743, .T. ) ;
#307 = LINE ( 'NONE', #129, #501 ) ;
#308 = CARTESIAN_POINT ( 'NONE',  ( 0.3175000000000000044, 0.000000000000000000, -15.83500000000264052 ) ) ;
#309 =( NAMED_UNIT ( * ) PLANE_ANGLE_UNIT ( ) SI_UNIT ( $, .RADIAN. ) );
#310 = ORIENTED_EDGE ( 'NONE', *, *, #655, .F. ) ;
#311 = DIRECTION ( 'NONE',  ( 0.000000000000000000, 0.000000000000000000, -1.000000000000000000 ) ) ;
#312 = VECTOR ( 'NONE', #536, 100.0000000000000000 ) ;
#313 = DIRECTION ( 'NONE',  ( -1.000000000000000000, -0.000000000000000000, -0.000000000000000000 ) ) ;
#314 = DIRECTION ( 'NONE',  ( 1.000000000000000000, 0.000000000000000000, -0.000000000000000000 ) ) ;
#315 = ORIENTED_EDGE ( 'NONE', *, *, #193, .T. ) ;
#316 = DIRECTION ( 'NONE',  ( 1.000000000000000000, -0.000000000000000000, 0.000000000000000000 ) ) ;
#317 = CARTESIAN_POINT ( 'NONE',  ( 0.3175000000000000044, 17.93750000000001421, 9.670000000002969998 ) ) ;
#318 = CARTESIAN_POINT ( 'NONE',  ( 0.000000000000000000, -17.93750000000521183, -9.999999999997028155 ) ) ;
#319 = ORIENTED_EDGE ( 'NONE', *, *, #620, .T. ) ;
#320 = FACE_OUTER_BOUND ( 'NONE', #576, .T. ) ;
#321 = FACE_BOUND ( 'NONE', #647, .T. ) ;
#322 = DIRECTION ( 'NONE',  ( 1.000000000000000000, -0.000000000000000000, 0.000000000000000000 ) ) ;
#323 = CARTESIAN_POINT ( 'NONE',  ( 0.3175000000000000044, 9.999999999997399414, 14.95750000000859359 ) ) ;
#324 = EDGE_CURVE ( 'NONE', #523, #564, #608, .T. ) ;
#325 = ORIENTED_EDGE ( 'NONE', *, *, #362, .F. ) ;
#326 = DIRECTION ( 'NONE',  ( 1.000000000000000000, -0.000000000000000000, 0.000000000000000000 ) ) ;
#327 = VERTEX_POINT ( 'NONE', #733 ) ;
#328 = ORIENTED_EDGE ( 'NONE', *, *, #76, .F. ) ;
#329 = PRODUCT_CONTEXT ( 'NONE', #598, 'mechanical' ) ;
#330 = ORIENTED_EDGE ( 'NONE', *, *, #193, .F. ) ;
#331 = ORIENTED_EDGE ( 'NONE', *, *, #246, .T. ) ;
#332 = EDGE_CURVE ( 'NONE', #623, #587, #131, .T. ) ;
#333 = ORIENTED_EDGE ( 'NONE', *, *, #670, .T. ) ;
#334 =( NAMED_UNIT ( * ) SI_UNIT ( $, .STERADIAN. ) SOLID_ANGLE_UNIT ( ) );
#335 = AXIS2_PLACEMENT_3D ( 'NONE', #695, #515, #37 ) ;
#336 = CIRCLE ( 'NONE', #592, 0.3300000000000039013 ) ;
#337 = ORIENTED_EDGE ( 'NONE', *, *, #622, .F. ) ;
#338 = ADVANCED_FACE ( 'NONE', ( #680 ), #19, .F. ) ;
#339 = CARTESIAN_POINT ( 'NONE',  ( 0.3175000000000000044, -10.00000000000260236, -14.29750000000263910 ) ) ;
#340 = CARTESIAN_POINT ( 'NONE',  ( 0.3175000000000000044, -17.93750000000521183, -9.669999999997024531 ) ) ;
#341 = CARTESIAN_POINT ( 'NONE',  ( 0.000000000000000000, -17.93750000000521183, 9.670000000002969998 ) ) ;
#342 = ORIENTED_EDGE ( 'NONE', *, *, #479, .T. ) ;
#343 = CARTESIAN_POINT ( 'NONE',  ( 0.000000000000000000, -10.00000000000260236, -14.62750000000264095 ) ) ;
#344 = VERTEX_POINT ( 'NONE', #374 ) ;
#345 = CYLINDRICAL_SURFACE ( 'NONE', #187, 0.3299999999999997380 ) ;
#346 = CARTESIAN_POINT ( 'NONE',  ( 0.3175000000000000044, -10.00000000000260769, 14.62750000000858641 ) ) ;
#347 = CARTESIAN_POINT ( 'NONE',  ( 0.3175000000000000044, 19.14500000000002089, -15.83500000000264052 ) ) ;
#348 = CARTESIAN_POINT ( 'NONE',  ( 0.3175000000000000044, -10.00000000000260769, 14.62750000000858641 ) ) ;
#349 = VECTOR ( 'NONE', #684, 100.0000000000000000 ) ;
#350 = CYLINDRICAL_SURFACE ( 'NONE', #300, 0.3299999999999997380 ) ;
#351 = CARTESIAN_POINT ( 'NONE',  ( 0.3175000000000000044, 17.93750000000001421, 10.33000000000297725 ) ) ;
#352 = ORIENTED_EDGE ( 'NONE', *, *, #139, .F. ) ;
#353 = DIRECTION ( 'NONE',  ( 0.000000000000000000, 0.000000000000000000, -1.000000000000000000 ) ) ;
#354 = EDGE_CURVE ( 'NONE', #149, #523, #77, .T. ) ;
#355 = DIRECTION ( 'NONE',  ( 1.000000000000000000, -0.000000000000000000, 0.000000000000000000 ) ) ;
#356 = VECTOR ( 'NONE', #251, 100.0000000000000000 ) ;
#357 = EDGE_LOOP ( 'NONE', ( #495, #520 ) ) ;
#358 = FACE_BOUND ( 'NONE', #357, .T. ) ;
#359 = ORIENTED_EDGE ( 'NONE', *, *, #34, .F. ) ;
#360 = FACE_BOUND ( 'NONE', #451, .T. ) ;
#361 = FACE_OUTER_BOUND ( 'NONE', #156, .T. ) ;
#362 = EDGE_CURVE ( 'NONE', #707, #227, #624, .T. ) ;
#363 = ORIENTED_EDGE ( 'NONE', *, *, #429, .F. ) ;
#364 = DIRECTION ( 'NONE',  ( -1.000000000000000000, -0.000000000000000000, -0.000000000000000000 ) ) ;
#365 = FACE_BOUND ( 'NONE', #701, .T. ) ;
#366 = CIRCLE ( 'NONE', #436, 0.3300000000000039013 ) ;
#367 = CARTESIAN_POINT ( 'NONE',  ( 0.3175000000000000044, -19.14500000000561286, 15.83500000000783992 ) ) ;
#368 = DIRECTION ( 'NONE',  ( -1.000000000000000000, -0.000000000000000000, -0.000000000000000000 ) ) ;
#369 = ORIENTED_EDGE ( 'NONE', *, *, #292, .F. ) ;
#370 = CARTESIAN_POINT ( 'NONE',  ( 0.000000000000000000, -17.93750000000521183, 10.00000000000297362 ) ) ;
#371 = CIRCLE ( 'NONE', #132, 0.3300000000000039013 ) ;
#372 = AXIS2_PLACEMENT_3D ( 'NONE', #235, #176, #49 ) ;
#373 = EDGE_CURVE ( 'NONE', #74, #587, #433, .T. ) ;
#374 = CARTESIAN_POINT ( 'NONE',  ( 0.000000000000000000, 9.999999999997399414, 14.29750000000858989 ) ) ;
#375 =( NAMED_UNIT ( * ) SI_UNIT ( $, .STERADIAN. ) SOLID_ANGLE_UNIT ( ) );
#376 = ORIENTED_EDGE ( 'NONE', *, *, #280, .T. ) ;
#377 = DIRECTION ( 'NONE',  ( 1.000000000000000000, -0.000000000000000000, 0.000000000000000000 ) ) ;
#378 = FACE_BOUND ( 'NONE', #252, .T. ) ;
#379 = EDGE_CURVE ( 'NONE', #344, #248, #755, .T. ) ;
#380 = DIRECTION ( 'NONE',  ( -1.000000000000000000, -0.000000000000000000, -0.000000000000000000 ) ) ;
#381 = DIRECTION ( 'NONE',  ( 0.000000000000000000, 0.000000000000000000, -1.000000000000000000 ) ) ;
#382 = ORIENTED_EDGE ( 'NONE', *, *, #102, .F. ) ;
#383 = CARTESIAN_POINT ( 'NONE',  ( 0.3175000000000000044, -10.00000000000260236, -14.62750000000264095 ) ) ;
#384 = PLANE ( 'NONE',  #571 ) ;
#385 = AXIS2_PLACEMENT_3D ( 'NONE', #370, #550, #75 ) ;
#386 = PRODUCT_RELATED_PRODUCT_CATEGORY ( 'part', '', ( #164 ) ) ;
#387 = CARTESIAN_POINT ( 'NONE',  ( 0.000000000000000000, 17.93750000000001421, 9.670000000002969998 ) ) ;
#388 = EDGE_LOOP ( 'NONE', ( #573, #263, #740, #161 ) ) ;
#389 = ADVANCED_FACE ( 'NONE', ( #737 ), #502, .F. ) ;
#390 = ORIENTED_EDGE ( 'NONE', *, *, #88, .F. ) ;
#391 = ORIENTED_EDGE ( 'NONE', *, *, #770, .F. ) ;
#392 = DIRECTION ( 'NONE',  ( -1.000000000000000000, -0.000000000000000000, -0.000000000000000000 ) ) ;
#393 = AXIS2_PLACEMENT_3D ( 'NONE', #716, #551, #5 ) ;
#394 = LINE ( 'NONE', #754, #276 ) ;
#395 = AXIS2_PLACEMENT_3D ( 'NONE', #81, #322, #258 ) ;
#396 = EDGE_CURVE ( 'NONE', #446, #298, #778, .T. ) ;
#397 = EDGE_LOOP ( 'NONE', ( #419, #198, #243, #525 ) ) ;
#398 = ADVANCED_FACE ( 'NONE', ( #672, #678, #432, #360, #62, #244, #358, #423, #485 ), #664, .T. ) ;
#399 = DIRECTION ( 'NONE',  ( 0.000000000000000000, -8.763996089554698406E-17, 1.000000000000000000 ) ) ;
#400 = VECTOR ( 'NONE', #775, 100.0000000000000000 ) ;
#401 = DIRECTION ( 'NONE',  ( 0.000000000000000000, 1.000000000000000000, 0.000000000000000000 ) ) ;
#402 = ORIENTED_EDGE ( 'NONE', *, *, #675, .T. ) ;
#403 = DIRECTION ( 'NONE',  ( -1.000000000000000000, -0.000000000000000000, -0.000000000000000000 ) ) ;
#404 = ORIENTED_EDGE ( 'NONE', *, *, #274, .T. ) ;
#405 = DIRECTION ( 'NONE',  ( 0.000000000000000000, 0.000000000000000000, -1.000000000000000000 ) ) ;
#406 =( NAMED_UNIT ( * ) PLANE_ANGLE_UNIT ( ) SI_UNIT ( $, .RADIAN. ) );
#407 = CARTESIAN_POINT ( 'NONE',  ( 0.3175000000000000044, -10.00000000000260236, -14.62750000000264095 ) ) ;
#408 = EDGE_LOOP ( 'NONE', ( #264, #748, #337, #315 ) ) ;
#409 = CIRCLE ( 'NONE', #60, 0.3300000000000039013 ) ;
#410 = DIRECTION ( 'NONE',  ( 0.000000000000000000, 0.000000000000000000, 1.000000000000000000 ) ) ;
#411 = CARTESIAN_POINT ( 'NONE',  ( 0.000000000000000000, 17.93750000000001421, 10.33000000000297725 ) ) ;
#412 = DIRECTION ( 'NONE',  ( 0.000000000000000000, 0.000000000000000000, -1.000000000000000000 ) ) ;
#413 = DIRECTION ( 'NONE',  ( 0.000000000000000000, 0.000000000000000000, 1.000000000000000000 ) ) ;
#414 = CARTESIAN_POINT ( 'NONE',  ( 0.3175000000000000044, 9.999999999997404743, -14.95750000000264102 ) ) ;
#415 = ADVANCED_FACE ( 'NONE', ( #122 ), #249, .F. ) ;
#416 = DIRECTION ( 'NONE',  ( -1.000000000000000000, -0.000000000000000000, -0.000000000000000000 ) ) ;
#417 = CARTESIAN_POINT ( 'NONE',  ( 0.000000000000000000, 9.999999999997404743, -14.62750000000264095 ) ) ;
#418 = EDGE_CURVE ( 'NONE', #446, #247, #610, .T. ) ;
#419 = ORIENTED_EDGE ( 'NONE', *, *, #76, .T. ) ;
#420 = AXIS2_PLACEMENT_3D ( 'NONE', #568, #509, #254 ) ;
#421 = ADVANCED_FACE ( 'NONE', ( #488 ), #240, .F. ) ;
#422 = VERTEX_POINT ( 'NONE', #441 ) ;
#423 = FACE_BOUND ( 'NONE', #628, .T. ) ;
#424 = DIRECTION ( 'NONE',  ( 0.000000000000000000, 0.000000000000000000, 1.000000000000000000 ) ) ;
#425 = LINE ( 'NONE', #445, #442 ) ;
#426 = VERTEX_POINT ( 'NONE', #726 ) ;
#427 = VECTOR ( 'NONE', #763, 100.0000000000000000 ) ;
#428 = DIRECTION ( 'NONE',  ( 0.000000000000000000, 0.000000000000000000, 1.000000000000000000 ) ) ;
#429 = EDGE_CURVE ( 'NONE', #710, #89, #67, .T. ) ;
#430 = CARTESIAN_POINT ( 'NONE',  ( 0.3175000000000000044, 17.93750000000001066, -10.32999999999703178 ) ) ;
#431 = ORIENTED_EDGE ( 'NONE', *, *, #233, .T. ) ;
#432 = FACE_BOUND ( 'NONE', #613, .T. ) ;
#433 = CIRCLE ( 'NONE', #395, 0.3300000000000025135 ) ;
#434 = EDGE_LOOP ( 'NONE', ( #659, #728, #8, #760 ) ) ;
#435 = CARTESIAN_POINT ( 'NONE',  ( 0.3175000000000000044, 9.999999999997404743, -14.62750000000264095 ) ) ;
#436 = AXIS2_PLACEMENT_3D ( 'NONE', #555, #316, #299 ) ;
#437 = AXIS2_PLACEMENT_3D ( 'NONE', #348, #392, #289 ) ;
#438 = DIRECTION ( 'NONE',  ( 1.000000000000000000, -0.000000000000000000, 0.000000000000000000 ) ) ;
#439 = CARTESIAN_POINT ( 'NONE',  ( 0.3175000000000000044, 17.93750000000001066, -9.669999999997024531 ) ) ;
#440 = ORIENTED_EDGE ( 'NONE', *, *, #459, .T. ) ;
#441 = CARTESIAN_POINT ( 'NONE',  ( 0.3175000000000000044, 9.999999999997399414, 14.95750000000859359 ) ) ;
#442 = VECTOR ( 'NONE', #674, 100.0000000000000000 ) ;
#443 = AXIS2_PLACEMENT_3D ( 'NONE', #645, #658, #293 ) ;
#444 = CARTESIAN_POINT ( 'NONE',  ( 0.3175000000000000044, -17.93750000000521183, -10.32999999999703178 ) ) ;
#445 = CARTESIAN_POINT ( 'NONE',  ( 0.3175000000000000044, -10.00000000000260236, -14.29750000000263910 ) ) ;
#446 = VERTEX_POINT ( 'NONE', #773 ) ;
#447 = EDGE_CURVE ( 'NONE', #644, #227, #532, .T. ) ;
#448 = ORIENTED_EDGE ( 'NONE', *, *, #533, .T. ) ;
#449 = FACE_BOUND ( 'NONE', #27, .T. ) ;
#450 = CARTESIAN_POINT ( 'NONE',  ( 0.3175000000000000044, 0.000000000000000000, 15.83500000000783992 ) ) ;
#451 = EDGE_LOOP ( 'NONE', ( #194, #734 ) ) ;
#452 = AXIS2_PLACEMENT_3D ( 'NONE', #383, #511, #25 ) ;
#453 = AXIS2_PLACEMENT_3D ( 'NONE', #652, #101, #381 ) ;
#454 = ORIENTED_EDGE ( 'NONE', *, *, #36, .F. ) ;
#455 = CARTESIAN_POINT ( 'NONE',  ( 0.3175000000000000044, -17.93750000000521183, 10.00000000000297362 ) ) ;
#456 = ORIENTED_EDGE ( 'NONE', *, *, #109, .F. ) ;
#457 = VERTEX_POINT ( 'NONE', #124 ) ;
#458 = VECTOR ( 'NONE', #475, 100.0000000000000000 ) ;
#459 = EDGE_CURVE ( 'NONE', #121, #644, #71, .T. ) ;
#460 = CARTESIAN_POINT ( 'NONE',  ( 0.3175000000000000044, -17.93750000000521183, -9.999999999997028155 ) ) ;
#461 = ORIENTED_EDGE ( 'NONE', *, *, #373, .T. ) ;
#462 = SHAPE_DEFINITION_REPRESENTATION ( #756, #538 ) ;
#463 = ORIENTED_EDGE ( 'NONE', *, *, #250, .T. ) ;
#464 = ORIENTED_EDGE ( 'NONE', *, *, #250, .F. ) ;
#465 = CARTESIAN_POINT ( 'NONE',  ( 0.3175000000000000044, 19.14500000000002089, 1.677867051345248965E-15 ) ) ;
#466 = CIRCLE ( 'NONE', #640, 0.3300000000000025135 ) ;
#467 = ORIENTED_EDGE ( 'NONE', *, *, #751, .T. ) ;
#468 = EDGE_CURVE ( 'NONE', #89, #426, #255, .T. ) ;
#469 = DIRECTION ( 'NONE',  ( 0.000000000000000000, 0.000000000000000000, -1.000000000000000000 ) ) ;
#470 = CARTESIAN_POINT ( 'NONE',  ( 0.3175000000000000044, -17.93750000000521183, -9.999999999997028155 ) ) ;
#471 = CIRCLE ( 'NONE', #522, 0.3299999999999997380 ) ;
#472 = AXIS2_PLACEMENT_3D ( 'NONE', #711, #403, #169 ) ;
#473 = CARTESIAN_POINT ( 'NONE',  ( 0.000000000000000000, -10.00000000000260769, 14.62750000000858641 ) ) ;
#474 = CARTESIAN_POINT ( 'NONE',  ( 0.3175000000000000044, -17.93750000000521183, -9.669999999997024531 ) ) ;
#475 = DIRECTION ( 'NONE',  ( -1.000000000000000000, -0.000000000000000000, -0.000000000000000000 ) ) ;
#476 = EDGE_CURVE ( 'NONE', #707, #121, #366, .T. ) ;
#477 = CARTESIAN_POINT ( 'NONE',  ( 0.3175000000000000044, -10.00000000000260769, 14.62750000000858641 ) ) ;
#478 = CARTESIAN_POINT ( 'NONE',  ( 0.000000000000000000, -17.93750000000521183, 10.00000000000297362 ) ) ;
#479 = EDGE_CURVE ( 'NONE', #269, #426, #307, .T. ) ;
#480 = AXIS2_PLACEMENT_3D ( 'NONE', #566, #23, #686 ) ;
#481 = ORIENTED_EDGE ( 'NONE', *, *, #396, .T. ) ;
#482 = ADVANCED_FACE ( 'NONE', ( #9 ), #496, .F. ) ;
#483 = LINE ( 'NONE', #720, #349 ) ;
#484 = ORIENTED_EDGE ( 'NONE', *, *, #82, .F. ) ;
#485 = FACE_OUTER_BOUND ( 'NONE', #499, .T. ) ;
#486 = CARTESIAN_POINT ( 'NONE',  ( 0.3175000000000000044, -10.00000000000260769, 14.95750000000858826 ) ) ;
#487 = ORIENTED_EDGE ( 'NONE', *, *, #622, .T. ) ;
#488 = FACE_OUTER_BOUND ( 'NONE', #123, .T. ) ;
#489 = LINE ( 'NONE', #430, #400 ) ;
#490 = CIRCLE ( 'NONE', #148, 0.3300000000000025135 ) ;
#491 = VERTEX_POINT ( 'NONE', #253 ) ;
#492 = DIRECTION ( 'NONE',  ( -1.000000000000000000, -0.000000000000000000, -0.000000000000000000 ) ) ;
#493 =( LENGTH_UNIT ( ) NAMED_UNIT ( * ) SI_UNIT ( .CENTI., .METRE. ) );
#494 = ORIENTED_EDGE ( 'NONE', *, *, #705, .F. ) ;
#495 = ORIENTED_EDGE ( 'NONE', *, *, #670, .F. ) ;
#496 = CYLINDRICAL_SURFACE ( 'NONE', #30, 0.3300000000000039013 ) ;
#497 = FACE_BOUND ( 'NONE', #26, .T. ) ;
#498 = EDGE_CURVE ( 'NONE', #583, #285, #703, .T. ) ;
#499 = EDGE_LOOP ( 'NONE', ( #481, #79, #376, #487 ) ) ;
#500 = DIRECTION ( 'NONE',  ( 1.000000000000000000, -0.000000000000000000, 0.000000000000000000 ) ) ;
#501 = VECTOR ( 'NONE', #559, 100.0000000000000000 ) ;
#502 = CYLINDRICAL_SURFACE ( 'NONE', #561, 0.3300000000000025135 ) ;
#503 = SURFACE_STYLE_USAGE ( .BOTH. , #64 ) ;
#504 = EDGE_CURVE ( 'NONE', #285, #534, #601, .T. ) ;
#505 = AXIS2_PLACEMENT_3D ( 'NONE', #206, #275, #211 ) ;
#506 =( GEOMETRIC_REPRESENTATION_CONTEXT ( 3 ) GLOBAL_UNCERTAINTY_ASSIGNED_CONTEXT ( ( #649 ) ) GLOBAL_UNIT_ASSIGNED_CONTEXT ( ( #493, #309, #375 ) ) REPRESENTATION_CONTEXT ( 'NONE', 'WORKASPACE' ) );
#507 = EDGE_LOOP ( 'NONE', ( #328, #382, #239, #32 ) ) ;
#508 = DIRECTION ( 'NONE',  ( 0.000000000000000000, 0.000000000000000000, 1.000000000000000000 ) ) ;
#509 = DIRECTION ( 'NONE',  ( 1.000000000000000000, -0.000000000000000000, 0.000000000000000000 ) ) ;
#510 = CARTESIAN_POINT ( 'NONE',  ( 0.000000000000000000, 19.14500000000002089, -15.83500000000264052 ) ) ;
#511 = DIRECTION ( 'NONE',  ( 1.000000000000000000, -0.000000000000000000, 0.000000000000000000 ) ) ;
#512 = AXIS2_PLACEMENT_3D ( 'NONE', #204, #621, #200 ) ;
#513 = AXIS2_PLACEMENT_3D ( 'NONE', #3, #492, #428 ) ;
#514 = EDGE_LOOP ( 'NONE', ( #547, #448, #402, #133 ) ) ;
#515 = DIRECTION ( 'NONE',  ( 1.000000000000000000, -0.000000000000000000, 0.000000000000000000 ) ) ;
#516 = DIRECTION ( 'NONE',  ( -1.000000000000000000, -0.000000000000000000, -0.000000000000000000 ) ) ;
#517 = ORIENTED_EDGE ( 'NONE', *, *, #705, .T. ) ;
#518 = ORIENTED_EDGE ( 'NONE', *, *, #660, .T. ) ;
#519 = CARTESIAN_POINT ( 'NONE',  ( 0.3175000000000000044, 9.999999999997404743, -14.95750000000264102 ) ) ;
#520 = ORIENTED_EDGE ( 'NONE', *, *, #498, .F. ) ;
#521 = ORIENTED_EDGE ( 'NONE', *, *, #354, .F. ) ;
#522 = AXIS2_PLACEMENT_3D ( 'NONE', #727, #126, #191 ) ;
#523 = VERTEX_POINT ( 'NONE', #216 ) ;
#524 = CIRCLE ( 'NONE', #443, 0.3300000000000039013 ) ;
#525 = ORIENTED_EDGE ( 'NONE', *, *, #418, .T. ) ;
#526 = VECTOR ( 'NONE', #380, 100.0000000000000000 ) ;
#527 = ADVANCED_FACE ( 'NONE', ( #320 ), #629, .F. ) ;
#528 = CARTESIAN_POINT ( 'NONE',  ( 0.000000000000000000, 0.000000000000000000, -15.83500000000264052 ) ) ;
#529 = DIRECTION ( 'NONE',  ( 0.000000000000000000, -1.000000000000000000, 0.000000000000000000 ) ) ;
#530 = ORIENTED_EDGE ( 'NONE', *, *, #379, .T. ) ;
#531 = DIRECTION ( 'NONE',  ( 0.000000000000000000, 0.000000000000000000, -1.000000000000000000 ) ) ;
#532 = CIRCLE ( 'NONE', #125, 0.3300000000000039013 ) ;
#533 = EDGE_CURVE ( 'NONE', #623, #753, #687, .T. ) ;
#534 = VERTEX_POINT ( 'NONE', #208 ) ;
#535 = CARTESIAN_POINT ( 'NONE',  ( 0.000000000000000000, 19.14500000000002089, 1.677867051345248965E-15 ) ) ;
#536 = DIRECTION ( 'NONE',  ( -1.000000000000000000, -0.000000000000000000, -0.000000000000000000 ) ) ;
#537 = DIRECTION ( 'NONE',  ( -1.000000000000000000, -0.000000000000000000, -0.000000000000000000 ) ) ;
#538 = ADVANCED_BREP_SHAPE_REPRESENTATION ( 'Lid', ( #662, #505 ), #273 ) ;
#539 = EDGE_CURVE ( 'NONE', #90, #457, #676, .T. ) ;
#540 = DIRECTION ( 'NONE',  ( 0.000000000000000000, 0.000000000000000000, 1.000000000000000000 ) ) ;
#541 = CARTESIAN_POINT ( 'NONE',  ( 0.000000000000000000, 9.999999999997404743, -14.95750000000264102 ) ) ;
#542 = AXIS2_PLACEMENT_3D ( 'NONE', #100, #654, #588 ) ;
#543 = VERTEX_POINT ( 'NONE', #223 ) ;
#544 = CARTESIAN_POINT ( 'NONE',  ( 0.3175000000000000044, -10.00000000000260236, -14.62750000000264095 ) ) ;
#545 = DIRECTION ( 'NONE',  ( 0.000000000000000000, 0.000000000000000000, -1.000000000000000000 ) ) ;
#546 = EDGE_CURVE ( 'NONE', #753, #623, #466, .T. ) ;
#547 = ORIENTED_EDGE ( 'NONE', *, *, #332, .F. ) ;
#548 = DIRECTION ( 'NONE',  ( 0.000000000000000000, 0.000000000000000000, 1.000000000000000000 ) ) ;
#549 = EDGE_LOOP ( 'NONE', ( #363, #331, #342, #86 ) ) ;
#550 = DIRECTION ( 'NONE',  ( 1.000000000000000000, -0.000000000000000000, 0.000000000000000000 ) ) ;
#551 = DIRECTION ( 'NONE',  ( 1.000000000000000000, -0.000000000000000000, 0.000000000000000000 ) ) ;
#552 = SURFACE_STYLE_FILL_AREA ( #69 ) ;
#553 = ORIENTED_EDGE ( 'NONE', *, *, #222, .F. ) ;
#554 = CIRCLE ( 'NONE', #259, 0.3299999999999997380 ) ;
#555 = CARTESIAN_POINT ( 'NONE',  ( 0.3175000000000000044, 17.93750000000001421, 10.00000000000297362 ) ) ;
#556 = ADVANCED_FACE ( 'NONE', ( #735 ), #179, .F. ) ;
#557 = DIRECTION ( 'NONE',  ( 0.000000000000000000, 0.000000000000000000, 1.000000000000000000 ) ) ;
#558 = EDGE_LOOP ( 'NONE', ( #391, #463, #631, #42 ) ) ;
#559 = DIRECTION ( 'NONE',  ( -1.000000000000000000, -0.000000000000000000, -0.000000000000000000 ) ) ;
#560 = DIRECTION ( 'NONE',  ( -1.000000000000000000, -0.000000000000000000, -0.000000000000000000 ) ) ;
#561 = AXIS2_PLACEMENT_3D ( 'NONE', #544, #364, #719 ) ;
#562 = ADVANCED_FACE ( 'NONE', ( #657 ), #584, .F. ) ;
#563 = CARTESIAN_POINT ( 'NONE',  ( 0.3175000000000000044, 0.000000000000000000, -15.83500000000264052 ) ) ;
#564 = VERTEX_POINT ( 'NONE', #47 ) ;
#565 = DIRECTION ( 'NONE',  ( 0.000000000000000000, 0.000000000000000000, -1.000000000000000000 ) ) ;
#566 = CARTESIAN_POINT ( 'NONE',  ( 0.3175000000000000044, 19.14500000000002089, 1.677867051345248965E-15 ) ) ;
#567 = AXIS2_PLACEMENT_3D ( 'NONE', #28, #266, #405 ) ;
#568 = CARTESIAN_POINT ( 'NONE',  ( 0.000000000000000000, 9.999999999997399414, 14.62750000000859174 ) ) ;
#569 = EDGE_LOOP ( 'NONE', ( #605, #530 ) ) ;
#570 = CIRCLE ( 'NONE', #245, 0.3300000000000039013 ) ;
#571 = AXIS2_PLACEMENT_3D ( 'NONE', #209, #688, #144 ) ;
#572 = EDGE_CURVE ( 'NONE', #158, #422, #114, .T. ) ;
#573 = ORIENTED_EDGE ( 'NONE', *, *, #646, .T. ) ;
#574 = ORIENTED_EDGE ( 'NONE', *, *, #694, .F. ) ;
#575 = FACE_OUTER_BOUND ( 'NONE', #772, .T. ) ;
#576 = EDGE_LOOP ( 'NONE', ( #177, #146, #494, #484 ) ) ;
#577 = DIRECTION ( 'NONE',  ( -1.000000000000000000, -0.000000000000000000, -0.000000000000000000 ) ) ;
#578 = ORIENTED_EDGE ( 'NONE', *, *, #750, .T. ) ;
#579 = AXIS2_PLACEMENT_3D ( 'NONE', #435, #500, #353 ) ;
#580 = CARTESIAN_POINT ( 'NONE',  ( 0.000000000000000000, 17.93750000000001421, 10.00000000000297362 ) ) ;
#581 = DIRECTION ( 'NONE',  ( 1.000000000000000000, -0.000000000000000000, 0.000000000000000000 ) ) ;
#582 = ORIENTED_EDGE ( 'NONE', *, *, #88, .T. ) ;
#583 = VERTEX_POINT ( 'NONE', #519 ) ;
#584 = CYLINDRICAL_SURFACE ( 'NONE', #437, 0.3300000000000025135 ) ;
#585 = VECTOR ( 'NONE', #759, 100.0000000000000000 ) ;
#586 = CARTESIAN_POINT ( 'NONE',  ( 0.3175000000000000044, 17.93750000000001066, -9.999999999997028155 ) ) ;
#587 = VERTEX_POINT ( 'NONE', #744 ) ;
#588 = DIRECTION ( 'NONE',  ( 0.000000000000000000, 0.000000000000000000, -1.000000000000000000 ) ) ;
#589 = CARTESIAN_POINT ( 'NONE',  ( 0.3175000000000000044, -17.93750000000521183, 10.33000000000297725 ) ) ;
#590 = ORIENTED_EDGE ( 'NONE', *, *, #660, .F. ) ;
#591 = CYLINDRICAL_SURFACE ( 'NONE', #709, 0.3300000000000039013 ) ;
#592 = AXIS2_PLACEMENT_3D ( 'NONE', #470, #92, #166 ) ;
#593 = CYLINDRICAL_SURFACE ( 'NONE', #281, 0.3300000000000025135 ) ;
#594 = DIRECTION ( 'NONE',  ( -1.000000000000000000, -0.000000000000000000, -0.000000000000000000 ) ) ;
#595 = CIRCLE ( 'NONE', #690, 0.3300000000000039013 ) ;
#596 = CARTESIAN_POINT ( 'NONE',  ( 0.3175000000000000044, 9.999999999997404743, -14.62750000000264095 ) ) ;
#597 = CARTESIAN_POINT ( 'NONE',  ( 0.3175000000000000044, -17.93750000000521183, 10.00000000000297362 ) ) ;
#598 = APPLICATION_CONTEXT ( 'automotive_design' ) ;
#599 = ORIENTED_EDGE ( 'NONE', *, *, #82, .T. ) ;
#600 = STYLED_ITEM ( 'NONE', ( #7 ), #662 ) ;
#601 = LINE ( 'NONE', #91, #154 ) ;
#602 = CARTESIAN_POINT ( 'NONE',  ( 0.3175000000000000044, -17.93750000000521183, 10.00000000000297362 ) ) ;
#603 = AXIS2_PLACEMENT_3D ( 'NONE', #110, #104, #469 ) ;
#604 = AXIS2_PLACEMENT_3D ( 'NONE', #346, #700, #155 ) ;
#605 = ORIENTED_EDGE ( 'NONE', *, *, #694, .T. ) ;
#606 = CARTESIAN_POINT ( 'NONE',  ( 0.3175000000000000044, 19.14500000000001734, 15.83500000000783992 ) ) ;
#607 = CARTESIAN_POINT ( 'NONE',  ( 0.3175000000000000044, 19.14500000000002089, -15.83500000000264052 ) ) ;
#608 = CIRCLE ( 'NONE', #653, 0.3300000000000039013 ) ;
#609 = EDGE_LOOP ( 'NONE', ( #333, #116, #390, #217 ) ) ;
#610 = LINE ( 'NONE', #606, #776 ) ;
#611 = VECTOR ( 'NONE', #619, 100.0000000000000000 ) ;
#612 = DIRECTION ( 'NONE',  ( 0.000000000000000000, 0.000000000000000000, 1.000000000000000000 ) ) ;
#613 = EDGE_LOOP ( 'NONE', ( #2, #767 ) ) ;
#614 = DIRECTION ( 'NONE',  ( 0.000000000000000000, 0.000000000000000000, -1.000000000000000000 ) ) ;
#615 = FACE_BOUND ( 'NONE', #569, .T. ) ;
#616 = CYLINDRICAL_SURFACE ( 'NONE', #151, 0.3300000000000039013 ) ;
#617 = DIRECTION ( 'NONE',  ( 1.000000000000000000, -0.000000000000000000, 0.000000000000000000 ) ) ;
#618 = EDGE_LOOP ( 'NONE', ( #404, #168, #553, #84 ) ) ;
#619 = DIRECTION ( 'NONE',  ( -1.000000000000000000, -0.000000000000000000, -0.000000000000000000 ) ) ;
#620 = EDGE_CURVE ( 'NONE', #587, #74, #212, .T. ) ;
#621 = DIRECTION ( 'NONE',  ( -0.000000000000000000, 1.000000000000000000, 0.000000000000000000 ) ) ;
#622 = EDGE_CURVE ( 'NONE', #696, #446, #219, .T. ) ;
#623 = VERTEX_POINT ( 'NONE', #641 ) ;
#624 = LINE ( 'NONE', #317, #111 ) ;
#625 = FILL_AREA_STYLE_COLOUR ( '', #159 ) ;
#626 = FACE_OUTER_BOUND ( 'NONE', #408, .T. ) ;
#627 = DIRECTION ( 'NONE',  ( -1.000000000000000000, -0.000000000000000000, -0.000000000000000000 ) ) ;
#628 = EDGE_LOOP ( 'NONE', ( #637, #464 ) ) ;
#629 = CYLINDRICAL_SURFACE ( 'NONE', #1, 0.3300000000000039013 ) ;
#630 = DIRECTION ( 'NONE',  ( 0.000000000000000000, 0.000000000000000000, -1.000000000000000000 ) ) ;
#631 = ORIENTED_EDGE ( 'NONE', *, *, #679, .T. ) ;
#632 = ORIENTED_EDGE ( 'NONE', *, *, #362, .T. ) ;
#633 = ORIENTED_EDGE ( 'NONE', *, *, #373, .F. ) ;
#634 = DIRECTION ( 'NONE',  ( 1.000000000000000000, -0.000000000000000000, 0.000000000000000000 ) ) ;
#635 =( LENGTH_UNIT ( ) NAMED_UNIT ( * ) SI_UNIT ( .CENTI., .METRE. ) );
#636 = DIRECTION ( 'NONE',  ( 0.000000000000000000, 0.000000000000000000, 1.000000000000000000 ) ) ;
#637 = ORIENTED_EDGE ( 'NONE', *, *, #646, .F. ) ;
#638 = EDGE_CURVE ( 'NONE', #265, #149, #336, .T. ) ;
#639 = ORIENTED_EDGE ( 'NONE', *, *, #241, .T. ) ;
#640 = AXIS2_PLACEMENT_3D ( 'NONE', #682, #377, #565 ) ;
#641 = CARTESIAN_POINT ( 'NONE',  ( 0.3175000000000000044, -10.00000000000260236, -14.95750000000264279 ) ) ;
#642 = DIRECTION ( 'NONE',  ( 0.000000000000000000, 0.000000000000000000, -1.000000000000000000 ) ) ;
#643 = CIRCLE ( 'NONE', #453, 0.3300000000000025135 ) ;
#644 = VERTEX_POINT ( 'NONE', #411 ) ;
#645 = CARTESIAN_POINT ( 'NONE',  ( 0.3175000000000000044, -17.93750000000521183, -9.999999999997028155 ) ) ;
#646 = EDGE_CURVE ( 'NONE', #762, #491, #643, .T. ) ;
#647 = EDGE_LOOP ( 'NONE', ( #582, #752 ) ) ;
#648 = CIRCLE ( 'NONE', #118, 0.3300000000000039013 ) ;
#649 = UNCERTAINTY_MEASURE_WITH_UNIT (LENGTH_MEASURE( 1.000000000000000082E-05 ), #493, 'distance_accuracy_value', 'NONE');
#650 = VERTEX_POINT ( 'NONE', #667 ) ;
#651 = FACE_OUTER_BOUND ( 'NONE', #434, .T. ) ;
#652 = CARTESIAN_POINT ( 'NONE',  ( 0.3175000000000000044, -10.00000000000260769, 14.62750000000858641 ) ) ;
#653 = AXIS2_PLACEMENT_3D ( 'NONE', #683, #438, #16 ) ;
#654 = DIRECTION ( 'NONE',  ( 1.000000000000000000, -0.000000000000000000, 0.000000000000000000 ) ) ;
#655 = EDGE_CURVE ( 'NONE', #650, #203, #17, .T. ) ;
#656 = DIRECTION ( 'NONE',  ( -1.000000000000000000, -0.000000000000000000, -0.000000000000000000 ) ) ;
#657 = FACE_OUTER_BOUND ( 'NONE', #388, .T. ) ;
#658 = DIRECTION ( 'NONE',  ( 1.000000000000000000, -0.000000000000000000, 0.000000000000000000 ) ) ;
#659 = ORIENTED_EDGE ( 'NONE', *, *, #147, .F. ) ;
#660 = EDGE_CURVE ( 'NONE', #14, #143, #489, .T. ) ;
#661 = CARTESIAN_POINT ( 'NONE',  ( 0.3175000000000000044, 17.93750000000001421, 10.00000000000297362 ) ) ;
#662 = MANIFOLD_SOLID_BREP ( 'Boss-Extrude1', #50 ) ;
#663 = ORIENTED_EDGE ( 'NONE', *, *, #699, .F. ) ;
#664 = PLANE ( 'NONE',  #171 ) ;
#665 = ADVANCED_FACE ( 'NONE', ( #361 ), #78, .F. ) ;
#666 = APPLICATION_CONTEXT ( 'automotive_design' ) ;
#667 = CARTESIAN_POINT ( 'NONE',  ( 0.3175000000000000044, 17.93750000000001066, -9.669999999997024531 ) ) ;
#668 = ORIENTED_EDGE ( 'NONE', *, *, #241, .F. ) ;
#669 = CARTESIAN_POINT ( 'NONE',  ( 0.3175000000000000044, 17.93750000000001421, 10.33000000000297725 ) ) ;
#670 = EDGE_CURVE ( 'NONE', #285, #583, #471, .T. ) ;
#671 = ORIENTED_EDGE ( 'NONE', *, *, #280, .F. ) ;
#672 = FACE_BOUND ( 'NONE', #224, .T. ) ;
#673 = LINE ( 'NONE', #308, #294 ) ;
#674 = DIRECTION ( 'NONE',  ( -1.000000000000000000, -0.000000000000000000, -0.000000000000000000 ) ) ;
#675 = EDGE_CURVE ( 'NONE', #753, #74, #425, .T. ) ;
#676 = CIRCLE ( 'NONE', #335, 0.3300000000000025135 ) ;
#677 = EDGE_LOOP ( 'NONE', ( #61, #742, #633, #721 ) ) ;
#678 = FACE_BOUND ( 'NONE', #283, .T. ) ;
#679 = EDGE_CURVE ( 'NONE', #762, #90, #120, .T. ) ;
#680 = FACE_OUTER_BOUND ( 'NONE', #697, .T. ) ;
#681 = ORIENTED_EDGE ( 'NONE', *, *, #743, .F. ) ;
#682 = CARTESIAN_POINT ( 'NONE',  ( 0.3175000000000000044, -10.00000000000260236, -14.62750000000264095 ) ) ;
#683 = CARTESIAN_POINT ( 'NONE',  ( 0.000000000000000000, -17.93750000000521183, -9.999999999997028155 ) ) ;
#684 = DIRECTION ( 'NONE',  ( 0.000000000000000000, 0.000000000000000000, -1.000000000000000000 ) ) ;
#685 = CARTESIAN_POINT ( 'NONE',  ( 0.000000000000000000, 9.999999999997399414, 14.62750000000859174 ) ) ;
#686 = DIRECTION ( 'NONE',  ( 0.000000000000000000, 8.763996089554698406E-17, -1.000000000000000000 ) ) ;
#687 = CIRCLE ( 'NONE', #452, 0.3300000000000025135 ) ;
#688 = DIRECTION ( 'NONE',  ( 1.000000000000000000, -0.000000000000000000, 0.000000000000000000 ) ) ;
#689 = DIRECTION ( 'NONE',  ( 0.000000000000000000, 0.000000000000000000, -1.000000000000000000 ) ) ;
#690 = AXIS2_PLACEMENT_3D ( 'NONE', #580, #326, #642 ) ;
#691 = ORIENTED_EDGE ( 'NONE', *, *, #4, .T. ) ;
#692 = AXIS2_PLACEMENT_3D ( 'NONE', #450, #689, #145 ) ;
#693 = DIRECTION ( 'NONE',  ( 1.000000000000000000, -0.000000000000000000, 0.000000000000000000 ) ) ;
#694 = EDGE_CURVE ( 'NONE', #248, #344, #201, .T. ) ;
#695 = CARTESIAN_POINT ( 'NONE',  ( 0.000000000000000000, -10.00000000000260769, 14.62750000000858641 ) ) ;
#696 = VERTEX_POINT ( 'NONE', #607 ) ;
#697 = EDGE_LOOP ( 'NONE', ( #279, #668, #663, #431 ) ) ;
#698 = CARTESIAN_POINT ( 'NONE',  ( 0.000000000000000000, 17.93750000000001066, -9.999999999997028155 ) ) ;
#699 = EDGE_CURVE ( 'NONE', #298, #327, #12, .T. ) ;
#700 = DIRECTION ( 'NONE',  ( 1.000000000000000000, -0.000000000000000000, 0.000000000000000000 ) ) ;
#701 = EDGE_LOOP ( 'NONE', ( #461, #319 ) ) ;
#702 = CARTESIAN_POINT ( 'NONE',  ( 0.000000000000000000, -10.00000000000260769, 14.95750000000858826 ) ) ;
#703 = CIRCLE ( 'NONE', #579, 0.3299999999999997380 ) ;
#704 = ORIENTED_EDGE ( 'NONE', *, *, #468, .T. ) ;
#705 = EDGE_CURVE ( 'NONE', #564, #523, #723, .T. ) ;
#706 = FACE_OUTER_BOUND ( 'NONE', #677, .T. ) ;
#707 = VERTEX_POINT ( 'NONE', #724 ) ;
#708 = DIRECTION ( 'NONE',  ( 1.000000000000000000, -0.000000000000000000, 0.000000000000000000 ) ) ;
#709 = AXIS2_PLACEMENT_3D ( 'NONE', #597, #769, #410 ) ;
#710 = VERTEX_POINT ( 'NONE', #188 ) ;
#711 = CARTESIAN_POINT ( 'NONE',  ( 0.3175000000000000044, -17.93750000000521183, -9.999999999997028155 ) ) ;
#712 = FACE_OUTER_BOUND ( 'NONE', #774, .T. ) ;
#713 = DIRECTION ( 'NONE',  ( 1.000000000000000000, -0.000000000000000000, 0.000000000000000000 ) ) ;
#714 = VECTOR ( 'NONE', #577, 100.0000000000000000 ) ;
#715 = ORIENTED_EDGE ( 'NONE', *, *, #638, .F. ) ;
#716 = CARTESIAN_POINT ( 'NONE',  ( 0.000000000000000000, 17.93750000000001066, -9.999999999997028155 ) ) ;
#717 = PRODUCT_DEFINITION ( 'UNKNOWN', '', #215, #221 ) ;
#718 = VERTEX_POINT ( 'NONE', #510 ) ;
#719 = DIRECTION ( 'NONE',  ( 0.000000000000000000, 0.000000000000000000, 1.000000000000000000 ) ) ;
#720 = CARTESIAN_POINT ( 'NONE',  ( 0.000000000000000000, -19.14500000000561286, 0.000000000000000000 ) ) ;
#721 = ORIENTED_EDGE ( 'NONE', *, *, #675, .F. ) ;
#722 = CARTESIAN_POINT ( 'NONE',  ( 0.3175000000000000044, 0.000000000000000000, 15.83500000000783992 ) ) ;
#723 = CIRCLE ( 'NONE', #297, 0.3300000000000039013 ) ;
#724 = CARTESIAN_POINT ( 'NONE',  ( 0.3175000000000000044, 17.93750000000001421, 9.670000000002969998 ) ) ;
#725 = EDGE_LOOP ( 'NONE', ( #730, #189 ) ) ;
#726 = CARTESIAN_POINT ( 'NONE',  ( 0.000000000000000000, -17.93750000000521183, 10.33000000000297725 ) ) ;
#727 = CARTESIAN_POINT ( 'NONE',  ( 0.3175000000000000044, 9.999999999997404743, -14.62750000000264095 ) ) ;
#728 = ORIENTED_EDGE ( 'NONE', *, *, #498, .T. ) ;
#729 = DIRECTION ( 'NONE',  ( -1.000000000000000000, -0.000000000000000000, -0.000000000000000000 ) ) ;
#730 = ORIENTED_EDGE ( 'NONE', *, *, #119, .F. ) ;
#731 = DIRECTION ( 'NONE',  ( 1.000000000000000000, -0.000000000000000000, 0.000000000000000000 ) ) ;
#732 = VECTOR ( 'NONE', #256, 100.0000000000000000 ) ;
#733 = CARTESIAN_POINT ( 'NONE',  ( 0.3175000000000000044, -19.14500000000561286, -15.83500000000264052 ) ) ;
#734 = ORIENTED_EDGE ( 'NONE', *, *, #246, .F. ) ;
#735 = FACE_OUTER_BOUND ( 'NONE', #95, .T. ) ;
#736 = CARTESIAN_POINT ( 'NONE',  ( 0.3175000000000000044, 17.93750000000001066, -9.999999999997028155 ) ) ;
#737 = FACE_OUTER_BOUND ( 'NONE', #514, .T. ) ;
#738 = FACE_OUTER_BOUND ( 'NONE', #397, .T. ) ;
#739 = ORIENTED_EDGE ( 'NONE', *, *, #447, .F. ) ;
#740 = ORIENTED_EDGE ( 'NONE', *, *, #539, .F. ) ;
#741 = DIRECTION ( 'NONE',  ( -1.000000000000000000, -0.000000000000000000, -0.000000000000000000 ) ) ;
#742 = ORIENTED_EDGE ( 'NONE', *, *, #332, .T. ) ;
#743 = EDGE_CURVE ( 'NONE', #143, #203, #570, .T. ) ;
#744 = CARTESIAN_POINT ( 'NONE',  ( 0.000000000000000000, -10.00000000000260236, -14.95750000000264279 ) ) ;
#745 = CARTESIAN_POINT ( 'NONE',  ( 0.3175000000000000044, -10.00000000000260769, 14.95750000000858826 ) ) ;
#746 = AXIS2_PLACEMENT_3D ( 'NONE', #150, #693, #630 ) ;
#747 = DIRECTION ( 'NONE',  ( -1.000000000000000000, -0.000000000000000000, -0.000000000000000000 ) ) ;
#748 = ORIENTED_EDGE ( 'NONE', *, *, #418, .F. ) ;
#749 = APPLICATION_PROTOCOL_DEFINITION ( 'draft international standard', 'automotive_design', 1998, #666 ) ;
#750 = EDGE_CURVE ( 'NONE', #227, #644, #595, .T. ) ;
#751 = EDGE_CURVE ( 'NONE', #650, #14, #105, .T. ) ;
#752 = ORIENTED_EDGE ( 'NONE', *, *, #134, .T. ) ;
#753 = VERTEX_POINT ( 'NONE', #339 ) ;
#754 = CARTESIAN_POINT ( 'NONE',  ( 0.3175000000000000044, -10.00000000000260769, 14.29750000000858456 ) ) ;
#755 = CIRCLE ( 'NONE', #420, 0.3300000000000025135 ) ;
#756 = PRODUCT_DEFINITION_SHAPE ( 'NONE', 'NONE',  #717 ) ;
#757 = CARTESIAN_POINT ( 'NONE',  ( 0.3175000000000000044, -19.14500000000561286, 15.83500000000783992 ) ) ;
#758 = ORIENTED_EDGE ( 'NONE', *, *, #750, .F. ) ;
#759 = DIRECTION ( 'NONE',  ( 0.000000000000000000, -8.763996089554698406E-17, 1.000000000000000000 ) ) ;
#760 = ORIENTED_EDGE ( 'NONE', *, *, #134, .F. ) ;
#761 = CARTESIAN_POINT ( 'NONE',  ( 0.3175000000000000044, -19.14500000000561286, -15.83500000000264052 ) ) ;
#762 = VERTEX_POINT ( 'NONE', #745 ) ;
#763 = DIRECTION ( 'NONE',  ( -1.000000000000000000, -0.000000000000000000, -0.000000000000000000 ) ) ;
#764 = AXIS2_PLACEMENT_3D ( 'NONE', #586, #31, #636 ) ;
#765 = CYLINDRICAL_SURFACE ( 'NONE', #472, 0.3300000000000039013 ) ;
#766 = DIRECTION ( 'NONE',  ( 0.000000000000000000, 0.000000000000000000, 1.000000000000000000 ) ) ;
#767 = ORIENTED_EDGE ( 'NONE', *, *, #572, .F. ) ;
#768 = AXIS2_PLACEMENT_3D ( 'NONE', #63, #242, #6 ) ;
#769 = DIRECTION ( 'NONE',  ( -1.000000000000000000, -0.000000000000000000, -0.000000000000000000 ) ) ;
#770 = EDGE_CURVE ( 'NONE', #491, #457, #394, .T. ) ;
#771 = CARTESIAN_POINT ( 'NONE',  ( 0.3175000000000000044, 17.93750000000001066, -10.32999999999703178 ) ) ;
#772 = EDGE_LOOP ( 'NONE', ( #467, #518, #369, #310 ) ) ;
#773 = CARTESIAN_POINT ( 'NONE',  ( 0.3175000000000000044, 19.14500000000001734, 15.83500000000783992 ) ) ;
#774 = EDGE_LOOP ( 'NONE', ( #521, #22, #599, #225 ) ) ;
#775 = DIRECTION ( 'NONE',  ( -1.000000000000000000, -0.000000000000000000, -0.000000000000000000 ) ) ;
#776 = VECTOR ( 'NONE', #303, 100.0000000000000000 ) ;
#777 = ORIENTED_EDGE ( 'NONE', *, *, #751, .F. ) ;
#778 = LINE ( 'NONE', #722, #80 ) ;
#779 = CARTESIAN_POINT ( 'NONE',  ( 0.3175000000000000044, 9.999999999997404743, -14.29750000000264087 ) ) ;
ENDSEC;
END-ISO-10303-21;
