ISO-10303-21;
HEADER;
FILE_DESCRIPTION (( 'STEP AP214' ),
    '1' );
FILE_NAME ('throttle sensor coupling.STEP',
    '2026-09-16T13:32:27',
    ( '' ),
    ( '' ),
    'SwSTEP 2.0',
    'SolidWorks 2026',
    '' );
FILE_SCHEMA (( 'AUTOMOTIVE_DESIGN' ));
ENDSEC;

DATA;
#1 = CARTESIAN_POINT ( 'NONE',  ( 4.898587196589412459E-17, -0.6250000000000000000, 0.4000000000000000222 ) ) ;
#2 =( NAMED_UNIT ( * ) PLANE_ANGLE_UNIT ( ) SI_UNIT ( $, .RADIAN. ) );
#3 = CARTESIAN_POINT ( 'NONE',  ( 0.4481557425644803749, -0.4122937717230820698, -0.1544268855761994907 ) ) ;
#4 = DIRECTION ( 'NONE',  ( -1.000000000000000000, -0.000000000000000000, -0.000000000000000000 ) ) ;
#5 = EDGE_CURVE ( 'NONE', #107, #297, #311, .T. ) ;
#6 = DIRECTION ( 'NONE',  ( -0.000000000000000000, -1.000000000000000000, -0.000000000000000000 ) ) ;
#7 = CIRCLE ( 'NONE', #49, 0.4399999999999999467 ) ;
#8 = CARTESIAN_POINT ( 'NONE',  ( 0.2114809781701985358, -0.1204130852737585328, 0.4242028134364173586 ) ) ;
#9 = CARTESIAN_POINT ( 'NONE',  ( 0.4738016222625008322, 0.4400306807016615696, -0.01500736268852709276 ) ) ;
#10 = FACE_BOUND ( 'NONE', #218, .T. ) ;
#11 = EDGE_CURVE ( 'NONE', #297, #107, #226, .T. ) ;
#12 = CARTESIAN_POINT ( 'NONE',  ( 0.4319360253085087198, 0.3946059592414620787, 0.1952143152560380235 ) ) ;
#13 = VERTEX_POINT ( 'NONE', #315 ) ;
#14 = DIRECTION ( 'NONE',  ( 1.000000000000000000, 0.000000000000000000, 0.000000000000000000 ) ) ;
#15 = EDGE_LOOP ( 'NONE', ( #340, #75, #327, #43 ) ) ;
#16 =( GEOMETRIC_REPRESENTATION_CONTEXT ( 3 ) GLOBAL_UNCERTAINTY_ASSIGNED_CONTEXT ( ( #352 ) ) GLOBAL_UNIT_ASSIGNED_CONTEXT ( ( #212, #52, #47 ) ) REPRESENTATION_CONTEXT ( 'NONE', 'WORKASPACE' ) );
#17 = CARTESIAN_POINT ( 'NONE',  ( 5.802047455308083065E-17, -0.6250000000000000000, 0.4737731286561720490 ) ) ;
#18 = ORIENTED_EDGE ( 'NONE', *, *, #290, .T. ) ;
#19 = CARTESIAN_POINT ( 'NONE',  ( 0.8800000000000000044, 0.000000000000000000, 0.000000000000000000 ) ) ;
#20 = VERTEX_POINT ( 'NONE', #264 ) ;
#21 = SURFACE_SIDE_STYLE ('',( #270 ) ) ;
#22 = LINE ( 'NONE', #27, #273 ) ;
#23 = CYLINDRICAL_SURFACE ( 'NONE', #336, 0.4737731286561720490 ) ;
#24 = DIRECTION ( 'NONE',  ( -0.000000000000000000, -1.000000000000000000, -0.000000000000000000 ) ) ;
#25 = CIRCLE ( 'NONE', #135, 0.4399999999999999467 ) ;
#26 = CARTESIAN_POINT ( 'NONE',  ( 0.8800000000000000044, 5.388445916248353273E-17, -0.4399999999999999467 ) ) ;
#27 = CARTESIAN_POINT ( 'NONE',  ( 0.8800000000000000044, 5.388445916248353273E-17, -0.4399999999999999467 ) ) ;
#28 = CARTESIAN_POINT ( 'NONE',  ( 0.4267067383340409359, -0.3888982481943186187, 0.2079632870167488490 ) ) ;
#29 = CARTESIAN_POINT ( 'NONE',  ( 0.2626445164344342054, -0.1960397620237609440, 0.3948200386132885709 ) ) ;
#30 = AXIS2_PLACEMENT_3D ( 'NONE', #250, #6, #227 ) ;
#31 = CARTESIAN_POINT ( 'NONE',  ( 0.4261665931997151713, -0.3883058083007209227, -0.2090541003804434195 ) ) ;
#32 = EDGE_CURVE ( 'NONE', #234, #160, #127, .T. ) ;
#33 = CARTESIAN_POINT ( 'NONE',  ( 0.3837184115342470725, -0.3412201247555704531, 0.2792169178515425121 ) ) ;
#34 =( GEOMETRIC_REPRESENTATION_CONTEXT ( 3 ) GLOBAL_UNCERTAINTY_ASSIGNED_CONTEXT ( ( #53 ) ) GLOBAL_UNIT_ASSIGNED_CONTEXT ( ( #196, #2, #222 ) ) REPRESENTATION_CONTEXT ( 'NONE', 'WORKASPACE' ) );
#35 = VERTEX_POINT ( 'NONE', #1 ) ;
#36 = FACE_OUTER_BOUND ( 'NONE', #154, .T. ) ;
#37 = DIRECTION ( 'NONE',  ( 0.000000000000000000, -0.000000000000000000, 1.000000000000000000 ) ) ;
#38 = CARTESIAN_POINT ( 'NONE',  ( 0.2624453804085865039, 0.1957849707056623090, 0.3949572908325221787 ) ) ;
#39 = DIRECTION ( 'NONE',  ( 0.000000000000000000, 0.000000000000000000, -1.000000000000000000 ) ) ;
#40 = ORIENTED_EDGE ( 'NONE', *, *, #11, .T. ) ;
#41 = COLOUR_RGB ( '',0.7921568627450980005, 0.8196078431372548767, 0.9333333333333333481 ) ;
#42 = CARTESIAN_POINT ( 'NONE',  ( 0.4698609195801818350, 0.4357851623000719710, -0.06280846990050062417 ) ) ;
#43 = ORIENTED_EDGE ( 'NONE', *, *, #79, .F. ) ;
#44 = EDGE_CURVE ( 'NONE', #76, #347, #299, .T. ) ;
#45 = CARTESIAN_POINT ( 'NONE',  ( 0.3833870026961956334, 0.3408473634067717972, 0.2796627295012472092 ) ) ;
#46 = ORIENTED_EDGE ( 'NONE', *, *, #67, .T. ) ;
#47 =( NAMED_UNIT ( * ) SI_UNIT ( $, .STERADIAN. ) SOLID_ANGLE_UNIT ( ) );
#48 = VERTEX_POINT ( 'NONE', #139 ) ;
#49 = AXIS2_PLACEMENT_3D ( 'NONE', #129, #14, #126 ) ;
#50 = CARTESIAN_POINT ( 'NONE',  ( 0.000000000000000000, 0.6250000000000000000, -0.4737731286561720490 ) ) ;
#51 = ORIENTED_EDGE ( 'NONE', *, *, #5, .T. ) ;
#52 =( NAMED_UNIT ( * ) PLANE_ANGLE_UNIT ( ) SI_UNIT ( $, .RADIAN. ) );
#53 = UNCERTAINTY_MEASURE_WITH_UNIT (LENGTH_MEASURE( 1.000000000000000082E-05 ), #196, 'distance_accuracy_value', 'NONE');
#54 = CYLINDRICAL_SURFACE ( 'NONE', #77, 0.4399999999999999467 ) ;
#55 = CARTESIAN_POINT ( 'NONE',  ( 0.000000000000000000, -0.6250000000000000000, 0.000000000000000000 ) ) ;
#56 = AXIS2_PLACEMENT_3D ( 'NONE', #125, #206, #152 ) ;
#57 = ORIENTED_EDGE ( 'NONE', *, *, #323, .T. ) ;
#58 = CARTESIAN_POINT ( 'NONE',  ( 0.4430678132722734031, -0.4067606335187033961, -0.1684251805133402391 ) ) ;
#59 = CARTESIAN_POINT ( 'NONE',  ( 0.1756729274437521526, 5.388444391672436049E-17, -0.4399999999999999467 ) ) ;
#60 = STYLED_ITEM ( 'NONE', ( #104 ), #294 ) ;
#61 = CARTESIAN_POINT ( 'NONE',  ( 0.4131720182117176732, -0.3740353871239795458, 0.2334326239661817237 ) ) ;
#62 = ADVANCED_FACE ( 'NONE', ( #144 ), #223, .F. ) ;
#63 = ORIENTED_EDGE ( 'NONE', *, *, #44, .T. ) ;
#64 = CARTESIAN_POINT ( 'NONE',  ( 0.000000000000000000, -0.6250000000000000000, 0.000000000000000000 ) ) ;
#65 = DIRECTION ( 'NONE',  ( -0.000000000000000000, -1.000000000000000000, -0.000000000000000000 ) ) ;
#66 = CIRCLE ( 'NONE', #296, 0.4000000000000000222 ) ;
#67 = EDGE_CURVE ( 'NONE', #160, #20, #200, .T. ) ;
#68 = CARTESIAN_POINT ( 'NONE',  ( 0.1858810830687230298, 0.06252542998242995032, 0.4358069797932241363 ) ) ;
#69 = CARTESIAN_POINT ( 'NONE',  ( 0.3161541050188042545, 0.2631746231866058383, -0.3536007050897451154 ) ) ;
#70 = PLANE ( 'NONE',  #108 ) ;
#71 = ORIENTED_EDGE ( 'NONE', *, *, #219, .F. ) ;
#72 = CARTESIAN_POINT ( 'NONE',  ( 0.3332656796672416877, 0.2833760334802601921, 0.3376846876057867930 ) ) ;
#73 = EDGE_LOOP ( 'NONE', ( #266, #271 ) ) ;
#74 = FACE_BOUND ( 'NONE', #183, .T. ) ;
#75 = ORIENTED_EDGE ( 'NONE', *, *, #338, .T. ) ;
#76 = VERTEX_POINT ( 'NONE', #59 ) ;
#77 = AXIS2_PLACEMENT_3D ( 'NONE', #19, #274, #110 ) ;
#78 = DIRECTION ( 'NONE',  ( 0.000000000000000000, 0.000000000000000000, -1.000000000000000000 ) ) ;
#79 = EDGE_CURVE ( 'NONE', #318, #347, #172, .T. ) ;
#80 = CARTESIAN_POINT ( 'NONE',  ( 0.8800000000000000044, 0.000000000000000000, 0.4399999999999999467 ) ) ;
#81 = PRODUCT_DEFINITION_CONTEXT ( 'detailed design', #225, 'design' ) ;
#82 = DIRECTION ( 'NONE',  ( 0.000000000000000000, 0.000000000000000000, 1.000000000000000000 ) ) ;
#83 = ADVANCED_FACE ( 'NONE', ( #36 ), #257, .F. ) ;
#84 = ORIENTED_EDGE ( 'NONE', *, *, #323, .F. ) ;
#85 = CARTESIAN_POINT ( 'NONE',  ( 0.8800000000000000044, 0.000000000000000000, 0.000000000000000000 ) ) ;
#86 = CARTESIAN_POINT ( 'NONE',  ( 0.2805094030007864725, -0.2190705730184862032, 0.3824884202579839632 ) ) ;
#87 = CARTESIAN_POINT ( 'NONE',  ( 0.1756729274437852650, 1.083325287106930978E-14, 0.4400000000000019451 ) ) ;
#88 = EDGE_CURVE ( 'NONE', #188, #318, #7, .T. ) ;
#89 = CARTESIAN_POINT ( 'NONE',  ( 0.4486238488078957420, -0.4128025016251137824, 0.1530714652639120210 ) ) ;
#90 = AXIS2_PLACEMENT_3D ( 'NONE', #64, #306, #142 ) ;
#91 = DIRECTION ( 'NONE',  ( 0.000000000000000000, 0.000000000000000000, 1.000000000000000000 ) ) ;
#92 = CARTESIAN_POINT ( 'NONE',  ( 0.4125754682569303111, -0.3733762785667619766, -0.2344682801376645753 ) ) ;
#93 = CARTESIAN_POINT ( 'NONE',  ( 0.1916803096194167610, -0.07771347864194741439, 0.4333271855601688038 ) ) ;
#94 = ADVANCED_FACE ( 'NONE', ( #261, #10 ), #151, .F. ) ;
#95 = CARTESIAN_POINT ( 'NONE',  ( 0.4730163635375496112, 0.4391855007926074861, -0.03114012629532530649 ) ) ;
#96 = AXIS2_PLACEMENT_3D ( 'NONE', #147, #272, #162 ) ;
#97 = CARTESIAN_POINT ( 'NONE',  ( 0.3677045686859918283, 0.3231728745623363430, -0.2998054226468376826 ) ) ;
#98 = CARTESIAN_POINT ( 'NONE',  ( 0.1779572133187283245, 0.03203938182265626128, -0.4391023258105744009 ) ) ;
#99 = DIRECTION ( 'NONE',  ( 0.000000000000000000, 1.000000000000000000, 0.000000000000000000 ) ) ;
#100 = CARTESIAN_POINT ( 'NONE',  ( 0.1756729274437522359, 0.01620368829914512962, 0.4400000000000000022 ) ) ;
#101 = ORIENTED_EDGE ( 'NONE', *, *, #79, .T. ) ;
#102 = CARTESIAN_POINT ( 'NONE',  ( 0.4054482443247993673, 0.3654317700677003899, 0.2454723269098702809 ) ) ;
#103 = ORIENTED_EDGE ( 'NONE', *, *, #281, .T. ) ;
#104 = PRESENTATION_STYLE_ASSIGNMENT (( #217 ) ) ;
#105 = ORIENTED_EDGE ( 'NONE', *, *, #262, .F. ) ;
#106 = DIRECTION ( 'NONE',  ( 0.000000000000000000, 1.000000000000000000, 0.000000000000000000 ) ) ;
#107 = VERTEX_POINT ( 'NONE', #174 ) ;
#108 = AXIS2_PLACEMENT_3D ( 'NONE', #238, #284, #37 ) ;
#109 = CARTESIAN_POINT ( 'NONE',  ( 0.000000000000000000, 0.6250000000000000000, 0.000000000000000000 ) ) ;
#110 = DIRECTION ( 'NONE',  ( 0.000000000000000000, 0.000000000000000000, 1.000000000000000000 ) ) ;
#111 = FILL_AREA_STYLE_COLOUR ( '', #41 ) ;
#112 = AXIS2_PLACEMENT_3D ( 'NONE', #133, #99, #166 ) ;
#113 = CARTESIAN_POINT ( 'NONE',  ( 0.2623358801819136721, -0.1956267655551153228, -0.3950228415976944629 ) ) ;
#114 = APPLICATION_PROTOCOL_DEFINITION ( 'draft international standard', 'automotive_design', 1998, #205 ) ;
#115 = CARTESIAN_POINT ( 'NONE',  ( 0.1778842401701870024, -0.03171183480616449751, -0.4391322439008630285 ) ) ;
#116 = EDGE_CURVE ( 'NONE', #107, #13, #341, .T. ) ;
#117 = SHAPE_DEFINITION_REPRESENTATION ( #319, #320 ) ;
#118 = CARTESIAN_POINT ( 'NONE',  ( 0.4575510625313429225, -0.4224873044865413152, 0.1238598255032268836 ) ) ;
#119 = CARTESIAN_POINT ( 'NONE',  ( 0.1859393558255494905, -0.06271515702560474803, 0.4357824292107001507 ) ) ;
#120 = CARTESIAN_POINT ( 'NONE',  ( 0.000000000000000000, 0.6250000000000000000, 0.000000000000000000 ) ) ;
#121 = CARTESIAN_POINT ( 'NONE',  ( 0.2278826257950146705, 0.1462349759655331427, 0.4158585674725754910 ) ) ;
#122 = CARTESIAN_POINT ( 'NONE',  ( 0.4737137225683993869, 0.4399360340553437609, 0.03263693481600558194 ) ) ;
#123 = AXIS2_PLACEMENT_3D ( 'NONE', #109, #298, #82 ) ;
#124 = CARTESIAN_POINT ( 'NONE',  ( 0.2805247724810515653, 0.2190927021712878175, -0.3824823248003234033 ) ) ;
#125 = CARTESIAN_POINT ( 'NONE',  ( 0.000000000000000000, 0.6250000000000000000, 0.000000000000000000 ) ) ;
#126 = DIRECTION ( 'NONE',  ( 0.000000000000000000, 0.000000000000000000, -1.000000000000000000 ) ) ;
#127 = LINE ( 'NONE', #282, #357 ) ;
#128 = PRODUCT ( 'throttle sensor coupling', 'throttle sensor coupling', '', ( #165 ) ) ;
#129 = CARTESIAN_POINT ( 'NONE',  ( 0.8800000000000000044, 0.000000000000000000, 0.000000000000000000 ) ) ;
#130 = EDGE_LOOP ( 'NONE', ( #103, #349 ) ) ;
#131 = DIRECTION ( 'NONE',  ( -0.000000000000000000, -1.000000000000000000, -0.000000000000000000 ) ) ;
#132 = ORIENTED_EDGE ( 'NONE', *, *, #219, .T. ) ;
#133 = CARTESIAN_POINT ( 'NONE',  ( 0.000000000000000000, 0.6250000000000000000, 0.000000000000000000 ) ) ;
#134 = FACE_OUTER_BOUND ( 'NONE', #73, .T. ) ;
#135 = AXIS2_PLACEMENT_3D ( 'NONE', #240, #348, #164 ) ;
#136 = DIRECTION ( 'NONE',  ( -0.000000000000000000, -1.000000000000000000, -0.000000000000000000 ) ) ;
#137 = CYLINDRICAL_SURFACE ( 'NONE', #178, 0.4737731286561720490 ) ;
#138 = CARTESIAN_POINT ( 'NONE',  ( 4.898587196589412459E-17, 0.6250000000000000000, 0.4000000000000000222 ) ) ;
#139 = CARTESIAN_POINT ( 'NONE',  ( 0.000000000000000000, 0.6250000000000000000, -0.4737731286561720490 ) ) ;
#140 = CIRCLE ( 'NONE', #123, 0.4737731286561720490 ) ;
#141 = CYLINDRICAL_SURFACE ( 'NONE', #255, 0.4399999999999999467 ) ;
#142 = DIRECTION ( 'NONE',  ( 0.000000000000000000, 0.000000000000000000, 1.000000000000000000 ) ) ;
#143 = CARTESIAN_POINT ( 'NONE',  ( 0.3831811375378685880, -0.3406157843579093458, -0.2799394706598636873 ) ) ;
#144 = FACE_OUTER_BOUND ( 'NONE', #179, .T. ) ;
#145 = DIRECTION ( 'NONE',  ( 1.000000000000000000, 0.000000000000000000, 0.000000000000000000 ) ) ;
#146 = CARTESIAN_POINT ( 'NONE',  ( 0.1756729274437522914, -0.01599277335448821488, -0.4400000000000001132 ) ) ;
#147 = CARTESIAN_POINT ( 'NONE',  ( 0.000000000000000000, 0.6250000000000000000, 0.000000000000000000 ) ) ;
#148 = CARTESIAN_POINT ( 'NONE',  ( 0.3157196722826753899, 0.2626493098402977733, 0.3539776964966401263 ) ) ;
#149 = CARTESIAN_POINT ( 'NONE',  ( 0.4488538412866538985, 0.4130777597329450268, 0.1544562469213439648 ) ) ;
#150 = ORIENTED_EDGE ( 'NONE', *, *, #11, .F. ) ;
#151 = PLANE ( 'NONE',  #251 ) ;
#152 = DIRECTION ( 'NONE',  ( 0.000000000000000000, 0.000000000000000000, 1.000000000000000000 ) ) ;
#153 = CARTESIAN_POINT ( 'NONE',  ( 0.4582980976305442988, 0.4232994996984029701, -0.1240592663887920277 ) ) ;
#154 = EDGE_LOOP ( 'NONE', ( #51, #57, #71, #289 ) ) ;
#155 = AXIS2_PLACEMENT_3D ( 'NONE', #167, #91, #145 ) ;
#156 = CARTESIAN_POINT ( 'NONE',  ( 0.000000000000000000, 0.6250000000000000000, 0.000000000000000000 ) ) ;
#157 = EDGE_CURVE ( 'NONE', #347, #76, #232, .T. ) ;
#158 = ORIENTED_EDGE ( 'NONE', *, *, #281, .F. ) ;
#159 = CARTESIAN_POINT ( 'NONE',  ( 0.000000000000000000, 0.6250000000000000000, 0.000000000000000000 ) ) ;
#160 = VERTEX_POINT ( 'NONE', #17 ) ;
#161 = CARTESIAN_POINT ( 'NONE',  ( 4.898587196589412459E-17, 0.6250000000000000000, 0.4000000000000000222 ) ) ;
#162 = DIRECTION ( 'NONE',  ( 0.000000000000000000, 0.000000000000000000, 1.000000000000000000 ) ) ;
#163 = CLOSED_SHELL ( 'NONE', ( #83, #202, #329, #215, #301, #259, #62, #176, #94 ) ) ;
#164 = DIRECTION ( 'NONE',  ( 0.000000000000000000, 0.000000000000000000, -1.000000000000000000 ) ) ;
#165 = PRODUCT_CONTEXT ( 'NONE', #205, 'mechanical' ) ;
#166 = DIRECTION ( 'NONE',  ( 0.000000000000000000, 0.000000000000000000, 1.000000000000000000 ) ) ;
#167 = CARTESIAN_POINT ( 'NONE',  ( 0.000000000000000000, 0.000000000000000000, 0.000000000000000000 ) ) ;
#168 = CARTESIAN_POINT ( 'NONE',  ( 0.3158313424588909957, -0.2627875913633745952, -0.3538874175742592332 ) ) ;
#169 = FACE_OUTER_BOUND ( 'NONE', #15, .T. ) ;
#170 = DIRECTION ( 'NONE',  ( -0.000000000000000000, -1.000000000000000000, -0.000000000000000000 ) ) ;
#171 = CARTESIAN_POINT ( 'NONE',  ( 0.3672535744471013275, -0.3226591050091965895, -0.3003479200214639877 ) ) ;
#172 = LINE ( 'NONE', #283, #287 ) ;
#173 = CARTESIAN_POINT ( 'NONE',  ( 0.4613959125172483189, -0.4266459759429970244, 0.1087102348528431323 ) ) ;
#174 = CARTESIAN_POINT ( 'NONE',  ( 0.000000000000000000, 0.6250000000000000000, -0.4000000000000000222 ) ) ;
#175 = CARTESIAN_POINT ( 'NONE',  ( 0.1916423485619986600, 0.07762214289994413818, -0.4333440069924481275 ) ) ;
#176 = ADVANCED_FACE ( 'NONE', ( #314, #74 ), #70, .T. ) ;
#177 = CARTESIAN_POINT ( 'NONE',  ( 0.4578891422458925553, 0.4228570737300056392, 0.1256410818735836377 ) ) ;
#178 = AXIS2_PLACEMENT_3D ( 'NONE', #156, #131, #300 ) ;
#179 = EDGE_LOOP ( 'NONE', ( #84, #40, #243, #105 ) ) ;
#180 = CARTESIAN_POINT ( 'NONE',  ( 0.4124613463068490526, 0.3731925999238925873, 0.2335333330469572533 ) ) ;
#181 = EDGE_LOOP ( 'NONE', ( #322, #209, #101, #195 ) ) ;
#182 = EDGE_CURVE ( 'NONE', #234, #48, #208, .T. ) ;
#183 = EDGE_LOOP ( 'NONE', ( #239, #150 ) ) ;
#184 = DIRECTION ( 'NONE',  ( 0.000000000000000000, 0.000000000000000000, 1.000000000000000000 ) ) ;
#185 = ORIENTED_EDGE ( 'NONE', *, *, #262, .T. ) ;
#186 = LINE ( 'NONE', #138, #309 ) ;
#187 = DIRECTION ( 'NONE',  ( 0.000000000000000000, 1.000000000000000000, 0.000000000000000000 ) ) ;
#188 = VERTEX_POINT ( 'NONE', #26 ) ;
#189 = CARTESIAN_POINT ( 'NONE',  ( 0.4571191685868575272, -0.4220195716997776625, -0.1254324451358008741 ) ) ;
#190 = PRODUCT_DEFINITION_FORMATION_WITH_SPECIFIED_SOURCE ( 'ANY', '', #128, .NOT_KNOWN. ) ;
#191 = CARTESIAN_POINT ( 'NONE',  ( 0.3160105506189304081, -0.2630001119643675667, 0.3537234070581505296 ) ) ;
#192 = AXIS2_PLACEMENT_3D ( 'NONE', #55, #248, #275 ) ;
#193 = DIRECTION ( 'NONE',  ( -1.000000000000000000, -0.000000000000000000, -0.000000000000000000 ) ) ;
#194 = CARTESIAN_POINT ( 'NONE',  ( 0.4704203668075054856, -0.4363953631530239630, -0.06436570069596607435 ) ) ;
#195 = ORIENTED_EDGE ( 'NONE', *, *, #44, .F. ) ;
#196 =( LENGTH_UNIT ( ) NAMED_UNIT ( * ) SI_UNIT ( .CENTI., .METRE. ) );
#197 = CARTESIAN_POINT ( 'NONE',  ( 0.4698846604217725709, -0.4358107531593790052, 0.06261438080997139277 ) ) ;
#198 = CARTESIAN_POINT ( 'NONE',  ( 0.1779341194210379007, -0.03194209965024449177, 0.4391118522648402855 ) ) ;
#199 = AXIS2_PLACEMENT_3D ( 'NONE', #350, #354, #325 ) ;
#200 = CIRCLE ( 'NONE', #90, 0.4737731286561720490 ) ;
#201 = CARTESIAN_POINT ( 'NONE',  ( 0.4266976596573024971, 0.3888882370916590392, -0.2079773298786129487 ) ) ;
#202 = ADVANCED_FACE ( 'NONE', ( #267, #247 ), #137, .T. ) ;
#203 = CARTESIAN_POINT ( 'NONE',  ( 0.4675105541322847613, 0.4332513302759370966, -0.07833630588426905572 ) ) ;
#204 = CARTESIAN_POINT ( 'NONE',  ( 0.1756729274437521526, 5.388444391672436049E-17, -0.4399999999999999467 ) ) ;
#205 = APPLICATION_CONTEXT ( 'automotive_design' ) ;
#206 = DIRECTION ( 'NONE',  ( 0.000000000000000000, 1.000000000000000000, 0.000000000000000000 ) ) ;
#207 = DIRECTION ( 'NONE',  ( 0.000000000000000000, -0.000000000000000000, 1.000000000000000000 ) ) ;
#208 = CIRCLE ( 'NONE', #96, 0.4737731286561720490 ) ;
#209 = ORIENTED_EDGE ( 'NONE', *, *, #236, .F. ) ;
#210 = CARTESIAN_POINT ( 'NONE',  ( 0.1859309478882416045, 0.06267431370211072605, -0.4357858475464791992 ) ) ;
#211 = ORIENTED_EDGE ( 'NONE', *, *, #67, .F. ) ;
#212 =( LENGTH_UNIT ( ) NAMED_UNIT ( * ) SI_UNIT ( .CENTI., .METRE. ) );
#213 = ORIENTED_EDGE ( 'NONE', *, *, #244, .F. ) ;
#214 = CARTESIAN_POINT ( 'NONE',  ( 0.000000000000000000, -0.6250000000000000000, 0.000000000000000000 ) ) ;
#215 = ADVANCED_FACE ( 'NONE', ( #353 ), #54, .T. ) ;
#216 = LINE ( 'NONE', #50, #220 ) ;
#217 = SURFACE_STYLE_USAGE ( .BOTH. , #21 ) ;
#218 = EDGE_LOOP ( 'NONE', ( #132, #185 ) ) ;
#219 = EDGE_CURVE ( 'NONE', #13, #35, #268, .T. ) ;
#220 = VECTOR ( 'NONE', #24, 100.0000000000000000 ) ;
#221 = CARTESIAN_POINT ( 'NONE',  ( 0.1756729274437522359, -0.01623417673671577119, 0.4400000000000000022 ) ) ;
#222 =( NAMED_UNIT ( * ) SI_UNIT ( $, .STERADIAN. ) SOLID_ANGLE_UNIT ( ) );
#223 = CYLINDRICAL_SURFACE ( 'NONE', #30, 0.4000000000000000222 ) ;
#224 = CARTESIAN_POINT ( 'NONE',  ( 0.4738086526596752002, -0.4400382507397697096, 0.01490557467795833139 ) ) ;
#225 = APPLICATION_CONTEXT ( 'automotive_design' ) ;
#226 = CIRCLE ( 'NONE', #56, 0.4000000000000000222 ) ;
#227 = DIRECTION ( 'NONE',  ( 0.000000000000000000, 0.000000000000000000, -1.000000000000000000 ) ) ;
#228 = CARTESIAN_POINT ( 'NONE',  ( 0.1859239196762810797, -0.06269403060611851430, -0.4357891997589422584 ) ) ;
#229 = CARTESIAN_POINT ( 'NONE',  ( 0.4704705629149603108, 0.4364495260466481064, 0.06407493637549871446 ) ) ;
#230 = VECTOR ( 'NONE', #291, 100.0000000000000000 ) ;
#231 = CARTESIAN_POINT ( 'NONE',  ( 0.4132135961731377982, 0.3740816139589959177, -0.2333660847811919181 ) ) ;
#232 = B_SPLINE_CURVE_WITH_KNOTS ( 'NONE', 3,
 ( #343, #100, #312, #68, #258, #285, #121, #38, #321, #148, #72, #260, #45, #102, #180, #337, #12, #149, #177, #229, #122, #9, #95, #42, #203, #153, #288, #201, #231, #263, #97, #313, #69, #124, #233, #265, #339, #175, #210, #98, #286, #204 ),
 .UNSPECIFIED., .F., .F.,
 ( 4, 2, 2, 2, 2, 2, 2, 2, 2, 2, 2, 2, 2, 2, 2, 2, 2, 2, 2, 2, 4 ),
 ( 1.665085555775702376E-16, 0.0004759766746375452889, 0.0009519533492749242612, 0.001903906698549682856, 0.002855860047824441451, 0.003807813397099200046, 0.004759766746373958642, 0.005235743421011337072, 0.005711720095648715502, 0.006663673444923474097, 0.007615626794198233560, 0.008091603468835613724, 0.008567580143472990420, 0.009519533492747750750, 0.01047148684202250934, 0.01142344019129726794, 0.01237539354057202827, 0.01332734688984678686, 0.01427930023912154719, 0.01475527691375892389, 0.01523125358839630406 ),
 .UNSPECIFIED. ) ;
#233 = CARTESIAN_POINT ( 'NONE',  ( 0.2626111451099792382, 0.1959984967814689671, -0.3948438369507384360 ) ) ;
#234 = VERTEX_POINT ( 'NONE', #242 ) ;
#235 = CARTESIAN_POINT ( 'NONE',  ( 0.000000000000000000, -0.6250000000000000000, 0.000000000000000000 ) ) ;
#236 = EDGE_CURVE ( 'NONE', #318, #188, #25, .T. ) ;
#237 = ORIENTED_EDGE ( 'NONE', *, *, #32, .T. ) ;
#238 = CARTESIAN_POINT ( 'NONE',  ( 0.000000000000000000, 0.6250000000000000000, 0.000000000000000000 ) ) ;
#239 = ORIENTED_EDGE ( 'NONE', *, *, #5, .F. ) ;
#240 = CARTESIAN_POINT ( 'NONE',  ( 0.8800000000000000044, 0.000000000000000000, 0.000000000000000000 ) ) ;
#241 = ORIENTED_EDGE ( 'NONE', *, *, #182, .F. ) ;
#242 = CARTESIAN_POINT ( 'NONE',  ( 5.802047455308083065E-17, 0.6250000000000000000, 0.4737731286561720490 ) ) ;
#243 = ORIENTED_EDGE ( 'NONE', *, *, #116, .T. ) ;
#244 = EDGE_CURVE ( 'NONE', #48, #20, #216, .T. ) ;
#245 = PLANE ( 'NONE',  #199 ) ;
#246 = MECHANICAL_DESIGN_GEOMETRIC_PRESENTATION_REPRESENTATION (  '', ( #60 ), #16 ) ;
#247 = FACE_OUTER_BOUND ( 'NONE', #324, .T. ) ;
#248 = DIRECTION ( 'NONE',  ( 0.000000000000000000, 1.000000000000000000, 0.000000000000000000 ) ) ;
#249 = DIRECTION ( 'NONE',  ( 0.000000000000000000, 0.000000000000000000, 1.000000000000000000 ) ) ;
#250 = CARTESIAN_POINT ( 'NONE',  ( 0.000000000000000000, 0.6250000000000000000, 0.000000000000000000 ) ) ;
#251 = AXIS2_PLACEMENT_3D ( 'NONE', #235, #335, #207 ) ;
#252 = CARTESIAN_POINT ( 'NONE',  ( 0.4730186590042416706, -0.4391879668613792309, 0.03107254443603711322 ) ) ;
#253 = CARTESIAN_POINT ( 'NONE',  ( 0.3336590962979584241, -0.2838346396117524817, -0.3372768424647953900 ) ) ;
#254 = PRODUCT_DEFINITION ( 'UNKNOWN', '', #190, #81 ) ;
#255 = AXIS2_PLACEMENT_3D ( 'NONE', #85, #4, #249 ) ;
#256 = CARTESIAN_POINT ( 'NONE',  ( 0.3677057941438148236, -0.3231758611785446877, 0.2998139806079965775 ) ) ;
#257 = CYLINDRICAL_SURFACE ( 'NONE', #316, 0.4000000000000000222 ) ;
#258 = CARTESIAN_POINT ( 'NONE',  ( 0.1916123435834558852, 0.07754290401124627752, 0.4333568069679608059 ) ) ;
#259 = ADVANCED_FACE ( 'NONE', ( #346 ), #23, .T. ) ;
#260 = CARTESIAN_POINT ( 'NONE',  ( 0.3672305043183626272, 0.3226363377067995031, 0.3003976001661254336 ) ) ;
#261 = FACE_OUTER_BOUND ( 'NONE', #345, .T. ) ;
#262 = EDGE_CURVE ( 'NONE', #35, #13, #66, .T. ) ;
#263 = CARTESIAN_POINT ( 'NONE',  ( 0.3836962263835217990, 0.3411955040453861776, -0.2792533105398832260 ) ) ;
#264 = CARTESIAN_POINT ( 'NONE',  ( 0.000000000000000000, -0.6250000000000000000, -0.4737731286561720490 ) ) ;
#265 = CARTESIAN_POINT ( 'NONE',  ( 0.2281690903586290620, 0.1466694617147860091, -0.4156983705992501887 ) ) ;
#266 = ORIENTED_EDGE ( 'NONE', *, *, #236, .T. ) ;
#267 = FACE_BOUND ( 'NONE', #293, .T. ) ;
#268 = CIRCLE ( 'NONE', #279, 0.4000000000000000222 ) ;
#269 = ORIENTED_EDGE ( 'NONE', *, *, #244, .T. ) ;
#270 = SURFACE_STYLE_FILL_AREA ( #295 ) ;
#271 = ORIENTED_EDGE ( 'NONE', *, *, #88, .T. ) ;
#272 = DIRECTION ( 'NONE',  ( 0.000000000000000000, 1.000000000000000000, 0.000000000000000000 ) ) ;
#273 = VECTOR ( 'NONE', #193, 100.0000000000000000 ) ;
#274 = DIRECTION ( 'NONE',  ( -1.000000000000000000, -0.000000000000000000, -0.000000000000000000 ) ) ;
#275 = DIRECTION ( 'NONE',  ( 0.000000000000000000, 0.000000000000000000, 1.000000000000000000 ) ) ;
#276 = ORIENTED_EDGE ( 'NONE', *, *, #157, .T. ) ;
#277 = APPLICATION_PROTOCOL_DEFINITION ( 'draft international standard', 'automotive_design', 1998, #225 ) ;
#278 = CARTESIAN_POINT ( 'NONE',  ( 0.1915987822727629464, -0.07750607684505805839, -0.4333625221939562677 ) ) ;
#279 = AXIS2_PLACEMENT_3D ( 'NONE', #214, #187, #184 ) ;
#280 = CARTESIAN_POINT ( 'NONE',  ( 0.4675453175862488431, -0.4332888467264698340, 0.07813756620575289247 ) ) ;
#281 = EDGE_CURVE ( 'NONE', #48, #234, #140, .T. ) ;
#282 = CARTESIAN_POINT ( 'NONE',  ( 5.802047455308083065E-17, 0.6250000000000000000, 0.4737731286561720490 ) ) ;
#283 = CARTESIAN_POINT ( 'NONE',  ( 0.8800000000000000044, 0.000000000000000000, 0.4399999999999999467 ) ) ;
#284 = DIRECTION ( 'NONE',  ( 0.000000000000000000, 1.000000000000000000, 0.000000000000000000 ) ) ;
#285 = CARTESIAN_POINT ( 'NONE',  ( 0.2113438573515037944, 0.1201649089626348338, 0.4242693614743556219 ) ) ;
#286 = CARTESIAN_POINT ( 'NONE',  ( 0.1756729274437522914, 0.01596273828218956053, -0.4399999999999999467 ) ) ;
#287 = VECTOR ( 'NONE', #356, 100.0000000000000000 ) ;
#288 = CARTESIAN_POINT ( 'NONE',  ( 0.4491384211429695350, 0.4133866102549026422, -0.1536233743727075385 ) ) ;
#289 = ORIENTED_EDGE ( 'NONE', *, *, #116, .F. ) ;
#290 = EDGE_CURVE ( 'NONE', #20, #160, #351, .T. ) ;
#291 = DIRECTION ( 'NONE',  ( -0.000000000000000000, -1.000000000000000000, -0.000000000000000000 ) ) ;
#292 = ORIENTED_EDGE ( 'NONE', *, *, #290, .F. ) ;
#293 = EDGE_LOOP ( 'NONE', ( #276, #63 ) ) ;
#294 = MANIFOLD_SOLID_BREP ( 'Cut-Extrude1', #163 ) ;
#295 = FILL_AREA_STYLE ('',( #111 ) ) ;
#296 = AXIS2_PLACEMENT_3D ( 'NONE', #326, #106, #302 ) ;
#297 = VERTEX_POINT ( 'NONE', #161 ) ;
#298 = DIRECTION ( 'NONE',  ( 0.000000000000000000, 1.000000000000000000, 0.000000000000000000 ) ) ;
#299 = B_SPLINE_CURVE_WITH_KNOTS ( 'NONE', 3,
 ( #331, #146, #115, #228, #278, #307, #305, #113, #333, #168, #253, #171, #143, #92, #31, #58, #3, #189, #310, #194, #328, #224, #252, #197, #280, #173, #118, #89, #334, #28, #61, #33, #256, #330, #191, #86, #29, #308, #8, #93, #119, #198, #221, #87 ),
 .UNSPECIFIED., .F., .F.,
 ( 4, 2, 2, 2, 2, 2, 2, 2, 2, 2, 2, 2, 2, 2, 2, 2, 2, 2, 2, 2, 2, 4 ),
 ( 0.01523125358839630406, 0.01570812584833882267, 0.01618499810828134128, 0.01713874262816637850, 0.01809248714805141572, 0.01904623166793645295, 0.01999997618782149017, 0.02095372070770652739, 0.02143059296764904254, 0.02190746522759156115, 0.02286120974747660184, 0.02333808200741911698, 0.02381495426736163906, 0.02429182652730415420, 0.02476869878724667629, 0.02572244330713171004, 0.02667618782701674379, 0.02762993234690178102, 0.02858367686678681130, 0.02953742138667184852, 0.03001429364661436366, 0.03049116590655688228 ),
 .UNSPECIFIED. ) ;
#300 = DIRECTION ( 'NONE',  ( 0.000000000000000000, 0.000000000000000000, -1.000000000000000000 ) ) ;
#301 = ADVANCED_FACE ( 'NONE', ( #134 ), #245, .T. ) ;
#302 = DIRECTION ( 'NONE',  ( 0.000000000000000000, 0.000000000000000000, 1.000000000000000000 ) ) ;
#303 = EDGE_LOOP ( 'NONE', ( #342, #158, #269, #18 ) ) ;
#304 = DIRECTION ( 'NONE',  ( -0.000000000000000000, -1.000000000000000000, -0.000000000000000000 ) ) ;
#305 = CARTESIAN_POINT ( 'NONE',  ( 0.2280152201358908448, -0.1464262885698993932, -0.4157790504596376446 ) ) ;
#306 = DIRECTION ( 'NONE',  ( 0.000000000000000000, 1.000000000000000000, 0.000000000000000000 ) ) ;
#307 = CARTESIAN_POINT ( 'NONE',  ( 0.2112850595758057892, -0.1200529176153198457, -0.4242974986173344565 ) ) ;
#308 = CARTESIAN_POINT ( 'NONE',  ( 0.2282593982433914481, -0.1468053104206050452, 0.4156472687474817018 ) ) ;
#309 = VECTOR ( 'NONE', #304, 100.0000000000000000 ) ;
#310 = CARTESIAN_POINT ( 'NONE',  ( 0.4610183456753801923, -0.4262377034476288462, -0.1103058668502125694 ) ) ;
#311 = CIRCLE ( 'NONE', #112, 0.4000000000000000222 ) ;
#312 = CARTESIAN_POINT ( 'NONE',  ( 0.1779331189712752004, 0.03190371731526329968, 0.4391119513887628556 ) ) ;
#313 = CARTESIAN_POINT ( 'NONE',  ( 0.3339979591740176446, 0.2842335197557477322, -0.3369500030399044110 ) ) ;
#314 = FACE_OUTER_BOUND ( 'NONE', #130, .T. ) ;
#315 = CARTESIAN_POINT ( 'NONE',  ( 0.000000000000000000, -0.6250000000000000000, -0.4000000000000000222 ) ) ;
#316 = AXIS2_PLACEMENT_3D ( 'NONE', #120, #65, #39 ) ;
#317 = CARTESIAN_POINT ( 'NONE',  ( 0.000000000000000000, 0.6250000000000000000, -0.4000000000000000222 ) ) ;
#318 = VERTEX_POINT ( 'NONE', #80 ) ;
#319 = PRODUCT_DEFINITION_SHAPE ( 'NONE', 'NONE',  #254 ) ;
#320 = ADVANCED_BREP_SHAPE_REPRESENTATION ( 'throttle sensor coupling', ( #294, #155 ), #34 ) ;
#321 = CARTESIAN_POINT ( 'NONE',  ( 0.2803295345206789912, 0.2188387452392406840, 0.3826153070105363097 ) ) ;
#322 = ORIENTED_EDGE ( 'NONE', *, *, #338, .F. ) ;
#323 = EDGE_CURVE ( 'NONE', #297, #35, #186, .T. ) ;
#324 = EDGE_LOOP ( 'NONE', ( #241, #237, #46, #213 ) ) ;
#325 = DIRECTION ( 'NONE',  ( 0.000000000000000000, 0.000000000000000000, -1.000000000000000000 ) ) ;
#326 = CARTESIAN_POINT ( 'NONE',  ( 0.000000000000000000, -0.6250000000000000000, 0.000000000000000000 ) ) ;
#327 = ORIENTED_EDGE ( 'NONE', *, *, #157, .F. ) ;
#328 = CARTESIAN_POINT ( 'NONE',  ( 0.4736983237154954729, -0.4399194532145649372, -0.03307911373934840221 ) ) ;
#329 = ADVANCED_FACE ( 'NONE', ( #169 ), #141, .T. ) ;
#330 = CARTESIAN_POINT ( 'NONE',  ( 0.3338280359057279600, -0.2840356381833739063, 0.3371273000785753315 ) ) ;
#331 = CARTESIAN_POINT ( 'NONE',  ( 0.1756729274437521526, 5.388444391672436049E-17, -0.4399999999999999467 ) ) ;
#332 = PRESENTATION_LAYER_ASSIGNMENT (  '', '', ( #60 ) ) ;
#333 = CARTESIAN_POINT ( 'NONE',  ( 0.2802157570181660340, -0.2186978549882065692, -0.3827072911710714953 ) ) ;
#334 = CARTESIAN_POINT ( 'NONE',  ( 0.4435516525208114680, -0.4072875361506695380, 0.1671511499965590286 ) ) ;
#335 = DIRECTION ( 'NONE',  ( 0.000000000000000000, 1.000000000000000000, 0.000000000000000000 ) ) ;
#336 = AXIS2_PLACEMENT_3D ( 'NONE', #159, #136, #78 ) ;
#337 = CARTESIAN_POINT ( 'NONE',  ( 0.4256938349509615804, 0.3877674503564637054, 0.2084392926634109355 ) ) ;
#338 = EDGE_CURVE ( 'NONE', #188, #76, #22, .T. ) ;
#339 = CARTESIAN_POINT ( 'NONE',  ( 0.2114489008275638182, 0.1203627816031245662, -0.4242189324669039530 ) ) ;
#340 = ORIENTED_EDGE ( 'NONE', *, *, #88, .F. ) ;
#341 = LINE ( 'NONE', #317, #230 ) ;
#342 = ORIENTED_EDGE ( 'NONE', *, *, #32, .F. ) ;
#343 = CARTESIAN_POINT ( 'NONE',  ( 0.1756729274437852650, 1.083325287106930978E-14, 0.4400000000000019451 ) ) ;
#344 = PRODUCT_RELATED_PRODUCT_CATEGORY ( 'part', '', ( #128 ) ) ;
#345 = EDGE_LOOP ( 'NONE', ( #292, #211 ) ) ;
#346 = FACE_OUTER_BOUND ( 'NONE', #303, .T. ) ;
#347 = VERTEX_POINT ( 'NONE', #355 ) ;
#348 = DIRECTION ( 'NONE',  ( 1.000000000000000000, 0.000000000000000000, 0.000000000000000000 ) ) ;
#349 = ORIENTED_EDGE ( 'NONE', *, *, #182, .T. ) ;
#350 = CARTESIAN_POINT ( 'NONE',  ( 0.8800000000000000044, 0.000000000000000000, 0.000000000000000000 ) ) ;
#351 = CIRCLE ( 'NONE', #192, 0.4737731286561720490 ) ;
#352 = UNCERTAINTY_MEASURE_WITH_UNIT (LENGTH_MEASURE( 1.000000000000000082E-05 ), #212, 'distance_accuracy_value', 'NONE');
#353 = FACE_OUTER_BOUND ( 'NONE', #181, .T. ) ;
#354 = DIRECTION ( 'NONE',  ( 1.000000000000000000, 0.000000000000000000, 0.000000000000000000 ) ) ;
#355 = CARTESIAN_POINT ( 'NONE',  ( 0.1756729274437852650, 1.083325287106930978E-14, 0.4400000000000019451 ) ) ;
#356 = DIRECTION ( 'NONE',  ( -1.000000000000000000, -0.000000000000000000, -0.000000000000000000 ) ) ;
#357 = VECTOR ( 'NONE', #170, 100.0000000000000000 ) ;
ENDSEC;
END-ISO-10303-21;
